<svg width="267" height="152" viewBox="0 0 267 152" fill="none" xmlns="http://www.w3.org/2000/svg">
<path fill-rule="evenodd" clip-rule="evenodd" d="M145.887 59.7275H0.764252V131.087C4.54747 132.094 8.45053 133.188 12.4925 134.37C67.9753 149.787 96.9304 148.639 145.887 134.37V59.7275Z" fill="#0048D3" fill-opacity="0.16"/>
<path fill-rule="evenodd" clip-rule="evenodd" d="M143.523 44.1318H3.04025V117.448C5.46983 118.129 7.94946 118.846 10.4838 119.597C65.8192 135.183 94.6974 134.023 143.523 119.597V44.1318Z" fill="#0048D3" fill-opacity="0.16"/>
<path d="M1 10.6376C1 4.89531 5.65508 0.240234 11.3974 0.240234L256.477 0.240234C262.22 0.240234 266.875 4.89532 266.875 10.6376V125.66C266.875 129.55 264.696 133.134 261.208 134.857C215.776 157.293 187.056 158.135 133.937 131.993C85.2617 106.779 56.7993 104.191 15.0493 124.576C10.5356 126.78 5.86664 129.252 1 131.993L1 10.6376Z" fill="#0048D3"/>
<path d="M1 10.6376C1 4.89531 5.65508 0.240234 11.3974 0.240234L256.477 0.240234C262.22 0.240234 266.875 4.89532 266.875 10.6376V125.66C266.875 129.55 264.696 133.134 261.208 134.857C215.776 157.293 187.056 158.135 133.937 131.993C85.2617 106.779 56.7993 104.191 15.0493 124.576C10.5356 126.78 5.86664 129.252 1 131.993L1 10.6376Z" fill="#0048D3"/>
<path fill-rule="evenodd" clip-rule="evenodd" d="M0.913601 121.949L0.913601 40.5871L233.792 40.5871V128.205C233.792 132.339 231.334 136.1 227.517 137.687C182.398 156.433 153.676 157.042 100.752 135.011C59.8204 117.075 33.1709 112.663 0.913601 121.949Z" fill="#0048D3" fill-opacity="0.2"/>
</svg>
