<svg width="866" height="297" viewBox="0 0 866 297" fill="none" xmlns="http://www.w3.org/2000/svg">
<g filter="url(#filter0_d_317_876)">
<rect x="15" y="13" width="836" height="267" rx="16" fill="white"/>
<rect x="15.75" y="13.75" width="834.5" height="265.5" rx="15.25" stroke="#0048D3" stroke-width="1.5"/>
</g>
<rect x="598" y="45" width="135" height="199" rx="16" fill="#0048D3"/>
<rect x="135" y="45" width="135" height="199" rx="16" fill="#0048D3"/>
<rect x="367" y="45" width="135" height="199" rx="16" fill="#0048D3"/>
<g clip-path="url(#clip0_317_876)">
<path d="M702.286 133.514C701.884 134.241 701.118 134.624 700.353 134.624C699.97 134.624 699.587 134.529 699.243 134.318L667.239 115.828V152.789C667.239 154.014 666.244 155.028 665 155.028C663.775 155.028 662.761 154.033 662.761 152.789V115.866L630.757 134.337C630.413 134.529 630.03 134.643 629.647 134.643C628.882 134.643 628.116 134.241 627.714 133.533C627.102 132.461 627.465 131.102 628.537 130.49L660.54 112L628.537 93.5102C627.465 92.8977 627.102 91.5387 627.714 90.4668C628.327 89.3949 629.705 89.0312 630.757 89.6437L662.761 108.134V71.173C662.761 69.948 663.756 68.9336 665 68.9336C666.225 68.9336 667.239 69.9289 667.239 71.173V108.134L699.243 89.6437C700.314 89.0312 701.673 89.3949 702.286 90.4668C702.898 91.5387 702.535 92.8977 701.463 93.5102L669.441 112L701.463 130.49C702.535 131.083 702.898 132.461 702.286 133.514Z" fill="#EDEDED"/>
<path d="M688.887 112C688.887 125.188 678.188 135.887 665 135.887C651.812 135.887 641.112 125.188 641.112 112C641.112 98.8119 651.812 88.1123 665 88.1123C678.188 88.1123 688.887 98.8119 688.887 112Z" fill="white"/>
<path d="M688.887 112C688.887 125.188 678.207 135.887 665 135.887C656.693 135.887 649.381 131.638 645.113 125.207C648.903 127.734 653.42 129.188 658.32 129.188C671.508 129.188 682.207 118.508 682.207 105.32C682.207 100.439 680.734 95.8836 678.226 92.0938C684.638 96.3812 688.887 103.693 688.887 112Z" fill="#EDEDED"/>
<path d="M680.064 123.637V130.528C675.948 133.877 670.704 135.887 664.981 135.887C659.277 135.887 654.032 133.877 649.917 130.528V123.637C649.917 118.316 654.224 113.99 659.545 113.99H670.417C675.757 114.009 680.064 118.316 680.064 123.637Z" fill="#BD90BE"/>
<path d="M680.064 123.637V127.35C680.064 122.029 675.757 117.723 670.436 117.723H659.564C654.243 117.723 649.936 122.048 649.936 127.35V123.637C649.936 118.316 654.243 113.99 659.564 113.99H670.436C675.757 114.009 680.064 118.316 680.064 123.637Z" fill="#D3B5D3"/>
<path d="M671.814 102.755V109.358C671.814 112.842 668.981 115.675 665.498 115.675C662.014 115.675 659.181 112.842 659.181 109.358V102.755H671.814Z" fill="#FEE8B3"/>
<path d="M671.814 102.755H659.181V105.301H671.814V102.755Z" fill="#FFF4D9"/>
<path d="M676.236 95.749L671.814 102.754H659.181V98.7158C659.181 97.0889 660.521 95.749 662.148 95.749H676.236Z" fill="#516468"/>
<path d="M676.236 95.749L674.417 98.6393H662.148C660.521 98.6393 659.181 99.9791 659.181 101.606V98.7158C659.181 97.0889 660.521 95.749 662.148 95.749H676.236Z" fill="#7C8B8D"/>
<path d="M672.427 71.1727C672.427 75.2688 669.096 78.5992 665 78.5992C660.885 78.5992 657.573 75.2688 657.573 71.1727C657.573 67.0574 660.904 63.7461 665 63.7461C669.096 63.7461 672.427 67.0766 672.427 71.1727Z" fill="#FB8A8A"/>
<path d="M672.427 152.826C672.427 156.922 669.096 160.253 665 160.253C660.885 160.253 657.573 156.922 657.573 152.826C657.573 148.711 660.904 145.399 665 145.399C669.096 145.38 672.427 148.711 672.427 152.826Z" fill="#FB8A8A"/>
<path d="M633.36 85.146C636.921 87.194 638.127 91.7495 636.078 95.3097C634.03 98.8698 629.475 100.076 625.915 98.0276C622.355 95.9796 621.149 91.4241 623.197 87.864C625.264 84.3229 629.8 83.0979 633.36 85.146Z" fill="#FDDD8D"/>
<path d="M704.066 125.973C707.626 128.021 708.832 132.577 706.784 136.137C704.736 139.697 700.18 140.903 696.62 138.855C693.06 136.807 691.854 132.251 693.902 128.691C695.969 125.15 700.506 123.925 704.066 125.973Z" fill="#FDDD8D"/>
<path d="M625.934 125.972C629.494 123.924 634.03 125.149 636.098 128.69C638.146 132.25 636.921 136.787 633.38 138.854C629.8 140.902 625.264 139.677 623.216 136.117C621.149 132.576 622.374 128.02 625.934 125.972Z" fill="#7BDE9E"/>
<path d="M696.639 85.146C700.2 83.0979 704.736 84.3229 706.803 87.864C708.851 91.4241 707.626 95.9604 704.085 98.0276C700.525 100.076 695.989 98.8698 693.921 95.3097C691.854 91.7495 693.079 87.2132 696.639 85.146Z" fill="#7BDE9E"/>
<path d="M672.427 71.1729C672.427 75.2689 669.096 78.5994 665 78.5994C661.861 78.5994 659.2 76.6662 658.109 73.9482C658.971 74.2928 659.909 74.4842 660.885 74.4842C664.981 74.4842 668.311 71.1537 668.311 67.0576C668.311 66.0814 668.12 65.1244 667.775 64.2822C670.493 65.3732 672.427 68.0529 672.427 71.1729Z" fill="#F96363"/>
<path d="M672.427 152.827C672.427 156.923 669.096 160.253 665 160.253C661.861 160.253 659.2 158.32 658.109 155.583C658.971 155.928 659.909 156.119 660.885 156.119C664.981 156.119 668.311 152.788 668.311 148.692C668.311 147.716 668.12 146.778 667.775 145.917C670.512 147.027 672.427 149.688 672.427 152.827Z" fill="#F96363"/>
<path d="M636.079 95.309C634.03 98.8691 629.475 100.075 625.915 98.027C624.422 97.1656 623.331 95.8641 622.737 94.3711C626.125 95.7301 630.068 94.4285 631.944 91.1938C633.131 89.1266 633.227 86.7531 632.404 84.7051C632.729 84.8391 633.035 84.973 633.341 85.1645C636.921 87.2125 638.127 91.7488 636.079 95.309Z" fill="#FDD267"/>
<path d="M706.784 136.117C704.736 139.677 700.18 140.883 696.62 138.835C695.127 137.973 694.036 136.653 693.443 135.179C696.812 136.538 700.774 135.255 702.65 132.001C703.836 129.953 703.932 127.561 703.109 125.513C703.434 125.647 703.741 125.8 704.047 125.972C707.626 128.02 708.832 132.576 706.784 136.117Z" fill="#FDD267"/>
<path d="M633.361 138.854C629.8 140.902 625.264 139.677 623.216 136.117C623.044 135.81 622.891 135.504 622.757 135.179C624.805 136.002 627.178 135.906 629.245 134.719C632.499 132.844 633.782 128.881 632.423 125.513C633.916 126.106 635.217 127.178 636.078 128.69C638.127 132.25 636.921 136.787 633.361 138.854Z" fill="#50D27E"/>
<path d="M704.066 98.027C700.506 100.094 695.969 98.8691 693.902 95.309C693.73 95.0027 693.577 94.6965 693.443 94.3711C695.491 95.1941 697.884 95.0984 699.932 93.9117C703.166 92.0359 704.468 88.0738 703.109 84.7051C704.602 85.2984 705.903 86.3895 706.765 87.8824C708.832 91.4234 707.626 95.9789 704.066 98.027Z" fill="#50D27E"/>
<path d="M704.449 125.322C701.444 123.599 697.826 123.963 695.242 126.03L687.662 121.647C688.926 118.68 689.634 115.426 689.634 112C689.634 108.574 688.926 105.301 687.662 102.334L695.261 97.9508C697.826 99.9988 701.463 100.382 704.468 98.659C708.392 96.4004 709.712 91.4047 707.454 87.4809C705.195 83.5762 700.2 82.2363 696.276 84.4949C693.29 86.2176 691.778 89.5289 692.275 92.8211L684.677 97.2043C680.753 91.9789 674.781 88.3805 667.986 87.5574V78.791C671.029 77.6043 673.192 74.6375 673.192 71.173C673.173 66.675 669.498 63 665 63C660.502 63 656.827 66.675 656.827 71.173C656.827 74.6375 658.99 77.5852 662.033 78.791V87.5574C655.219 88.3805 649.266 91.9789 645.323 97.2043L637.725 92.8211C638.222 89.5863 636.729 86.2367 633.743 84.5141C629.82 82.2555 624.843 83.5953 622.565 87.5C620.307 91.4047 621.646 96.4195 625.551 98.6781C628.556 100.42 632.193 100.018 634.758 97.9699L642.337 102.353C641.074 105.32 640.366 108.574 640.366 112C640.366 115.426 641.074 118.68 642.337 121.647L634.758 126.03C632.212 123.982 628.556 123.599 625.57 125.322C621.666 127.58 620.326 132.595 622.584 136.5C624.824 140.386 629.839 141.745 633.762 139.486C636.748 137.763 638.241 134.414 637.744 131.179L645.343 126.796C649.266 132.021 655.238 135.62 662.033 136.443V145.228C658.99 146.415 656.827 149.382 656.827 152.846C656.827 157.363 660.502 161.019 665 161.019C669.498 161.019 673.173 157.344 673.173 152.846C673.173 149.382 671.01 146.434 667.967 145.228V136.462C674.781 135.639 680.734 132.04 684.677 126.815L692.275 131.198C691.778 134.433 693.271 137.782 696.257 139.505C700.161 141.764 705.157 140.424 707.435 136.519C709.693 132.595 708.354 127.58 704.449 125.322ZM697.003 85.7965C700.219 83.9398 704.315 85.0691 706.133 88.2465C707.99 91.443 706.88 95.5391 703.683 97.3766C700.487 99.2141 696.391 98.1422 694.553 94.9266C692.716 91.7301 693.787 87.6531 697.003 85.7965ZM692.639 94.3141C692.811 94.7734 693.003 95.2328 693.271 95.673C693.52 96.1133 693.807 96.5152 694.132 96.898L687.012 100.994C686.571 100.095 686.074 99.2523 685.519 98.4293L692.639 94.3141ZM658.301 71.173C658.301 67.4789 661.306 64.4738 665 64.4738C668.694 64.4738 671.699 67.4789 671.699 71.173C671.699 74.8672 668.694 77.8723 665 77.8723C661.306 77.8723 658.301 74.8672 658.301 71.173ZM665 79.3652C665.517 79.3652 665.995 79.3078 666.493 79.2312V87.4426C665.995 87.4234 665.498 87.4043 665 87.4043C664.502 87.4043 664.005 87.4234 663.507 87.4426V79.2121C663.986 79.3078 664.483 79.3652 665 79.3652ZM626.298 97.3766C623.101 95.5199 621.991 91.443 623.848 88.2465C625.685 85.05 629.781 83.9398 632.978 85.7965C636.174 87.634 637.265 91.7492 635.428 94.9266C633.59 98.1422 629.494 99.2332 626.298 97.3766ZM635.868 96.898C636.193 96.5152 636.48 96.1133 636.729 95.673C636.978 95.2328 637.189 94.7734 637.342 94.3141L644.462 98.4102C643.926 99.2332 643.429 100.095 642.969 100.975L635.868 96.898ZM632.997 138.204C629.781 140.06 625.704 138.95 623.867 135.754C622.029 132.557 623.12 128.461 626.317 126.623C629.513 124.786 633.609 125.858 635.447 129.073C637.284 132.251 636.193 136.366 632.997 138.204ZM637.342 129.686C637.17 129.227 636.978 128.767 636.729 128.327C636.48 127.887 636.174 127.485 635.868 127.121L642.969 123.006C643.409 123.905 643.907 124.748 644.462 125.571L637.342 129.686ZM671.68 152.827C671.68 156.521 668.675 159.526 664.981 159.526C661.287 159.526 658.282 156.521 658.282 152.827C658.282 149.133 661.287 146.128 664.981 146.128C668.675 146.128 671.68 149.133 671.68 152.827ZM665 144.635C664.483 144.635 663.986 144.692 663.507 144.769V136.557C664.005 136.596 664.502 136.596 665 136.596C665.498 136.596 665.995 136.577 666.493 136.557V144.769C665.995 144.692 665.498 144.635 665 144.635ZM679.317 130.145C677.575 131.523 675.623 132.672 673.518 133.514V123.293C673.518 122.872 673.192 122.546 672.771 122.546C672.369 122.546 672.025 122.872 672.025 123.293V134.05C669.804 134.758 667.431 135.141 664.981 135.141C662.531 135.141 660.157 134.758 657.956 134.05V123.293C657.956 122.872 657.631 122.546 657.21 122.546C656.808 122.546 656.463 122.872 656.463 123.293V133.514C654.358 132.672 652.405 131.543 650.664 130.164V123.657C650.664 118.757 654.645 114.756 659.545 114.756H660.942C662.167 115.79 663.756 116.421 665.498 116.421C667.239 116.421 668.828 115.79 670.053 114.756H670.436C675.336 114.756 679.336 118.757 679.336 123.657V130.145H679.317ZM671.068 103.502V109.359C671.068 112.421 668.56 114.929 665.498 114.929C662.435 114.929 659.928 112.421 659.928 109.359V103.502H671.068ZM659.928 102.009V98.7164C659.928 97.4914 660.923 96.4961 662.148 96.4961H674.877L671.393 102.009H659.928ZM680.81 128.863V123.637C680.81 118.221 676.637 113.761 671.355 113.302C672.12 112.172 672.561 110.813 672.561 109.359V102.966L676.867 96.1324C677.02 95.9027 677.02 95.6156 676.886 95.3859C676.752 95.1562 676.504 95.0031 676.236 95.0031H662.148C660.1 95.0031 658.435 96.6684 658.435 98.7164V109.359C658.435 110.794 658.875 112.134 659.621 113.263H659.564C653.841 113.263 649.209 117.934 649.209 123.657V128.882C644.711 124.652 641.878 118.661 641.878 112.019C641.878 99.2523 652.252 88.8781 665.019 88.8781C677.786 88.8781 688.141 99.2332 688.141 112C688.141 118.661 685.308 124.652 680.81 128.863ZM685.538 125.571C686.074 124.748 686.571 123.886 687.031 123.006L694.151 127.102C693.826 127.485 693.539 127.887 693.29 128.308C693.041 128.748 692.83 129.207 692.677 129.667L685.538 125.571ZM706.152 135.754C704.296 138.95 700.219 140.06 697.022 138.204C693.826 136.347 692.716 132.27 694.572 129.073C696.429 125.877 700.506 124.767 703.702 126.623C706.899 128.461 707.99 132.557 706.152 135.754Z" fill="#333333"/>
</g>
<g clip-path="url(#clip1_317_876)">
<path d="M176.021 91.2193V112.063H163.407C162.508 112.063 161.761 111.336 161.761 110.417V92.8463C161.761 91.9467 162.489 91.2002 163.407 91.2002H176.021V91.2193Z" fill="#FC8A8A"/>
<path d="M176.021 108.388V112.044H163.407C162.508 112.044 161.761 111.316 161.761 110.398V106.723C161.761 107.641 162.489 108.369 163.407 108.369H176.021V108.388Z" fill="#F96364"/>
<path d="M176.021 91.2188V94.8746H163.407C162.508 94.8746 161.761 95.602 161.761 96.5207V92.8648C161.761 91.9461 162.489 91.2188 163.407 91.2188H176.021Z" fill="#FCB0B0"/>
<path d="M156.766 95.1611V108.1C156.766 109 157.493 109.746 158.412 109.746H161.78V93.5342H158.412C157.493 93.5342 156.766 94.2615 156.766 95.1611Z" fill="#D3D9D9"/>
<path d="M161.78 93.5342V96.3287H158.412C157.512 96.3287 156.766 97.0561 156.766 97.9748V95.1803C156.766 94.2807 157.493 93.5342 158.412 93.5342H161.78Z" fill="#E8EAEA"/>
<path d="M161.78 106.952V109.746H158.412C157.512 109.746 156.766 109.019 156.766 108.1V105.306C156.766 106.205 157.493 106.952 158.412 106.952H161.78Z" fill="#A8B2B4"/>
<path d="M211.967 74.3174L176.021 91.2186V112.063L211.967 128.964V74.3174Z" fill="#FEDD8E"/>
<path d="M219.145 73.8768V129.385C219.145 130.246 218.437 130.973 217.556 130.973H213.556C212.695 130.973 211.967 130.265 211.967 129.385V73.8768C211.967 73.0154 212.675 72.2881 213.556 72.2881H217.556C218.418 72.2881 219.145 73.0154 219.145 73.8768Z" fill="#FC8A8A"/>
<path d="M219.145 73.8768V78.2217C219.145 77.3604 218.437 76.633 217.556 76.633H213.556C212.695 76.633 211.967 77.3412 211.967 78.2217V73.8768C211.967 73.0154 212.675 72.2881 213.556 72.2881H217.556C218.418 72.2881 219.145 73.0154 219.145 73.8768Z" fill="#FCB0B0"/>
<path d="M219.145 125.04V129.385C219.145 130.246 218.437 130.974 217.556 130.974H213.556C212.695 130.974 211.967 130.265 211.967 129.385V125.04C211.967 125.901 212.675 126.629 213.556 126.629H217.556C218.418 126.629 219.145 125.921 219.145 125.04Z" fill="#F96364"/>
<path d="M211.967 123.337L176.021 106.685V112.063L211.967 128.964V123.337Z" fill="#FDD367"/>
<path d="M211.967 74.3174L176.021 91.2186V96.5971L211.967 79.9447V74.3174Z" fill="#FEE9B4"/>
<path d="M174.356 120.618C174.356 122.762 172.729 122.762 172.729 124.887C172.729 127.03 174.356 127.03 174.356 129.155C174.356 131.299 172.729 131.299 172.729 133.423C172.729 135.567 174.356 135.567 174.356 137.692H165.302C164.269 137.692 163.427 136.869 163.427 135.835V112.062H174.356C174.356 114.206 172.729 114.206 172.729 116.331C172.729 118.475 174.356 118.475 174.356 120.618Z" fill="#D3D9D9"/>
<path d="M172.729 116.33C172.729 116.369 172.729 116.426 172.729 116.464H163.427V112.043H174.375C174.375 114.206 172.729 114.206 172.729 116.33Z" fill="#E8EAEA"/>
<path d="M174.375 137.711H165.302C164.288 137.711 163.427 136.888 163.427 135.854V131.433C163.427 132.466 164.269 133.289 165.302 133.289H172.729C172.729 133.328 172.729 133.385 172.729 133.423C172.729 135.567 174.375 135.567 174.375 137.711Z" fill="#A8B2B4"/>
<path d="M217.556 71.5225H213.556C212.273 71.5225 211.24 72.5561 211.221 73.8193L175.868 90.4525H163.427C162.125 90.4525 161.072 91.4861 161.034 92.7686H158.412C157.091 92.7686 156 93.8404 156 95.1803V108.119C156 109.44 157.072 110.531 158.412 110.531H161.015C161.053 111.565 161.742 112.407 162.661 112.713V135.873C162.661 137.328 163.848 138.515 165.302 138.515H174.375C174.796 138.515 175.141 138.17 175.141 137.749C175.141 136.428 174.605 135.72 174.164 135.146C173.284 133.997 173.246 133.002 174.164 131.815C175.447 130.15 175.543 128.408 174.164 126.609C173.265 125.422 173.265 124.427 174.164 123.26C175.485 121.499 175.485 119.814 174.164 118.053C173.303 116.924 173.246 115.929 174.164 114.723C174.509 114.283 174.911 113.728 175.064 112.885H175.849L211.202 129.519C211.24 130.782 212.273 131.815 213.537 131.815H217.537C218.839 131.815 219.891 130.763 219.891 129.461V73.9533C219.911 72.5752 218.858 71.5225 217.556 71.5225ZM161.015 108.981H158.412C157.933 108.981 157.531 108.598 157.531 108.1V95.1611C157.531 94.6826 157.914 94.2807 158.412 94.2807H161.015V108.981ZM172.939 122.283C171.619 124.006 171.638 125.805 172.939 127.49C173.858 128.696 173.82 129.691 172.939 130.839C171.638 132.524 171.619 134.285 172.939 136.046C173.169 136.352 173.361 136.601 173.475 136.945H165.302C164.69 136.945 164.192 136.447 164.192 135.835V112.828H173.475C173.361 113.172 173.169 113.44 172.939 113.747C171.6 115.469 171.638 117.269 172.939 118.953C173.839 120.082 173.858 121.097 172.939 122.283ZM175.255 111.297H163.407C162.929 111.297 162.527 110.914 162.527 110.416V92.8451C162.527 92.3666 162.91 91.9646 163.407 91.9646H175.255V111.297ZM211.202 127.758L176.787 111.565V91.6967L211.202 75.5229V127.758ZM218.379 129.385C218.379 129.825 217.996 130.208 217.556 130.208H213.556C213.116 130.208 212.733 129.825 212.733 129.385V73.8768C212.733 73.4365 213.116 73.0537 213.556 73.0537H217.556C217.996 73.0537 218.379 73.4365 218.379 73.8768V129.385Z" fill="#333333"/>
<path d="M253.234 69.7621C253.234 76.9207 247.416 82.7395 240.238 82.7395C237.864 82.7395 235.644 82.1078 233.73 80.9977L225.748 84.2324L228.983 76.2508C227.873 74.3367 227.241 72.1164 227.241 69.7621C227.241 62.5844 233.06 56.7656 240.238 56.7656C247.416 56.7656 253.234 62.5844 253.234 69.7621Z" fill="#7AD1F9"/>
<path d="M236.525 75.1223C237.434 75.1223 238.171 74.3853 238.171 73.4762C238.171 72.5671 237.434 71.8301 236.525 71.8301C235.615 71.8301 234.878 72.5671 234.878 73.4762C234.878 74.3853 235.615 75.1223 236.525 75.1223Z" fill="#D3F0FD"/>
<path d="M245.119 67.1986C244.468 67.8494 243.434 67.8494 242.784 67.1986C242.152 66.5479 242.152 65.5143 242.784 64.8826C243.434 64.2318 244.468 64.2318 245.119 64.8826C245.75 65.5143 245.75 66.5479 245.119 67.1986Z" fill="#D3F0FD"/>
<path d="M240.238 71.4094C241.147 71.4094 241.884 70.6724 241.884 69.7633C241.884 68.8542 241.147 68.1172 240.238 68.1172C239.329 68.1172 238.592 68.8542 238.592 69.7633C238.592 70.6724 239.329 71.4094 240.238 71.4094Z" fill="#D3F0FD"/>
<path d="M253.234 69.7627C253.234 76.9213 247.416 82.74 240.238 82.74C237.864 82.74 235.644 82.1084 233.73 80.9982L225.748 84.233L227.337 80.3092L233.271 77.8975C235.185 79.0076 237.405 79.6393 239.779 79.6393C246.956 79.6393 252.775 73.8205 252.775 66.6619C252.775 66.5471 252.775 66.4322 252.775 66.3174C253.062 67.4084 253.234 68.5568 253.234 69.7627Z" fill="#4CC3F7"/>
<path d="M253.234 69.4362C251.722 63.9237 246.688 59.885 240.697 59.885C233.52 59.885 227.701 65.7038 227.701 72.8815C227.701 72.9963 227.701 73.092 227.701 73.1877C227.395 72.0967 227.241 70.9483 227.241 69.7807C227.241 62.603 233.06 56.7842 240.238 56.7842C247.301 56.7651 253.062 62.4116 253.234 69.4362Z" fill="#A6E1FB"/>
<path d="M249.425 114.187C244.353 119.26 236.142 119.26 231.05 114.187C229.366 112.503 228.256 110.474 227.682 108.35L221.346 105L227.701 101.65C228.275 99.5065 229.385 97.4968 231.07 95.8315C236.142 90.7593 244.372 90.7593 249.445 95.8315C254.498 100.885 254.498 109.115 249.425 114.187Z" fill="#7BDE9E"/>
<path d="M249.425 114.187C244.353 119.26 236.142 119.26 231.05 114.187C229.366 112.503 228.256 110.474 227.682 108.35L221.346 105L227.701 101.65C228.275 99.5065 229.385 97.4968 231.07 95.8315C236.142 90.7593 244.372 90.7593 249.445 95.8315C254.498 100.885 254.498 109.115 249.425 114.187Z" fill="#7BDE9E"/>
<path d="M236.371 105C236.371 105.957 235.568 106.761 234.611 106.761C233.634 106.761 232.85 105.957 232.85 105C232.85 104.024 233.634 103.239 234.611 103.239C235.587 103.239 236.371 104.024 236.371 105Z" fill="#D3F3DE"/>
<path d="M247.645 105C247.645 105.976 246.861 106.761 245.884 106.761C244.927 106.761 244.123 105.976 244.123 105C244.123 104.024 244.908 103.239 245.884 103.239C246.861 103.239 247.645 104.024 247.645 105Z" fill="#D3F3DE"/>
<path d="M242.018 105C242.018 105.976 241.214 106.761 240.257 106.761C239.281 106.761 238.496 105.976 238.496 105C238.496 104.043 239.281 103.239 240.257 103.239C241.214 103.239 241.999 104.024 242.018 105Z" fill="#D3F3DE"/>
<path d="M250.593 112.847C250.248 113.306 249.847 113.766 249.425 114.187C244.353 119.259 236.142 119.259 231.05 114.187C229.366 112.503 228.256 110.474 227.682 108.349L221.346 104.999L224.007 103.583L229.443 106.454C229.998 108.598 231.127 110.627 232.811 112.292C237.692 117.173 245.502 117.364 250.593 112.847Z" fill="#50D27E"/>
<path d="M249.425 114.189C249.234 114.38 249.043 114.571 248.851 114.725C252.718 109.633 252.335 102.341 247.684 97.6894C242.803 92.8085 234.974 92.6362 229.883 97.1534C230.246 96.6749 230.629 96.2347 231.07 95.7944C236.142 90.7222 244.372 90.7222 249.445 95.7944C254.498 100.886 254.498 109.116 249.425 114.189Z" fill="#A7E9BF"/>
<path d="M253.234 140.238C253.234 147.416 247.416 153.235 240.238 153.235C233.079 153.235 227.261 147.416 227.261 140.238C227.261 137.865 227.892 135.645 229.002 133.731L225.768 125.749L233.749 128.984C235.663 127.874 237.884 127.242 240.238 127.242C247.416 127.242 253.234 133.061 253.234 140.238Z" fill="#BD90BE"/>
<path d="M241.482 138.994C242.171 139.683 242.171 140.793 241.482 141.482C240.793 142.171 239.683 142.171 238.994 141.482C238.305 140.793 238.305 139.683 238.994 138.994C239.683 138.324 240.793 138.324 241.482 138.994Z" fill="#E9DAE9"/>
<path d="M236.257 138.017C237.229 138.017 238.018 137.229 238.018 136.256C238.018 135.284 237.229 134.495 236.257 134.495C235.284 134.495 234.496 135.284 234.496 136.256C234.496 137.229 235.284 138.017 236.257 138.017Z" fill="#E9DAE9"/>
<path d="M245.463 145.463C244.774 146.152 243.664 146.152 242.975 145.463C242.286 144.774 242.286 143.664 242.975 142.975C243.664 142.286 244.774 142.286 245.463 142.975C246.152 143.664 246.152 144.793 245.463 145.463Z" fill="#E9DAE9"/>
<path d="M253.234 140.237C253.234 147.415 247.416 153.234 240.238 153.234C233.175 153.234 227.433 147.587 227.26 140.563C228.773 146.075 233.807 150.114 239.778 150.114C246.956 150.114 252.775 144.295 252.775 137.117C252.775 137.003 252.775 136.888 252.775 136.792C253.062 137.902 253.234 139.051 253.234 140.237Z" fill="#A76BA8"/>
<path d="M252.775 139.912C251.263 134.399 246.229 130.361 240.238 130.361C237.865 130.361 235.644 130.992 233.749 132.103L226.744 129.27L225.327 125.786L233.309 129.021C235.223 127.911 237.443 127.279 239.798 127.279C246.861 127.241 252.603 132.887 252.775 139.912Z" fill="#D3B5D3"/>
<path d="M225.768 84.998C225.576 84.998 225.366 84.9215 225.232 84.7684C225.021 84.5578 224.945 84.2324 225.059 83.9453L228.16 76.3082C227.069 74.3176 226.495 72.059 226.495 69.7621C226.495 62.1824 232.658 56 240.257 56C247.856 56 254 62.1633 254 69.7621C254 77.3418 247.837 83.5051 240.238 83.5051C237.941 83.5051 235.682 82.9309 233.692 81.8398L226.055 84.9406C225.959 84.9789 225.863 84.998 225.768 84.998ZM240.238 57.5312C233.5 57.5312 228.007 63.0246 228.007 69.7621C228.007 71.9059 228.581 74.0305 229.653 75.868C229.768 76.0785 229.787 76.3273 229.711 76.5379L227.165 82.8352L233.462 80.2895C233.673 80.1938 233.922 80.2129 234.132 80.3277C235.989 81.3996 238.094 81.9738 240.257 81.9738C246.995 81.9738 252.488 76.4996 252.488 69.7621C252.469 63.0246 246.975 57.5312 240.238 57.5312Z" fill="#333333"/>
<path d="M230.514 114.724C228.868 113.078 227.682 111.068 227.05 108.867L221.002 105.67C220.753 105.536 220.6 105.268 220.6 105C220.6 104.713 220.753 104.464 221.002 104.33L227.05 101.134C227.701 98.9326 228.887 96.9229 230.514 95.2959C235.874 89.9365 244.602 89.9365 249.961 95.2959C252.564 97.899 254 101.344 254 105.019C254 108.694 252.564 112.14 249.961 114.743C244.621 120.064 235.912 120.102 230.514 114.724ZM222.992 105L228.064 107.661C228.256 107.756 228.39 107.929 228.447 108.139C228.983 110.206 230.074 112.101 231.605 113.633C236.371 118.399 244.123 118.399 248.889 113.633C253.655 108.867 253.655 101.115 248.889 96.3486C244.123 91.5826 236.371 91.5826 231.605 96.3486C230.093 97.8607 228.983 99.7557 228.447 101.823C228.39 102.033 228.256 102.206 228.064 102.301L222.992 105Z" fill="#333333"/>
<path d="M240.238 154C232.658 154 226.495 147.837 226.495 140.238C226.495 137.941 227.069 135.682 228.16 133.692L225.059 126.055C224.945 125.767 225.002 125.442 225.232 125.231C225.442 125.021 225.787 124.944 226.055 125.059L233.692 128.16C235.682 127.069 237.941 126.495 240.238 126.495C247.818 126.495 254 132.658 254 140.257C254 147.837 247.818 154 240.238 154ZM227.165 127.146L229.711 133.443C229.806 133.653 229.787 133.902 229.653 134.113C228.581 135.95 228.007 138.075 228.007 140.219C228.007 146.956 233.481 152.449 240.219 152.449C246.956 152.449 252.45 146.956 252.45 140.219C252.45 133.481 246.956 127.988 240.219 127.988C238.075 127.988 235.95 128.562 234.113 129.634C233.902 129.749 233.654 129.768 233.443 129.691L227.165 127.146Z" fill="#333333"/>
</g>
<g clip-path="url(#clip2_317_876)">
<path d="M464.175 147.952C464.175 150.881 461.802 153.235 458.892 153.235H413.108C410.179 153.235 407.825 150.881 407.825 147.952C407.825 145.024 410.179 142.669 413.108 142.669C414.161 142.669 415.137 142.976 415.96 143.512C416.285 140.908 418.505 138.899 421.204 138.899C422.257 138.899 423.252 139.205 424.075 139.741C424.401 137.138 426.621 135.109 429.32 135.109V128.333H442.661V135.109C445.36 135.109 447.58 137.138 447.905 139.741C448.729 139.205 449.724 138.899 450.777 138.899C453.475 138.899 455.696 140.908 456.021 143.512C456.844 142.976 457.82 142.669 458.873 142.669C461.802 142.669 464.175 145.024 464.175 147.952Z" fill="#D3D8D9"/>
<path d="M432.363 128.312V138.113C429.665 138.113 427.444 140.141 427.119 142.745C426.296 142.209 425.32 141.902 424.248 141.902C421.549 141.902 419.309 143.912 419.003 146.515C418.18 145.979 417.204 145.673 416.151 145.673C413.223 145.673 410.868 148.046 410.868 150.956C410.868 151.626 410.983 152.257 411.232 152.851C409.242 152.104 407.844 150.171 407.844 147.932C407.844 145.022 410.218 142.649 413.127 142.649C414.18 142.649 415.156 142.955 415.998 143.491C416.324 140.888 418.544 138.878 421.243 138.878C422.295 138.878 423.291 139.184 424.114 139.72C424.439 137.117 426.659 135.088 429.358 135.088V128.312H432.363Z" fill="#EDEDED"/>
<path d="M439.637 128.312V138.113C442.336 138.113 444.556 140.141 444.881 142.745C445.704 142.209 446.681 141.902 447.752 141.902C450.451 141.902 452.691 143.912 452.997 146.515C453.82 145.979 454.796 145.673 455.849 145.673C458.777 145.673 461.132 148.046 461.132 150.956C461.132 151.626 461.017 152.257 460.768 152.851C462.759 152.104 464.156 150.171 464.156 147.932C464.156 145.022 461.782 142.649 458.873 142.649C457.82 142.649 456.844 142.955 456.002 143.491C455.677 140.888 453.456 138.878 450.757 138.878C449.705 138.878 448.709 139.184 447.886 139.72C447.561 137.117 445.341 135.088 442.642 135.088V128.312H439.637Z" fill="#A8B1B3"/>
<path d="M464.29 123.758C464.29 125.634 463.964 127.452 463.39 129.156C463.18 129.768 462.376 129.921 461.974 129.404C458.796 125.155 453.762 122.38 448.078 122.284C449.341 117.92 450.432 112.886 451.064 107.45C458.624 109.039 464.29 115.738 464.29 123.758Z" fill="#FB8A8A"/>
<path d="M423.903 122.284C418.238 122.399 413.184 125.155 410.007 129.404C409.624 129.921 408.801 129.768 408.591 129.155C408.017 127.452 407.71 125.633 407.71 123.758C407.71 115.738 413.376 109.038 420.917 107.431C421.53 112.886 422.64 117.901 423.903 122.284Z" fill="#FB8A8A"/>
<path d="M464.29 123.758C464.29 124.428 464.252 125.078 464.175 125.729C463.333 118.59 457.993 112.828 451.083 111.374C450.643 115.259 449.954 118.953 449.131 122.322C448.786 122.284 448.442 122.284 448.097 122.265C449.36 117.901 450.451 112.867 451.083 107.431C458.624 109.038 464.29 115.738 464.29 123.758Z" fill="#FCB1B1"/>
<path d="M423.903 122.284C423.559 122.284 423.214 122.303 422.87 122.342C422.047 118.973 421.358 115.279 420.917 111.393C413.988 112.848 408.648 118.609 407.825 125.749C407.749 125.098 407.71 124.447 407.71 123.777C407.71 115.757 413.376 109.058 420.917 107.45C421.53 112.886 422.64 117.901 423.903 122.284Z" fill="#FCB1B1"/>
<path d="M464.29 123.758C464.29 125.634 463.965 127.453 463.39 129.156C463.18 129.769 462.376 129.922 461.974 129.405C458.797 125.156 453.763 122.38 448.078 122.285C448.461 120.945 448.843 119.547 449.169 118.093C454.394 118.514 458.988 121.194 461.955 125.175C462.338 125.692 463.161 125.538 463.371 124.926C463.716 123.873 463.984 122.782 464.137 121.653C464.252 122.342 464.29 123.05 464.29 123.758Z" fill="#F96363"/>
<path d="M423.903 122.284C418.238 122.399 413.184 125.155 410.007 129.404C409.624 129.921 408.801 129.768 408.591 129.156C408.017 127.452 407.71 125.634 407.71 123.758C407.71 123.031 407.749 122.342 407.844 121.633C407.978 122.763 408.246 123.854 408.591 124.906C408.801 125.519 409.624 125.672 410.007 125.155C412.974 121.174 417.587 118.494 422.793 118.073C423.138 119.547 423.52 120.944 423.903 122.284Z" fill="#F96363"/>
<path d="M445.379 126.725L443.771 131.357H428.229L426.621 126.725H445.379Z" fill="#FB8A8A"/>
<path d="M430.947 131.357H428.229L426.621 126.725H429.339L430.947 131.357Z" fill="#FCB1B1"/>
<path d="M445.379 126.725L443.771 131.357H441.053L442.661 126.725H445.379Z" fill="#F96363"/>
<path d="M446.681 126.725C449.264 119.299 451.619 109.192 451.619 98.0525C451.619 75.2561 436 56.7471 436 56.7471C436 56.7471 420.381 75.2369 420.381 98.0525C420.381 109.192 422.736 119.299 425.32 126.725H446.681Z" fill="white"/>
<path d="M424.382 98.0525C424.382 109.192 426.736 119.299 429.32 126.725H425.32C422.736 119.299 420.381 109.192 420.381 98.0525C420.381 75.2369 436 56.7471 436 56.7471C436 56.7471 436.785 57.6658 438.01 59.3693C433.78 65.2646 424.382 80.3666 424.382 98.0525Z" fill="#EDEDED"/>
<path d="M451.619 98.0525C451.619 109.192 449.264 119.299 446.68 126.725H442.68C445.264 119.299 447.618 109.192 447.618 98.0525C447.618 80.3475 438.201 65.2646 433.99 59.3693C435.215 57.685 436 56.7471 436 56.7471C436 56.7471 451.619 75.2369 451.619 98.0525Z" fill="#EDEDED"/>
<path d="M443.867 68.9396C439.943 61.4174 436 56.7471 436 56.7471C436 56.7471 432.057 61.4174 428.133 68.9396H443.867Z" fill="#FB8A8A"/>
<path d="M436.383 57.2441C435.656 58.6223 433.531 62.8332 431.847 68.9582H428.133C432.057 61.4359 435.981 56.7656 435.981 56.7656C435.981 56.7656 436.134 56.9187 436.383 57.2441Z" fill="#FCB1B1"/>
<path d="M435.617 57.2441C436.345 58.6223 438.469 62.8332 440.154 68.9582H443.867C439.943 61.4359 436.019 56.7656 436.019 56.7656C436.019 56.7656 435.866 56.9187 435.617 57.2441Z" fill="#F96363"/>
<path d="M458.892 141.903C458.088 141.903 457.304 142.056 456.557 142.363C455.504 138.994 451.753 137.214 448.441 138.592C447.752 136.353 445.781 134.687 443.427 134.381V132.103H443.771C444.096 132.103 444.384 131.893 444.498 131.587L445.915 127.49H446.68C447.006 127.49 447.293 127.28 447.408 126.974C447.81 125.787 448.25 124.485 448.671 123.069C453.724 123.337 458.337 125.787 461.38 129.864C461.687 130.266 462.146 130.496 462.625 130.496C462.701 130.496 462.797 130.496 462.873 130.476C463.467 130.381 463.945 129.979 464.137 129.424C464.749 127.586 465.075 125.691 465.075 123.777C465.075 115.815 459.581 108.828 451.925 106.876C452.231 104.081 452.404 101.134 452.404 98.0713C452.404 75.2365 436.766 56.4596 436.593 56.2682C436.306 55.9236 435.713 55.9236 435.426 56.2682C435.273 56.4596 419.616 75.2365 419.616 98.0713C419.616 101.134 419.788 104.081 420.094 106.876C412.438 108.828 406.945 115.815 406.945 123.777C406.945 125.691 407.251 127.605 407.863 129.424C408.055 129.979 408.533 130.4 409.127 130.476C409.203 130.496 409.299 130.496 409.375 130.496C409.854 130.496 410.332 130.266 410.62 129.864C413.663 125.787 418.276 123.337 423.329 123.069C423.75 124.485 424.171 125.806 424.592 126.974C424.707 127.28 424.994 127.49 425.32 127.49H426.085L427.521 131.587C427.636 131.893 427.923 132.103 428.248 132.103H428.573V134.381C426.219 134.687 424.267 136.333 423.559 138.592C420.266 137.214 416.496 138.975 415.443 142.363C414.716 142.056 413.912 141.903 413.108 141.903C409.758 141.903 407.059 144.621 407.059 147.952C407.059 151.282 409.777 154 413.108 154H458.892C462.242 154 464.941 151.282 464.941 147.952C464.941 144.621 462.223 141.903 458.892 141.903ZM463.524 123.758C463.524 125.5 463.237 127.222 462.663 128.907L462.586 128.945C459.332 124.6 454.452 121.94 449.073 121.557C450.126 117.786 451.102 113.346 451.714 108.407C458.624 110.245 463.524 116.561 463.524 123.758ZM436 57.9717C437.148 59.4455 439.809 63.0631 442.565 68.1736H429.435C432.191 63.0822 434.852 59.4646 436 57.9717ZM409.395 128.945L409.318 128.907C408.763 127.242 408.476 125.5 408.476 123.758C408.476 116.561 413.395 110.245 420.266 108.407C420.879 113.346 421.855 117.786 422.908 121.557C417.529 121.94 412.648 124.6 409.395 128.945ZM425.855 125.959C423.654 119.509 421.147 109.575 421.147 98.0521C421.147 87.0846 424.86 77.074 428.631 69.7049H443.369C447.159 77.074 450.853 87.0846 450.853 98.0521C450.853 109.575 448.327 119.509 446.145 125.959C442.068 125.959 429.952 125.959 425.855 125.959ZM427.693 127.49H444.307L443.235 130.572H428.765L427.693 127.49ZM458.892 152.469H413.108C410.62 152.469 408.591 150.44 408.591 147.952C408.591 145.463 410.62 143.435 413.108 143.435C413.969 143.435 414.811 143.683 415.558 144.162C415.787 144.296 416.055 144.315 416.304 144.219C416.534 144.104 416.706 143.875 416.745 143.626C417.146 140.353 420.879 138.592 423.693 140.41C423.922 140.544 424.19 140.563 424.439 140.468C424.669 140.353 424.841 140.123 424.879 139.874C425.166 137.616 427.08 135.912 429.358 135.912C429.779 135.912 430.124 135.568 430.124 135.147V132.161H441.934V135.147C441.934 135.568 442.278 135.912 442.699 135.912C444.977 135.912 446.91 137.616 447.178 139.874C447.216 140.142 447.37 140.372 447.618 140.468C447.848 140.583 448.135 140.563 448.365 140.41C451.179 138.592 454.892 140.372 455.313 143.645C455.351 143.913 455.504 144.124 455.753 144.238C455.983 144.353 456.27 144.334 456.5 144.181C457.227 143.703 458.069 143.454 458.95 143.454C461.438 143.454 463.467 145.483 463.467 147.971C463.409 150.44 461.38 152.469 458.892 152.469Z" fill="#333333"/>
<path d="M436 92.2135C439.89 92.2135 443.044 89.0599 443.044 85.1697C443.044 81.2796 439.89 78.126 436 78.126C432.11 78.126 428.956 81.2796 428.956 85.1697C428.956 89.0599 432.11 92.2135 436 92.2135Z" fill="#7AD1F9"/>
<path d="M437.072 79.7912C437.072 83.3514 434.182 86.2607 430.602 86.2607C430.047 86.2607 429.511 86.1842 428.995 86.0502C428.956 85.7631 428.937 85.476 428.937 85.1697C428.937 81.2842 432.095 78.126 435.981 78.126C436.268 78.126 436.574 78.1451 436.861 78.1834C437.014 78.7002 437.072 79.2361 437.072 79.7912Z" fill="#A6E1FB"/>
<path d="M443.044 85.1701C443.044 89.0557 439.886 92.2139 436 92.2139C433.282 92.2139 430.909 90.6635 429.741 88.3857C430.698 88.8834 431.808 89.1705 432.957 89.1705C436.861 89.1705 440 86.0123 440 82.1268C440 80.9592 439.713 79.8682 439.216 78.9111C441.493 80.0787 443.044 82.4521 443.044 85.1701Z" fill="#4CC3F7"/>
<path d="M436 92.9791C431.693 92.9791 428.191 89.4764 428.191 85.1697C428.191 80.8631 431.693 77.3604 436 77.3604C440.307 77.3604 443.809 80.8631 443.809 85.1697C443.809 89.4764 440.307 92.9791 436 92.9791ZM436 78.8916C432.536 78.8916 429.722 81.7053 429.722 85.1697C429.722 88.6342 432.536 91.4479 436 91.4479C439.465 91.4479 442.278 88.6342 442.278 85.1697C442.278 81.7053 439.465 78.8916 436 78.8916Z" fill="#333333"/>
</g>
<path d="M159.78 194.16H164.48V196H157.5V182.1H159.78V194.16ZM171.167 196.18C170.127 196.18 169.187 195.947 168.347 195.48C167.507 195 166.847 194.333 166.367 193.48C165.887 192.613 165.647 191.613 165.647 190.48C165.647 189.36 165.893 188.367 166.387 187.5C166.88 186.633 167.553 185.967 168.407 185.5C169.26 185.033 170.213 184.8 171.267 184.8C172.32 184.8 173.273 185.033 174.127 185.5C174.98 185.967 175.653 186.633 176.147 187.5C176.64 188.367 176.887 189.36 176.887 190.48C176.887 191.6 176.633 192.593 176.127 193.46C175.62 194.327 174.927 195 174.047 195.48C173.18 195.947 172.22 196.18 171.167 196.18ZM171.167 194.2C171.753 194.2 172.3 194.06 172.807 193.78C173.327 193.5 173.747 193.08 174.067 192.52C174.387 191.96 174.547 191.28 174.547 190.48C174.547 189.68 174.393 189.007 174.087 188.46C173.78 187.9 173.373 187.48 172.867 187.2C172.36 186.92 171.813 186.78 171.227 186.78C170.64 186.78 170.093 186.92 169.587 187.2C169.093 187.48 168.7 187.9 168.407 188.46C168.113 189.007 167.967 189.68 167.967 190.48C167.967 191.667 168.267 192.587 168.867 193.24C169.48 193.88 170.247 194.2 171.167 194.2ZM181.421 186.58C181.754 186.02 182.194 185.587 182.741 185.28C183.301 184.96 183.961 184.8 184.721 184.8V187.16H184.141C183.247 187.16 182.567 187.387 182.101 187.84C181.647 188.293 181.421 189.08 181.421 190.2V196H179.141V184.98H181.421V186.58ZM196.916 190.22C196.916 190.633 196.89 191.007 196.836 191.34H188.416C188.483 192.22 188.81 192.927 189.396 193.46C189.983 193.993 190.703 194.26 191.556 194.26C192.783 194.26 193.65 193.747 194.156 192.72H196.616C196.283 193.733 195.676 194.567 194.796 195.22C193.93 195.86 192.85 196.18 191.556 196.18C190.503 196.18 189.556 195.947 188.716 195.48C187.89 195 187.236 194.333 186.756 193.48C186.29 192.613 186.056 191.613 186.056 190.48C186.056 189.347 186.283 188.353 186.736 187.5C187.203 186.633 187.85 185.967 188.676 185.5C189.516 185.033 190.476 184.8 191.556 184.8C192.596 184.8 193.523 185.027 194.336 185.48C195.15 185.933 195.783 186.573 196.236 187.4C196.69 188.213 196.916 189.153 196.916 190.22ZM194.536 189.5C194.523 188.66 194.223 187.987 193.636 187.48C193.05 186.973 192.323 186.72 191.456 186.72C190.67 186.72 189.996 186.973 189.436 187.48C188.876 187.973 188.543 188.647 188.436 189.5H194.536ZM212.5 184.8C213.367 184.8 214.14 184.98 214.82 185.34C215.513 185.7 216.053 186.233 216.44 186.94C216.84 187.647 217.04 188.5 217.04 189.5V196H214.78V189.84C214.78 188.853 214.533 188.1 214.04 187.58C213.547 187.047 212.873 186.78 212.02 186.78C211.167 186.78 210.487 187.047 209.98 187.58C209.487 188.1 209.24 188.853 209.24 189.84V196H206.98V189.84C206.98 188.853 206.733 188.1 206.24 187.58C205.747 187.047 205.073 186.78 204.22 186.78C203.367 186.78 202.687 187.047 202.18 187.58C201.687 188.1 201.44 188.853 201.44 189.84V196H199.16V184.98H201.44V186.24C201.813 185.787 202.287 185.433 202.86 185.18C203.433 184.927 204.047 184.8 204.7 184.8C205.58 184.8 206.367 184.987 207.06 185.36C207.753 185.733 208.287 186.273 208.66 186.98C208.993 186.313 209.513 185.787 210.22 185.4C210.927 185 211.687 184.8 212.5 184.8ZM158.66 213.52C158.247 213.52 157.9 213.38 157.62 213.1C157.34 212.82 157.2 212.473 157.2 212.06C157.2 211.647 157.34 211.3 157.62 211.02C157.9 210.74 158.247 210.6 158.66 210.6C159.06 210.6 159.4 210.74 159.68 211.02C159.96 211.3 160.1 211.647 160.1 212.06C160.1 212.473 159.96 212.82 159.68 213.1C159.4 213.38 159.06 213.52 158.66 213.52ZM159.78 214.98V226H157.5V214.98H159.78ZM165.053 216.6C165.44 216.093 165.967 215.667 166.633 215.32C167.3 214.973 168.053 214.8 168.893 214.8C169.853 214.8 170.727 215.04 171.513 215.52C172.313 215.987 172.94 216.647 173.393 217.5C173.847 218.353 174.073 219.333 174.073 220.44C174.073 221.547 173.847 222.54 173.393 223.42C172.94 224.287 172.313 224.967 171.513 225.46C170.727 225.94 169.853 226.18 168.893 226.18C168.053 226.18 167.307 226.013 166.653 225.68C166 225.333 165.467 224.907 165.053 224.4V231.24H162.773V214.98H165.053V216.6ZM171.753 220.44C171.753 219.68 171.593 219.027 171.273 218.48C170.967 217.92 170.553 217.5 170.033 217.22C169.527 216.927 168.98 216.78 168.393 216.78C167.82 216.78 167.273 216.927 166.753 217.22C166.247 217.513 165.833 217.94 165.513 218.5C165.207 219.06 165.053 219.72 165.053 220.48C165.053 221.24 165.207 221.907 165.513 222.48C165.833 223.04 166.247 223.467 166.753 223.76C167.273 224.053 167.82 224.2 168.393 224.2C168.98 224.2 169.527 224.053 170.033 223.76C170.553 223.453 170.967 223.013 171.273 222.44C171.593 221.867 171.753 221.2 171.753 220.44ZM180.328 226.18C179.461 226.18 178.681 226.027 177.988 225.72C177.308 225.4 176.768 224.973 176.368 224.44C175.968 223.893 175.755 223.287 175.728 222.62H178.088C178.128 223.087 178.348 223.48 178.748 223.8C179.161 224.107 179.675 224.26 180.288 224.26C180.928 224.26 181.421 224.14 181.768 223.9C182.128 223.647 182.308 223.327 182.308 222.94C182.308 222.527 182.108 222.22 181.708 222.02C181.321 221.82 180.701 221.6 179.848 221.36C179.021 221.133 178.348 220.913 177.828 220.7C177.308 220.487 176.855 220.16 176.468 219.72C176.095 219.28 175.908 218.7 175.908 217.98C175.908 217.393 176.081 216.86 176.428 216.38C176.775 215.887 177.268 215.5 177.908 215.22C178.561 214.94 179.308 214.8 180.148 214.8C181.401 214.8 182.408 215.12 183.168 215.76C183.941 216.387 184.355 217.247 184.408 218.34H182.128C182.088 217.847 181.888 217.453 181.528 217.16C181.168 216.867 180.681 216.72 180.068 216.72C179.468 216.72 179.008 216.833 178.688 217.06C178.368 217.287 178.208 217.587 178.208 217.96C178.208 218.253 178.315 218.5 178.528 218.7C178.741 218.9 179.001 219.06 179.308 219.18C179.615 219.287 180.068 219.427 180.668 219.6C181.468 219.813 182.121 220.033 182.628 220.26C183.148 220.473 183.595 220.793 183.968 221.22C184.341 221.647 184.535 222.213 184.548 222.92C184.548 223.547 184.375 224.107 184.028 224.6C183.681 225.093 183.188 225.48 182.548 225.76C181.921 226.04 181.181 226.18 180.328 226.18ZM188.172 213.52C187.758 213.52 187.412 213.38 187.132 213.1C186.852 212.82 186.712 212.473 186.712 212.06C186.712 211.647 186.852 211.3 187.132 211.02C187.412 210.74 187.758 210.6 188.172 210.6C188.572 210.6 188.912 210.74 189.192 211.02C189.472 211.3 189.612 211.647 189.612 212.06C189.612 212.473 189.472 212.82 189.192 213.1C188.912 213.38 188.572 213.52 188.172 213.52ZM189.292 214.98V226H187.012V214.98H189.292ZM202.265 214.98V226H199.985V224.7C199.625 225.153 199.152 225.513 198.565 225.78C197.992 226.033 197.378 226.16 196.725 226.16C195.858 226.16 195.078 225.98 194.385 225.62C193.705 225.26 193.165 224.727 192.765 224.02C192.378 223.313 192.185 222.46 192.185 221.46V214.98H194.445V221.12C194.445 222.107 194.692 222.867 195.185 223.4C195.678 223.92 196.352 224.18 197.205 224.18C198.058 224.18 198.732 223.92 199.225 223.4C199.732 222.867 199.985 222.107 199.985 221.12V214.98H202.265ZM218.613 214.8C219.48 214.8 220.253 214.98 220.933 215.34C221.627 215.7 222.167 216.233 222.553 216.94C222.953 217.647 223.153 218.5 223.153 219.5V226H220.893V219.84C220.893 218.853 220.647 218.1 220.153 217.58C219.66 217.047 218.987 216.78 218.133 216.78C217.28 216.78 216.6 217.047 216.093 217.58C215.6 218.1 215.353 218.853 215.353 219.84V226H213.093V219.84C213.093 218.853 212.847 218.1 212.353 217.58C211.86 217.047 211.187 216.78 210.333 216.78C209.48 216.78 208.8 217.047 208.293 217.58C207.8 218.1 207.553 218.853 207.553 219.84V226H205.273V214.98H207.553V216.24C207.927 215.787 208.4 215.433 208.973 215.18C209.547 214.927 210.16 214.8 210.813 214.8C211.693 214.8 212.48 214.987 213.173 215.36C213.867 215.733 214.4 216.273 214.773 216.98C215.107 216.313 215.627 215.787 216.333 215.4C217.04 215 217.8 214.8 218.613 214.8Z" fill="white"/>
<path d="M392.78 194.16H397.48V196H390.5V182.1H392.78V194.16ZM404.167 196.18C403.127 196.18 402.187 195.947 401.347 195.48C400.507 195 399.847 194.333 399.367 193.48C398.887 192.613 398.647 191.613 398.647 190.48C398.647 189.36 398.893 188.367 399.387 187.5C399.88 186.633 400.553 185.967 401.407 185.5C402.26 185.033 403.213 184.8 404.267 184.8C405.32 184.8 406.273 185.033 407.127 185.5C407.98 185.967 408.653 186.633 409.147 187.5C409.64 188.367 409.887 189.36 409.887 190.48C409.887 191.6 409.633 192.593 409.127 193.46C408.62 194.327 407.927 195 407.047 195.48C406.18 195.947 405.22 196.18 404.167 196.18ZM404.167 194.2C404.753 194.2 405.3 194.06 405.807 193.78C406.327 193.5 406.747 193.08 407.067 192.52C407.387 191.96 407.547 191.28 407.547 190.48C407.547 189.68 407.393 189.007 407.087 188.46C406.78 187.9 406.373 187.48 405.867 187.2C405.36 186.92 404.813 186.78 404.227 186.78C403.64 186.78 403.093 186.92 402.587 187.2C402.093 187.48 401.7 187.9 401.407 188.46C401.113 189.007 400.967 189.68 400.967 190.48C400.967 191.667 401.267 192.587 401.867 193.24C402.48 193.88 403.247 194.2 404.167 194.2ZM414.421 186.58C414.754 186.02 415.194 185.587 415.741 185.28C416.301 184.96 416.961 184.8 417.721 184.8V187.16H417.141C416.247 187.16 415.567 187.387 415.101 187.84C414.647 188.293 414.421 189.08 414.421 190.2V196H412.141V184.98H414.421V186.58ZM429.916 190.22C429.916 190.633 429.89 191.007 429.836 191.34H421.416C421.483 192.22 421.81 192.927 422.396 193.46C422.983 193.993 423.703 194.26 424.556 194.26C425.783 194.26 426.65 193.747 427.156 192.72H429.616C429.283 193.733 428.676 194.567 427.796 195.22C426.93 195.86 425.85 196.18 424.556 196.18C423.503 196.18 422.556 195.947 421.716 195.48C420.89 195 420.236 194.333 419.756 193.48C419.29 192.613 419.056 191.613 419.056 190.48C419.056 189.347 419.283 188.353 419.736 187.5C420.203 186.633 420.85 185.967 421.676 185.5C422.516 185.033 423.476 184.8 424.556 184.8C425.596 184.8 426.523 185.027 427.336 185.48C428.15 185.933 428.783 186.573 429.236 187.4C429.69 188.213 429.916 189.153 429.916 190.22ZM427.536 189.5C427.523 188.66 427.223 187.987 426.636 187.48C426.05 186.973 425.323 186.72 424.456 186.72C423.67 186.72 422.996 186.973 422.436 187.48C421.876 187.973 421.543 188.647 421.436 189.5H427.536ZM445.5 184.8C446.367 184.8 447.14 184.98 447.82 185.34C448.513 185.7 449.053 186.233 449.44 186.94C449.84 187.647 450.04 188.5 450.04 189.5V196H447.78V189.84C447.78 188.853 447.533 188.1 447.04 187.58C446.547 187.047 445.873 186.78 445.02 186.78C444.167 186.78 443.487 187.047 442.98 187.58C442.487 188.1 442.24 188.853 442.24 189.84V196H439.98V189.84C439.98 188.853 439.733 188.1 439.24 187.58C438.747 187.047 438.073 186.78 437.22 186.78C436.367 186.78 435.687 187.047 435.18 187.58C434.687 188.1 434.44 188.853 434.44 189.84V196H432.16V184.98H434.44V186.24C434.813 185.787 435.287 185.433 435.86 185.18C436.433 184.927 437.047 184.8 437.7 184.8C438.58 184.8 439.367 184.987 440.06 185.36C440.753 185.733 441.287 186.273 441.66 186.98C441.993 186.313 442.513 185.787 443.22 185.4C443.927 185 444.687 184.8 445.5 184.8ZM391.66 213.52C391.247 213.52 390.9 213.38 390.62 213.1C390.34 212.82 390.2 212.473 390.2 212.06C390.2 211.647 390.34 211.3 390.62 211.02C390.9 210.74 391.247 210.6 391.66 210.6C392.06 210.6 392.4 210.74 392.68 211.02C392.96 211.3 393.1 211.647 393.1 212.06C393.1 212.473 392.96 212.82 392.68 213.1C392.4 213.38 392.06 213.52 391.66 213.52ZM392.78 214.98V226H390.5V214.98H392.78ZM398.053 216.6C398.44 216.093 398.967 215.667 399.633 215.32C400.3 214.973 401.053 214.8 401.893 214.8C402.853 214.8 403.727 215.04 404.513 215.52C405.313 215.987 405.94 216.647 406.393 217.5C406.847 218.353 407.073 219.333 407.073 220.44C407.073 221.547 406.847 222.54 406.393 223.42C405.94 224.287 405.313 224.967 404.513 225.46C403.727 225.94 402.853 226.18 401.893 226.18C401.053 226.18 400.307 226.013 399.653 225.68C399 225.333 398.467 224.907 398.053 224.4V231.24H395.773V214.98H398.053V216.6ZM404.753 220.44C404.753 219.68 404.593 219.027 404.273 218.48C403.967 217.92 403.553 217.5 403.033 217.22C402.527 216.927 401.98 216.78 401.393 216.78C400.82 216.78 400.273 216.927 399.753 217.22C399.247 217.513 398.833 217.94 398.513 218.5C398.207 219.06 398.053 219.72 398.053 220.48C398.053 221.24 398.207 221.907 398.513 222.48C398.833 223.04 399.247 223.467 399.753 223.76C400.273 224.053 400.82 224.2 401.393 224.2C401.98 224.2 402.527 224.053 403.033 223.76C403.553 223.453 403.967 223.013 404.273 222.44C404.593 221.867 404.753 221.2 404.753 220.44ZM413.328 226.18C412.461 226.18 411.681 226.027 410.988 225.72C410.308 225.4 409.768 224.973 409.368 224.44C408.968 223.893 408.755 223.287 408.728 222.62H411.088C411.128 223.087 411.348 223.48 411.748 223.8C412.161 224.107 412.675 224.26 413.288 224.26C413.928 224.26 414.421 224.14 414.768 223.9C415.128 223.647 415.308 223.327 415.308 222.94C415.308 222.527 415.108 222.22 414.708 222.02C414.321 221.82 413.701 221.6 412.848 221.36C412.021 221.133 411.348 220.913 410.828 220.7C410.308 220.487 409.855 220.16 409.468 219.72C409.095 219.28 408.908 218.7 408.908 217.98C408.908 217.393 409.081 216.86 409.428 216.38C409.775 215.887 410.268 215.5 410.908 215.22C411.561 214.94 412.308 214.8 413.148 214.8C414.401 214.8 415.408 215.12 416.168 215.76C416.941 216.387 417.355 217.247 417.408 218.34H415.128C415.088 217.847 414.888 217.453 414.528 217.16C414.168 216.867 413.681 216.72 413.068 216.72C412.468 216.72 412.008 216.833 411.688 217.06C411.368 217.287 411.208 217.587 411.208 217.96C411.208 218.253 411.315 218.5 411.528 218.7C411.741 218.9 412.001 219.06 412.308 219.18C412.615 219.287 413.068 219.427 413.668 219.6C414.468 219.813 415.121 220.033 415.628 220.26C416.148 220.473 416.595 220.793 416.968 221.22C417.341 221.647 417.535 222.213 417.548 222.92C417.548 223.547 417.375 224.107 417.028 224.6C416.681 225.093 416.188 225.48 415.548 225.76C414.921 226.04 414.181 226.18 413.328 226.18ZM421.172 213.52C420.758 213.52 420.412 213.38 420.132 213.1C419.852 212.82 419.712 212.473 419.712 212.06C419.712 211.647 419.852 211.3 420.132 211.02C420.412 210.74 420.758 210.6 421.172 210.6C421.572 210.6 421.912 210.74 422.192 211.02C422.472 211.3 422.612 211.647 422.612 212.06C422.612 212.473 422.472 212.82 422.192 213.1C421.912 213.38 421.572 213.52 421.172 213.52ZM422.292 214.98V226H420.012V214.98H422.292ZM435.265 214.98V226H432.985V224.7C432.625 225.153 432.152 225.513 431.565 225.78C430.992 226.033 430.378 226.16 429.725 226.16C428.858 226.16 428.078 225.98 427.385 225.62C426.705 225.26 426.165 224.727 425.765 224.02C425.378 223.313 425.185 222.46 425.185 221.46V214.98H427.445V221.12C427.445 222.107 427.692 222.867 428.185 223.4C428.678 223.92 429.352 224.18 430.205 224.18C431.058 224.18 431.732 223.92 432.225 223.4C432.732 222.867 432.985 222.107 432.985 221.12V214.98H435.265ZM451.613 214.8C452.48 214.8 453.253 214.98 453.933 215.34C454.627 215.7 455.167 216.233 455.553 216.94C455.953 217.647 456.153 218.5 456.153 219.5V226H453.893V219.84C453.893 218.853 453.647 218.1 453.153 217.58C452.66 217.047 451.987 216.78 451.133 216.78C450.28 216.78 449.6 217.047 449.093 217.58C448.6 218.1 448.353 218.853 448.353 219.84V226H446.093V219.84C446.093 218.853 445.847 218.1 445.353 217.58C444.86 217.047 444.187 216.78 443.333 216.78C442.48 216.78 441.8 217.047 441.293 217.58C440.8 218.1 440.553 218.853 440.553 219.84V226H438.273V214.98H440.553V216.24C440.927 215.787 441.4 215.433 441.973 215.18C442.547 214.927 443.16 214.8 443.813 214.8C444.693 214.8 445.48 214.987 446.173 215.36C446.867 215.733 447.4 216.273 447.773 216.98C448.107 216.313 448.627 215.787 449.333 215.4C450.04 215 450.8 214.8 451.613 214.8Z" fill="white"/>
<path d="M624.78 194.16H629.48V196H622.5V182.1H624.78V194.16ZM636.167 196.18C635.127 196.18 634.187 195.947 633.347 195.48C632.507 195 631.847 194.333 631.367 193.48C630.887 192.613 630.647 191.613 630.647 190.48C630.647 189.36 630.893 188.367 631.387 187.5C631.88 186.633 632.553 185.967 633.407 185.5C634.26 185.033 635.213 184.8 636.267 184.8C637.32 184.8 638.273 185.033 639.127 185.5C639.98 185.967 640.653 186.633 641.147 187.5C641.64 188.367 641.887 189.36 641.887 190.48C641.887 191.6 641.633 192.593 641.127 193.46C640.62 194.327 639.927 195 639.047 195.48C638.18 195.947 637.22 196.18 636.167 196.18ZM636.167 194.2C636.753 194.2 637.3 194.06 637.807 193.78C638.327 193.5 638.747 193.08 639.067 192.52C639.387 191.96 639.547 191.28 639.547 190.48C639.547 189.68 639.393 189.007 639.087 188.46C638.78 187.9 638.373 187.48 637.867 187.2C637.36 186.92 636.813 186.78 636.227 186.78C635.64 186.78 635.093 186.92 634.587 187.2C634.093 187.48 633.7 187.9 633.407 188.46C633.113 189.007 632.967 189.68 632.967 190.48C632.967 191.667 633.267 192.587 633.867 193.24C634.48 193.88 635.247 194.2 636.167 194.2ZM646.421 186.58C646.754 186.02 647.194 185.587 647.741 185.28C648.301 184.96 648.961 184.8 649.721 184.8V187.16H649.141C648.247 187.16 647.567 187.387 647.101 187.84C646.647 188.293 646.421 189.08 646.421 190.2V196H644.141V184.98H646.421V186.58ZM661.916 190.22C661.916 190.633 661.89 191.007 661.836 191.34H653.416C653.483 192.22 653.81 192.927 654.396 193.46C654.983 193.993 655.703 194.26 656.556 194.26C657.783 194.26 658.65 193.747 659.156 192.72H661.616C661.283 193.733 660.676 194.567 659.796 195.22C658.93 195.86 657.85 196.18 656.556 196.18C655.503 196.18 654.556 195.947 653.716 195.48C652.89 195 652.236 194.333 651.756 193.48C651.29 192.613 651.056 191.613 651.056 190.48C651.056 189.347 651.283 188.353 651.736 187.5C652.203 186.633 652.85 185.967 653.676 185.5C654.516 185.033 655.476 184.8 656.556 184.8C657.596 184.8 658.523 185.027 659.336 185.48C660.15 185.933 660.783 186.573 661.236 187.4C661.69 188.213 661.916 189.153 661.916 190.22ZM659.536 189.5C659.523 188.66 659.223 187.987 658.636 187.48C658.05 186.973 657.323 186.72 656.456 186.72C655.67 186.72 654.996 186.973 654.436 187.48C653.876 187.973 653.543 188.647 653.436 189.5H659.536ZM677.5 184.8C678.367 184.8 679.14 184.98 679.82 185.34C680.513 185.7 681.053 186.233 681.44 186.94C681.84 187.647 682.04 188.5 682.04 189.5V196H679.78V189.84C679.78 188.853 679.533 188.1 679.04 187.58C678.547 187.047 677.873 186.78 677.02 186.78C676.167 186.78 675.487 187.047 674.98 187.58C674.487 188.1 674.24 188.853 674.24 189.84V196H671.98V189.84C671.98 188.853 671.733 188.1 671.24 187.58C670.747 187.047 670.073 186.78 669.22 186.78C668.367 186.78 667.687 187.047 667.18 187.58C666.687 188.1 666.44 188.853 666.44 189.84V196H664.16V184.98H666.44V186.24C666.813 185.787 667.287 185.433 667.86 185.18C668.433 184.927 669.047 184.8 669.7 184.8C670.58 184.8 671.367 184.987 672.06 185.36C672.753 185.733 673.287 186.273 673.66 186.98C673.993 186.313 674.513 185.787 675.22 185.4C675.927 185 676.687 184.8 677.5 184.8ZM623.66 213.52C623.247 213.52 622.9 213.38 622.62 213.1C622.34 212.82 622.2 212.473 622.2 212.06C622.2 211.647 622.34 211.3 622.62 211.02C622.9 210.74 623.247 210.6 623.66 210.6C624.06 210.6 624.4 210.74 624.68 211.02C624.96 211.3 625.1 211.647 625.1 212.06C625.1 212.473 624.96 212.82 624.68 213.1C624.4 213.38 624.06 213.52 623.66 213.52ZM624.78 214.98V226H622.5V214.98H624.78ZM630.053 216.6C630.44 216.093 630.967 215.667 631.633 215.32C632.3 214.973 633.053 214.8 633.893 214.8C634.853 214.8 635.727 215.04 636.513 215.52C637.313 215.987 637.94 216.647 638.393 217.5C638.847 218.353 639.073 219.333 639.073 220.44C639.073 221.547 638.847 222.54 638.393 223.42C637.94 224.287 637.313 224.967 636.513 225.46C635.727 225.94 634.853 226.18 633.893 226.18C633.053 226.18 632.307 226.013 631.653 225.68C631 225.333 630.467 224.907 630.053 224.4V231.24H627.773V214.98H630.053V216.6ZM636.753 220.44C636.753 219.68 636.593 219.027 636.273 218.48C635.967 217.92 635.553 217.5 635.033 217.22C634.527 216.927 633.98 216.78 633.393 216.78C632.82 216.78 632.273 216.927 631.753 217.22C631.247 217.513 630.833 217.94 630.513 218.5C630.207 219.06 630.053 219.72 630.053 220.48C630.053 221.24 630.207 221.907 630.513 222.48C630.833 223.04 631.247 223.467 631.753 223.76C632.273 224.053 632.82 224.2 633.393 224.2C633.98 224.2 634.527 224.053 635.033 223.76C635.553 223.453 635.967 223.013 636.273 222.44C636.593 221.867 636.753 221.2 636.753 220.44ZM645.328 226.18C644.461 226.18 643.681 226.027 642.988 225.72C642.308 225.4 641.768 224.973 641.368 224.44C640.968 223.893 640.755 223.287 640.728 222.62H643.088C643.128 223.087 643.348 223.48 643.748 223.8C644.161 224.107 644.675 224.26 645.288 224.26C645.928 224.26 646.421 224.14 646.768 223.9C647.128 223.647 647.308 223.327 647.308 222.94C647.308 222.527 647.108 222.22 646.708 222.02C646.321 221.82 645.701 221.6 644.848 221.36C644.021 221.133 643.348 220.913 642.828 220.7C642.308 220.487 641.855 220.16 641.468 219.72C641.095 219.28 640.908 218.7 640.908 217.98C640.908 217.393 641.081 216.86 641.428 216.38C641.775 215.887 642.268 215.5 642.908 215.22C643.561 214.94 644.308 214.8 645.148 214.8C646.401 214.8 647.408 215.12 648.168 215.76C648.941 216.387 649.355 217.247 649.408 218.34H647.128C647.088 217.847 646.888 217.453 646.528 217.16C646.168 216.867 645.681 216.72 645.068 216.72C644.468 216.72 644.008 216.833 643.688 217.06C643.368 217.287 643.208 217.587 643.208 217.96C643.208 218.253 643.315 218.5 643.528 218.7C643.741 218.9 644.001 219.06 644.308 219.18C644.615 219.287 645.068 219.427 645.668 219.6C646.468 219.813 647.121 220.033 647.628 220.26C648.148 220.473 648.595 220.793 648.968 221.22C649.341 221.647 649.535 222.213 649.548 222.92C649.548 223.547 649.375 224.107 649.028 224.6C648.681 225.093 648.188 225.48 647.548 225.76C646.921 226.04 646.181 226.18 645.328 226.18ZM653.172 213.52C652.758 213.52 652.412 213.38 652.132 213.1C651.852 212.82 651.712 212.473 651.712 212.06C651.712 211.647 651.852 211.3 652.132 211.02C652.412 210.74 652.758 210.6 653.172 210.6C653.572 210.6 653.912 210.74 654.192 211.02C654.472 211.3 654.612 211.647 654.612 212.06C654.612 212.473 654.472 212.82 654.192 213.1C653.912 213.38 653.572 213.52 653.172 213.52ZM654.292 214.98V226H652.012V214.98H654.292ZM667.265 214.98V226H664.985V224.7C664.625 225.153 664.152 225.513 663.565 225.78C662.992 226.033 662.378 226.16 661.725 226.16C660.858 226.16 660.078 225.98 659.385 225.62C658.705 225.26 658.165 224.727 657.765 224.02C657.378 223.313 657.185 222.46 657.185 221.46V214.98H659.445V221.12C659.445 222.107 659.692 222.867 660.185 223.4C660.678 223.92 661.352 224.18 662.205 224.18C663.058 224.18 663.732 223.92 664.225 223.4C664.732 222.867 664.985 222.107 664.985 221.12V214.98H667.265ZM683.613 214.8C684.48 214.8 685.253 214.98 685.933 215.34C686.627 215.7 687.167 216.233 687.553 216.94C687.953 217.647 688.153 218.5 688.153 219.5V226H685.893V219.84C685.893 218.853 685.647 218.1 685.153 217.58C684.66 217.047 683.987 216.78 683.133 216.78C682.28 216.78 681.6 217.047 681.093 217.58C680.6 218.1 680.353 218.853 680.353 219.84V226H678.093V219.84C678.093 218.853 677.847 218.1 677.353 217.58C676.86 217.047 676.187 216.78 675.333 216.78C674.48 216.78 673.8 217.047 673.293 217.58C672.8 218.1 672.553 218.853 672.553 219.84V226H670.273V214.98H672.553V216.24C672.927 215.787 673.4 215.433 673.973 215.18C674.547 214.927 675.16 214.8 675.813 214.8C676.693 214.8 677.48 214.987 678.173 215.36C678.867 215.733 679.4 216.273 679.773 216.98C680.107 216.313 680.627 215.787 681.333 215.4C682.04 215 682.8 214.8 683.613 214.8Z" fill="white"/>
<defs>
<filter id="filter0_d_317_876" x="0" y="0" width="866" height="297" filterUnits="userSpaceOnUse" color-interpolation-filters="sRGB">
<feFlood flood-opacity="0" result="BackgroundImageFix"/>
<feColorMatrix in="SourceAlpha" type="matrix" values="0 0 0 0 0 0 0 0 0 0 0 0 0 0 0 0 0 0 127 0" result="hardAlpha"/>
<feOffset dy="2"/>
<feGaussianBlur stdDeviation="7.5"/>
<feComposite in2="hardAlpha" operator="out"/>
<feColorMatrix type="matrix" values="0 0 0 0 0 0 0 0 0 0 0 0 0 0 0 0 0 0 0.27 0"/>
<feBlend mode="normal" in2="BackgroundImageFix" result="effect1_dropShadow_317_876"/>
<feBlend mode="normal" in="SourceGraphic" in2="effect1_dropShadow_317_876" result="shape"/>
</filter>
<clipPath id="clip0_317_876">
<rect width="98" height="98" fill="white" transform="translate(616 63)"/>
</clipPath>
<clipPath id="clip1_317_876">
<rect width="98" height="98" fill="white" transform="translate(156 56)"/>
</clipPath>
<clipPath id="clip2_317_876">
<rect width="98" height="98" fill="white" transform="translate(387 56)"/>
</clipPath>
</defs>
</svg>
