<svg width="340" height="297" viewBox="0 0 340 297" fill="none" xmlns="http://www.w3.org/2000/svg">
<g filter="url(#filter0_d_317_877)">
<rect x="15" y="13" width="309.405" height="267" rx="16" fill="white"/>
<rect x="15.75" y="13.75" width="307.905" height="265.5" rx="15.25" stroke="#0048D3" stroke-width="1.5"/>
</g>
<g filter="url(#filter1_d_317_877)">
<path d="M60.7297 208C60.7297 199.163 67.8932 192 76.7297 192H262.676C271.512 192 278.676 199.163 278.676 208V237C278.676 245.837 271.512 253 262.676 253H76.7298C67.8932 253 60.7297 245.837 60.7297 237V208Z" fill="#0048D3"/>
<path d="M61.2297 208C61.2297 199.44 68.1693 192.5 76.7297 192.5H262.676C271.236 192.5 278.176 199.44 278.176 208V237C278.176 245.56 271.236 252.5 262.676 252.5H76.7298C68.1693 252.5 61.2297 245.56 61.2297 237V208Z" stroke="#0048D3"/>
</g>
<path d="M81.6918 46.92V75H74.8518V63.44H64.2118V75H57.3718V46.92H64.2118V57.92H74.8518V46.92H81.6918ZM93.4697 46.92V75H86.6297V46.92H93.4697ZM105.787 68.68L101.347 80.16H96.9865L99.3065 68.68H105.787ZM135.867 70.04H125.387L123.707 75H116.547L126.707 46.92H134.627L144.787 75H137.547L135.867 70.04ZM134.107 64.76L130.627 54.48L127.187 64.76H134.107ZM161.6 52.44C164.16 52.44 166.213 53.2933 167.76 55C169.306 56.68 170.08 59 170.08 61.96V75H163.28V62.88C163.28 61.3867 162.893 60.2267 162.12 59.4C161.346 58.5733 160.306 58.16 159 58.16C157.693 58.16 156.653 58.5733 155.88 59.4C155.106 60.2267 154.72 61.3867 154.72 62.88V75H147.88V45.4H154.72V55.68C155.413 54.6933 156.36 53.9067 157.56 53.32C158.76 52.7333 160.106 52.44 161.6 52.44ZM203.313 52.44C206.086 52.44 208.286 53.28 209.913 54.96C211.566 56.64 212.393 58.9733 212.393 61.96V75H205.593V62.88C205.593 61.44 205.206 60.3333 204.433 59.56C203.686 58.76 202.646 58.36 201.313 58.36C199.979 58.36 198.926 58.76 198.153 59.56C197.406 60.3333 197.033 61.44 197.033 62.88V75H190.233V62.88C190.233 61.44 189.846 60.3333 189.073 59.56C188.326 58.76 187.286 58.36 185.953 58.36C184.619 58.36 183.566 58.76 182.793 59.56C182.046 60.3333 181.673 61.44 181.673 62.88V75H174.833V52.68H181.673V55.48C182.366 54.5467 183.273 53.8133 184.393 53.28C185.513 52.72 186.779 52.44 188.193 52.44C189.873 52.44 191.366 52.8 192.673 53.52C194.006 54.24 195.046 55.2667 195.793 56.6C196.566 55.3733 197.619 54.3733 198.953 53.6C200.286 52.8267 201.739 52.44 203.313 52.44ZM238.217 63.48C238.217 64.12 238.177 64.7867 238.097 65.48H222.617C222.723 66.8667 223.163 67.9333 223.937 68.68C224.737 69.4 225.71 69.76 226.857 69.76C228.563 69.76 229.75 69.04 230.417 67.6H237.697C237.323 69.0667 236.643 70.3867 235.657 71.56C234.697 72.7333 233.483 73.6533 232.017 74.32C230.55 74.9867 228.91 75.32 227.097 75.32C224.91 75.32 222.963 74.8533 221.257 73.92C219.55 72.9867 218.217 71.6533 217.257 69.92C216.297 68.1867 215.817 66.16 215.817 63.84C215.817 61.52 216.283 59.4933 217.217 57.76C218.177 56.0267 219.51 54.6933 221.217 53.76C222.923 52.8267 224.883 52.36 227.097 52.36C229.257 52.36 231.177 52.8133 232.857 53.72C234.537 54.6267 235.843 55.92 236.777 57.6C237.737 59.28 238.217 61.24 238.217 63.48ZM231.217 61.68C231.217 60.5067 230.817 59.5733 230.017 58.88C229.217 58.1867 228.217 57.84 227.017 57.84C225.87 57.84 224.897 58.1733 224.097 58.84C223.323 59.5067 222.843 60.4533 222.657 61.68H231.217ZM240.465 63.8C240.465 61.5067 240.892 59.4933 241.745 57.76C242.625 56.0267 243.812 54.6933 245.305 53.76C246.798 52.8267 248.465 52.36 250.305 52.36C251.772 52.36 253.105 52.6667 254.305 53.28C255.532 53.8933 256.492 54.72 257.185 55.76V45.4H264.025V75H257.185V71.8C256.545 72.8667 255.625 73.72 254.425 74.36C253.252 75 251.878 75.32 250.305 75.32C248.465 75.32 246.798 74.8533 245.305 73.92C243.812 72.96 242.625 71.6133 241.745 69.88C240.892 68.12 240.465 66.0933 240.465 63.8ZM257.185 63.84C257.185 62.1333 256.705 60.7867 255.745 59.8C254.812 58.8133 253.665 58.32 252.305 58.32C250.945 58.32 249.785 58.8133 248.825 59.8C247.892 60.76 247.425 62.0933 247.425 63.8C247.425 65.5067 247.892 66.8667 248.825 67.88C249.785 68.8667 250.945 69.36 252.305 69.36C253.665 69.36 254.812 68.8667 255.745 67.88C256.705 66.8933 257.185 65.5467 257.185 63.84ZM277.973 45.92L277.173 65.08H271.373L270.573 45.92H277.973ZM274.373 75.32C273.173 75.32 272.187 74.9733 271.413 74.28C270.667 73.56 270.293 72.68 270.293 71.64C270.293 70.5733 270.667 69.68 271.413 68.96C272.187 68.24 273.173 67.88 274.373 67.88C275.547 67.88 276.507 68.24 277.253 68.96C278.027 69.68 278.413 70.5733 278.413 71.64C278.413 72.68 278.027 73.56 277.253 74.28C276.507 74.9733 275.547 75.32 274.373 75.32Z" fill="#0048D3"/>
<path d="M49.4488 97.04L44.7288 106.14V111H41.9288V106.14L37.1888 97.04H40.3488L43.3488 103.42L46.3288 97.04H49.4488ZM55.9836 111.18C54.9169 111.18 53.9569 110.947 53.1036 110.48C52.2503 110 51.5769 109.327 51.0836 108.46C50.6036 107.593 50.3636 106.593 50.3636 105.46C50.3636 104.327 50.6103 103.327 51.1036 102.46C51.6103 101.593 52.2969 100.927 53.1636 100.46C54.0303 99.98 54.9969 99.74 56.0636 99.74C57.1303 99.74 58.0969 99.98 58.9636 100.46C59.8303 100.927 60.5103 101.593 61.0036 102.46C61.5103 103.327 61.7636 104.327 61.7636 105.46C61.7636 106.593 61.5036 107.593 60.9836 108.46C60.4769 109.327 59.7836 110 58.9036 110.48C58.0369 110.947 57.0636 111.18 55.9836 111.18ZM55.9836 108.74C56.4903 108.74 56.9636 108.62 57.4036 108.38C57.8569 108.127 58.2169 107.753 58.4836 107.26C58.7503 106.767 58.8836 106.167 58.8836 105.46C58.8836 104.407 58.6036 103.6 58.0436 103.04C57.4969 102.467 56.8236 102.18 56.0236 102.18C55.2236 102.18 54.5503 102.467 54.0036 103.04C53.4703 103.6 53.2036 104.407 53.2036 105.46C53.2036 106.513 53.4636 107.327 53.9836 107.9C54.5169 108.46 55.1836 108.74 55.9836 108.74ZM74.2775 99.92V111H71.4575V109.6C71.0975 110.08 70.6242 110.46 70.0375 110.74C69.4642 111.007 68.8375 111.14 68.1575 111.14C67.2908 111.14 66.5242 110.96 65.8575 110.6C65.1908 110.227 64.6642 109.687 64.2775 108.98C63.9042 108.26 63.7175 107.407 63.7175 106.42V99.92H66.5175V106.02C66.5175 106.9 66.7375 107.58 67.1775 108.06C67.6175 108.527 68.2175 108.76 68.9775 108.76C69.7508 108.76 70.3575 108.527 70.7975 108.06C71.2375 107.58 71.4575 106.9 71.4575 106.02V99.92H74.2775ZM97.1658 99.92L93.9258 111H90.9058L88.8858 103.26L86.8658 111H83.8258L80.5658 99.92H83.4058L85.3658 108.36L87.4858 99.92H90.4458L92.5258 108.34L94.4858 99.92H97.1658ZM97.9608 105.42C97.9608 104.3 98.1808 103.307 98.6208 102.44C99.0741 101.573 99.6808 100.907 100.441 100.44C101.214 99.9733 102.074 99.74 103.021 99.74C103.847 99.74 104.567 99.9067 105.181 100.24C105.807 100.573 106.307 100.993 106.681 101.5V99.92H109.501V111H106.681V109.38C106.321 109.9 105.821 110.333 105.181 110.68C104.554 111.013 103.827 111.18 103.001 111.18C102.067 111.18 101.214 110.94 100.441 110.46C99.6808 109.98 99.0741 109.307 98.6208 108.44C98.1808 107.56 97.9608 106.553 97.9608 105.42ZM106.681 105.46C106.681 104.78 106.547 104.2 106.281 103.72C106.014 103.227 105.654 102.853 105.201 102.6C104.747 102.333 104.261 102.2 103.741 102.2C103.221 102.2 102.741 102.327 102.301 102.58C101.861 102.833 101.501 103.207 101.221 103.7C100.954 104.18 100.821 104.753 100.821 105.42C100.821 106.087 100.954 106.673 101.221 107.18C101.501 107.673 101.861 108.053 102.301 108.32C102.754 108.587 103.234 108.72 103.741 108.72C104.261 108.72 104.747 108.593 105.201 108.34C105.654 108.073 106.014 107.7 106.281 107.22C106.547 106.727 106.681 106.14 106.681 105.46ZM118.375 99.76C119.695 99.76 120.762 100.18 121.575 101.02C122.389 101.847 122.795 103.007 122.795 104.5V111H119.995V104.88C119.995 104 119.775 103.327 119.335 102.86C118.895 102.38 118.295 102.14 117.535 102.14C116.762 102.14 116.149 102.38 115.695 102.86C115.255 103.327 115.035 104 115.035 104.88V111H112.235V99.92H115.035V101.3C115.409 100.82 115.882 100.447 116.455 100.18C117.042 99.9 117.682 99.76 118.375 99.76ZM128.718 102.22V107.58C128.718 107.953 128.805 108.227 128.978 108.4C129.165 108.56 129.471 108.64 129.898 108.64H131.198V111H129.438C127.078 111 125.898 109.853 125.898 107.56V102.22H124.578V99.92H125.898V97.18H128.718V99.92H131.198V102.22H128.718ZM141.238 102.22V107.58C141.238 107.953 141.324 108.227 141.498 108.4C141.684 108.56 141.991 108.64 142.418 108.64H143.718V111H141.958C139.598 111 138.418 109.853 138.418 107.56V102.22H137.098V99.92H138.418V97.18H141.238V99.92H143.718V102.22H141.238ZM150.652 111.18C149.585 111.18 148.625 110.947 147.772 110.48C146.918 110 146.245 109.327 145.752 108.46C145.272 107.593 145.032 106.593 145.032 105.46C145.032 104.327 145.278 103.327 145.772 102.46C146.278 101.593 146.965 100.927 147.832 100.46C148.698 99.98 149.665 99.74 150.732 99.74C151.798 99.74 152.765 99.98 153.632 100.46C154.498 100.927 155.178 101.593 155.672 102.46C156.178 103.327 156.432 104.327 156.432 105.46C156.432 106.593 156.172 107.593 155.652 108.46C155.145 109.327 154.452 110 153.572 110.48C152.705 110.947 151.732 111.18 150.652 111.18ZM150.652 108.74C151.158 108.74 151.632 108.62 152.072 108.38C152.525 108.127 152.885 107.753 153.152 107.26C153.418 106.767 153.552 106.167 153.552 105.46C153.552 104.407 153.272 103.6 152.712 103.04C152.165 102.467 151.492 102.18 150.692 102.18C149.892 102.18 149.218 102.467 148.672 103.04C148.138 103.6 147.872 104.407 147.872 105.46C147.872 106.513 148.132 107.327 148.652 107.9C149.185 108.46 149.852 108.74 150.652 108.74ZM168.331 102.22H166.391V111H163.551V102.22H162.291V99.92H163.551V99.36C163.551 98 163.938 97 164.711 96.36C165.484 95.72 166.651 95.42 168.211 95.46V97.82C167.531 97.8067 167.058 97.92 166.791 98.16C166.524 98.4 166.391 98.8333 166.391 99.46V99.92H168.331V102.22ZM171.566 98.6C171.072 98.6 170.659 98.4467 170.326 98.14C170.006 97.82 169.846 97.4267 169.846 96.96C169.846 96.4933 170.006 96.1067 170.326 95.8C170.659 95.48 171.072 95.32 171.566 95.32C172.059 95.32 172.466 95.48 172.786 95.8C173.119 96.1067 173.286 96.4933 173.286 96.96C173.286 97.4267 173.119 97.82 172.786 98.14C172.466 98.4467 172.059 98.6 171.566 98.6ZM172.946 99.92V111H170.146V99.92H172.946ZM181.852 99.76C183.172 99.76 184.239 100.18 185.052 101.02C185.865 101.847 186.272 103.007 186.272 104.5V111H183.472V104.88C183.472 104 183.252 103.327 182.812 102.86C182.372 102.38 181.772 102.14 181.012 102.14C180.239 102.14 179.625 102.38 179.172 102.86C178.732 103.327 178.512 104 178.512 104.88V111H175.712V99.92H178.512V101.3C178.885 100.82 179.359 100.447 179.932 100.18C180.519 99.9 181.159 99.76 181.852 99.76ZM188.215 105.42C188.215 104.3 188.435 103.307 188.875 102.44C189.328 101.573 189.941 100.907 190.715 100.44C191.488 99.9733 192.348 99.74 193.295 99.74C194.015 99.74 194.701 99.9 195.355 100.22C196.008 100.527 196.528 100.94 196.915 101.46V96.2H199.755V111H196.915V109.36C196.568 109.907 196.081 110.347 195.455 110.68C194.828 111.013 194.101 111.18 193.275 111.18C192.341 111.18 191.488 110.94 190.715 110.46C189.941 109.98 189.328 109.307 188.875 108.44C188.435 107.56 188.215 106.553 188.215 105.42ZM196.935 105.46C196.935 104.78 196.801 104.2 196.535 103.72C196.268 103.227 195.908 102.853 195.455 102.6C195.001 102.333 194.515 102.2 193.995 102.2C193.475 102.2 192.995 102.327 192.555 102.58C192.115 102.833 191.755 103.207 191.475 103.7C191.208 104.18 191.075 104.753 191.075 105.42C191.075 106.087 191.208 106.673 191.475 107.18C191.755 107.673 192.115 108.053 192.555 108.32C193.008 108.587 193.488 108.72 193.995 108.72C194.515 108.72 195.001 108.593 195.455 108.34C195.908 108.073 196.268 107.7 196.535 107.22C196.801 106.727 196.935 106.14 196.935 105.46ZM206.535 105.42C206.535 104.3 206.755 103.307 207.195 102.44C207.648 101.573 208.255 100.907 209.015 100.44C209.788 99.9733 210.648 99.74 211.595 99.74C212.422 99.74 213.142 99.9067 213.755 100.24C214.382 100.573 214.882 100.993 215.255 101.5V99.92H218.075V111H215.255V109.38C214.895 109.9 214.395 110.333 213.755 110.68C213.128 111.013 212.402 111.18 211.575 111.18C210.642 111.18 209.788 110.94 209.015 110.46C208.255 109.98 207.648 109.307 207.195 108.44C206.755 107.56 206.535 106.553 206.535 105.42ZM215.255 105.46C215.255 104.78 215.122 104.2 214.855 103.72C214.588 103.227 214.228 102.853 213.775 102.6C213.322 102.333 212.835 102.2 212.315 102.2C211.795 102.2 211.315 102.327 210.875 102.58C210.435 102.833 210.075 103.207 209.795 103.7C209.528 104.18 209.395 104.753 209.395 105.42C209.395 106.087 209.528 106.673 209.795 107.18C210.075 107.673 210.435 108.053 210.875 108.32C211.328 108.587 211.808 108.72 212.315 108.72C212.835 108.72 213.322 108.593 213.775 108.34C214.228 108.073 214.588 107.7 214.855 107.22C215.122 106.727 215.255 106.14 215.255 105.46ZM226.95 99.76C228.27 99.76 229.336 100.18 230.15 101.02C230.963 101.847 231.37 103.007 231.37 104.5V111H228.57V104.88C228.57 104 228.35 103.327 227.91 102.86C227.47 102.38 226.87 102.14 226.11 102.14C225.336 102.14 224.723 102.38 224.27 102.86C223.83 103.327 223.61 104 223.61 104.88V111H220.81V99.92H223.61V101.3C223.983 100.82 224.456 100.447 225.03 100.18C225.616 99.9 226.256 99.76 226.95 99.76ZM238.078 105.42C238.078 104.3 238.298 103.307 238.738 102.44C239.191 101.573 239.798 100.907 240.558 100.44C241.331 99.9733 242.191 99.74 243.138 99.74C243.965 99.74 244.685 99.9067 245.298 100.24C245.925 100.573 246.425 100.993 246.798 101.5V99.92H249.618V111H246.798V109.38C246.438 109.9 245.938 110.333 245.298 110.68C244.671 111.013 243.945 111.18 243.118 111.18C242.185 111.18 241.331 110.94 240.558 110.46C239.798 109.98 239.191 109.307 238.738 108.44C238.298 107.56 238.078 106.553 238.078 105.42ZM246.798 105.46C246.798 104.78 246.665 104.2 246.398 103.72C246.131 103.227 245.771 102.853 245.318 102.6C244.865 102.333 244.378 102.2 243.858 102.2C243.338 102.2 242.858 102.327 242.418 102.58C241.978 102.833 241.618 103.207 241.338 103.7C241.071 104.18 240.938 104.753 240.938 105.42C240.938 106.087 241.071 106.673 241.338 107.18C241.618 107.673 241.978 108.053 242.418 108.32C242.871 108.587 243.351 108.72 243.858 108.72C244.378 108.72 244.865 108.593 245.318 108.34C245.771 108.073 246.131 107.7 246.398 107.22C246.665 106.727 246.798 106.14 246.798 105.46ZM255.153 101.64C255.513 101.053 255.979 100.593 256.553 100.26C257.139 99.9267 257.806 99.76 258.553 99.76V102.7H257.813C256.933 102.7 256.266 102.907 255.813 103.32C255.373 103.733 255.153 104.453 255.153 105.48V111H252.353V99.92H255.153V101.64ZM263.699 102.22V107.58C263.699 107.953 263.785 108.227 263.959 108.4C264.145 108.56 264.452 108.64 264.879 108.64H266.179V111H264.419C262.059 111 260.879 109.853 260.879 107.56V102.22H259.559V99.92H260.879V97.18H263.699V99.92H266.179V102.22H263.699ZM269.613 98.6C269.119 98.6 268.706 98.4467 268.373 98.14C268.053 97.82 267.893 97.4267 267.893 96.96C267.893 96.4933 268.053 96.1067 268.373 95.8C268.706 95.48 269.119 95.32 269.613 95.32C270.106 95.32 270.513 95.48 270.833 95.8C271.166 96.1067 271.333 96.4933 271.333 96.96C271.333 97.4267 271.166 97.82 270.833 98.14C270.513 98.4467 270.106 98.6 269.613 98.6ZM270.993 99.92V111H268.193V99.92H270.993ZM277.999 111.18C277.092 111.18 276.279 111.02 275.559 110.7C274.839 110.367 274.266 109.92 273.839 109.36C273.426 108.8 273.199 108.18 273.159 107.5H275.979C276.032 107.927 276.239 108.28 276.599 108.56C276.972 108.84 277.432 108.98 277.979 108.98C278.512 108.98 278.926 108.873 279.219 108.66C279.526 108.447 279.679 108.173 279.679 107.84C279.679 107.48 279.492 107.213 279.119 107.04C278.759 106.853 278.179 106.653 277.379 106.44C276.552 106.24 275.872 106.033 275.339 105.82C274.819 105.607 274.366 105.28 273.979 104.84C273.606 104.4 273.419 103.807 273.419 103.06C273.419 102.447 273.592 101.887 273.939 101.38C274.299 100.873 274.806 100.473 275.459 100.18C276.126 99.8867 276.906 99.74 277.799 99.74C279.119 99.74 280.172 100.073 280.959 100.74C281.746 101.393 282.179 102.28 282.259 103.4H279.579C279.539 102.96 279.352 102.613 279.019 102.36C278.699 102.093 278.266 101.96 277.719 101.96C277.212 101.96 276.819 102.053 276.539 102.24C276.272 102.427 276.139 102.687 276.139 103.02C276.139 103.393 276.326 103.68 276.699 103.88C277.072 104.067 277.652 104.26 278.439 104.46C279.239 104.66 279.899 104.867 280.419 105.08C280.939 105.293 281.386 105.627 281.759 106.08C282.146 106.52 282.346 107.107 282.359 107.84C282.359 108.48 282.179 109.053 281.819 109.56C281.472 110.067 280.966 110.467 280.299 110.76C279.646 111.04 278.879 111.18 277.999 111.18ZM287.917 102.22V107.58C287.917 107.953 288.004 108.227 288.177 108.4C288.364 108.56 288.671 108.64 289.097 108.64H290.397V111H288.637C286.277 111 285.097 109.853 285.097 107.56V102.22H283.777V99.92H285.097V97.18H287.917V99.92H290.397V102.22H287.917ZM70.5248 132.22V137.58C70.5248 137.953 70.6114 138.227 70.7848 138.4C70.9714 138.56 71.2781 138.64 71.7048 138.64H73.0048V141H71.2448C68.8848 141 67.7048 139.853 67.7048 137.56V132.22H66.3848V129.92H67.7048V127.18H70.5248V129.92H73.0048V132.22H70.5248ZM81.2587 129.76C82.0987 129.76 82.8453 129.947 83.4987 130.32C84.152 130.68 84.6587 131.22 85.0187 131.94C85.392 132.647 85.5787 133.5 85.5787 134.5V141H82.7787V134.88C82.7787 134 82.5587 133.327 82.1187 132.86C81.6787 132.38 81.0787 132.14 80.3187 132.14C79.5453 132.14 78.932 132.38 78.4787 132.86C78.0387 133.327 77.8187 134 77.8187 134.88V141H75.0187V126.2H77.8187V131.3C78.1787 130.82 78.6587 130.447 79.2587 130.18C79.8587 129.9 80.5253 129.76 81.2587 129.76ZM87.5213 135.42C87.5213 134.3 87.7413 133.307 88.1813 132.44C88.6347 131.573 89.2413 130.907 90.0013 130.44C90.7747 129.973 91.6347 129.74 92.5813 129.74C93.408 129.74 94.128 129.907 94.7413 130.24C95.368 130.573 95.868 130.993 96.2413 131.5V129.92H99.0613V141H96.2413V139.38C95.8813 139.9 95.3813 140.333 94.7413 140.68C94.1147 141.013 93.388 141.18 92.5613 141.18C91.628 141.18 90.7747 140.94 90.0013 140.46C89.2413 139.98 88.6347 139.307 88.1813 138.44C87.7413 137.56 87.5213 136.553 87.5213 135.42ZM96.2413 135.46C96.2413 134.78 96.108 134.2 95.8413 133.72C95.5747 133.227 95.2147 132.853 94.7613 132.6C94.308 132.333 93.8213 132.2 93.3013 132.2C92.7813 132.2 92.3013 132.327 91.8613 132.58C91.4213 132.833 91.0613 133.207 90.7813 133.7C90.5147 134.18 90.3813 134.753 90.3813 135.42C90.3813 136.087 90.5147 136.673 90.7813 137.18C91.0613 137.673 91.4213 138.053 91.8613 138.32C92.3147 138.587 92.7947 138.72 93.3013 138.72C93.8213 138.72 94.308 138.593 94.7613 138.34C95.2147 138.073 95.5747 137.7 95.8413 137.22C96.108 136.727 96.2413 136.14 96.2413 135.46ZM105.056 132.22V137.58C105.056 137.953 105.143 138.227 105.316 138.4C105.503 138.56 105.809 138.64 106.236 138.64H107.536V141H105.776C103.416 141 102.236 139.853 102.236 137.56V132.22H100.916V129.92H102.236V127.18H105.056V129.92H107.536V132.22H105.056ZM119.396 132.22H117.456V141H114.616V132.22H113.356V129.92H114.616V129.36C114.616 128 115.002 127 115.776 126.36C116.549 125.72 117.716 125.42 119.276 125.46V127.82C118.596 127.807 118.122 127.92 117.856 128.16C117.589 128.4 117.456 128.833 117.456 129.46V129.92H119.396V132.22ZM122.63 128.6C122.137 128.6 121.723 128.447 121.39 128.14C121.07 127.82 120.91 127.427 120.91 126.96C120.91 126.493 121.07 126.107 121.39 125.8C121.723 125.48 122.137 125.32 122.63 125.32C123.123 125.32 123.53 125.48 123.85 125.8C124.183 126.107 124.35 126.493 124.35 126.96C124.35 127.427 124.183 127.82 123.85 128.14C123.53 128.447 123.123 128.6 122.63 128.6ZM124.01 129.92V141H121.21V129.92H124.01ZM130.036 132.22V137.58C130.036 137.953 130.123 138.227 130.296 138.4C130.483 138.56 130.79 138.64 131.216 138.64H132.516V141H130.756C128.396 141 127.216 139.853 127.216 137.56V132.22H125.896V129.92H127.216V127.18H130.036V129.92H132.516V132.22H130.036ZM138.77 141.18C137.864 141.18 137.05 141.02 136.33 140.7C135.61 140.367 135.037 139.92 134.61 139.36C134.197 138.8 133.97 138.18 133.93 137.5H136.75C136.804 137.927 137.01 138.28 137.37 138.56C137.744 138.84 138.204 138.98 138.75 138.98C139.284 138.98 139.697 138.873 139.99 138.66C140.297 138.447 140.45 138.173 140.45 137.84C140.45 137.48 140.264 137.213 139.89 137.04C139.53 136.853 138.95 136.653 138.15 136.44C137.324 136.24 136.644 136.033 136.11 135.82C135.59 135.607 135.137 135.28 134.75 134.84C134.377 134.4 134.19 133.807 134.19 133.06C134.19 132.447 134.364 131.887 134.71 131.38C135.07 130.873 135.577 130.473 136.23 130.18C136.897 129.887 137.677 129.74 138.57 129.74C139.89 129.74 140.944 130.073 141.73 130.74C142.517 131.393 142.95 132.28 143.03 133.4H140.35C140.31 132.96 140.124 132.613 139.79 132.36C139.47 132.093 139.037 131.96 138.49 131.96C137.984 131.96 137.59 132.053 137.31 132.24C137.044 132.427 136.91 132.687 136.91 133.02C136.91 133.393 137.097 133.68 137.47 133.88C137.844 134.067 138.424 134.26 139.21 134.46C140.01 134.66 140.67 134.867 141.19 135.08C141.71 135.293 142.157 135.627 142.53 136.08C142.917 136.52 143.117 137.107 143.13 137.84C143.13 138.48 142.95 139.053 142.59 139.56C142.244 140.067 141.737 140.467 141.07 140.76C140.417 141.04 139.65 141.18 138.77 141.18ZM160.794 129.92L153.934 146.24H150.954L153.354 140.72L148.914 129.92H152.054L154.914 137.66L157.814 129.92H160.794ZM167.224 141.18C166.157 141.18 165.197 140.947 164.344 140.48C163.49 140 162.817 139.327 162.324 138.46C161.844 137.593 161.604 136.593 161.604 135.46C161.604 134.327 161.85 133.327 162.344 132.46C162.85 131.593 163.537 130.927 164.404 130.46C165.27 129.98 166.237 129.74 167.304 129.74C168.37 129.74 169.337 129.98 170.204 130.46C171.07 130.927 171.75 131.593 172.244 132.46C172.75 133.327 173.004 134.327 173.004 135.46C173.004 136.593 172.744 137.593 172.224 138.46C171.717 139.327 171.024 140 170.144 140.48C169.277 140.947 168.304 141.18 167.224 141.18ZM167.224 138.74C167.73 138.74 168.204 138.62 168.644 138.38C169.097 138.127 169.457 137.753 169.724 137.26C169.99 136.767 170.124 136.167 170.124 135.46C170.124 134.407 169.844 133.6 169.284 133.04C168.737 132.467 168.064 132.18 167.264 132.18C166.464 132.18 165.79 132.467 165.244 133.04C164.71 133.6 164.444 134.407 164.444 135.46C164.444 136.513 164.704 137.327 165.224 137.9C165.757 138.46 166.424 138.74 167.224 138.74ZM185.518 129.92V141H182.698V139.6C182.338 140.08 181.864 140.46 181.278 140.74C180.704 141.007 180.078 141.14 179.398 141.14C178.531 141.14 177.764 140.96 177.098 140.6C176.431 140.227 175.904 139.687 175.518 138.98C175.144 138.26 174.958 137.407 174.958 136.42V129.92H177.758V136.02C177.758 136.9 177.978 137.58 178.418 138.06C178.858 138.527 179.458 138.76 180.218 138.76C180.991 138.76 181.598 138.527 182.038 138.06C182.478 137.58 182.698 136.9 182.698 136.02V129.92H185.518ZM191.08 131.64C191.44 131.053 191.907 130.593 192.48 130.26C193.067 129.927 193.734 129.76 194.48 129.76V132.7H193.74C192.86 132.7 192.194 132.907 191.74 133.32C191.3 133.733 191.08 134.453 191.08 135.48V141H188.28V129.92H191.08V131.64ZM207.272 129.76C208.592 129.76 209.659 130.18 210.472 131.02C211.285 131.847 211.692 133.007 211.692 134.5V141H208.892V134.88C208.892 134 208.672 133.327 208.232 132.86C207.792 132.38 207.192 132.14 206.432 132.14C205.659 132.14 205.045 132.38 204.592 132.86C204.152 133.327 203.932 134 203.932 134.88V141H201.132V129.92H203.932V131.3C204.305 130.82 204.779 130.447 205.352 130.18C205.939 129.9 206.579 129.76 207.272 129.76ZM224.655 135.22C224.655 135.62 224.628 135.98 224.575 136.3H216.475C216.541 137.1 216.821 137.727 217.315 138.18C217.808 138.633 218.415 138.86 219.135 138.86C220.175 138.86 220.915 138.413 221.355 137.52H224.375C224.055 138.587 223.441 139.467 222.535 140.16C221.628 140.84 220.515 141.18 219.195 141.18C218.128 141.18 217.168 140.947 216.315 140.48C215.475 140 214.815 139.327 214.335 138.46C213.868 137.593 213.635 136.593 213.635 135.46C213.635 134.313 213.868 133.307 214.335 132.44C214.801 131.573 215.455 130.907 216.295 130.44C217.135 129.973 218.101 129.74 219.195 129.74C220.248 129.74 221.188 129.967 222.015 130.42C222.855 130.873 223.501 131.52 223.955 132.36C224.421 133.187 224.655 134.14 224.655 135.22ZM221.755 134.42C221.741 133.7 221.481 133.127 220.975 132.7C220.468 132.26 219.848 132.04 219.115 132.04C218.421 132.04 217.835 132.253 217.355 132.68C216.888 133.093 216.601 133.673 216.495 134.42H221.755ZM236.998 135.22C236.998 135.62 236.972 135.98 236.918 136.3H228.818C228.885 137.1 229.165 137.727 229.658 138.18C230.152 138.633 230.758 138.86 231.478 138.86C232.518 138.86 233.258 138.413 233.698 137.52H236.718C236.398 138.587 235.785 139.467 234.878 140.16C233.972 140.84 232.858 141.18 231.538 141.18C230.472 141.18 229.512 140.947 228.658 140.48C227.818 140 227.158 139.327 226.678 138.46C226.212 137.593 225.978 136.593 225.978 135.46C225.978 134.313 226.212 133.307 226.678 132.44C227.145 131.573 227.798 130.907 228.638 130.44C229.478 129.973 230.445 129.74 231.538 129.74C232.592 129.74 233.532 129.967 234.358 130.42C235.198 130.873 235.845 131.52 236.298 132.36C236.765 133.187 236.998 134.14 236.998 135.22ZM234.098 134.42C234.085 133.7 233.825 133.127 233.318 132.7C232.812 132.26 232.192 132.04 231.458 132.04C230.765 132.04 230.178 132.253 229.698 132.68C229.232 133.093 228.945 133.673 228.838 134.42H234.098ZM238.322 135.42C238.322 134.3 238.542 133.307 238.982 132.44C239.435 131.573 240.049 130.907 240.822 130.44C241.595 129.973 242.455 129.74 243.402 129.74C244.122 129.74 244.809 129.9 245.462 130.22C246.115 130.527 246.635 130.94 247.022 131.46V126.2H249.862V141H247.022V139.36C246.675 139.907 246.189 140.347 245.562 140.68C244.935 141.013 244.209 141.18 243.382 141.18C242.449 141.18 241.595 140.94 240.822 140.46C240.049 139.98 239.435 139.307 238.982 138.44C238.542 137.56 238.322 136.553 238.322 135.42ZM247.042 135.46C247.042 134.78 246.909 134.2 246.642 133.72C246.375 133.227 246.015 132.853 245.562 132.6C245.109 132.333 244.622 132.2 244.102 132.2C243.582 132.2 243.102 132.327 242.662 132.58C242.222 132.833 241.862 133.207 241.582 133.7C241.315 134.18 241.182 134.753 241.182 135.42C241.182 136.087 241.315 136.673 241.582 137.18C241.862 137.673 242.222 138.053 242.662 138.32C243.115 138.587 243.595 138.72 244.102 138.72C244.622 138.72 245.109 138.593 245.562 138.34C246.015 138.073 246.375 137.7 246.642 137.22C246.909 136.727 247.042 136.14 247.042 135.46ZM256.837 141.18C255.93 141.18 255.117 141.02 254.397 140.7C253.677 140.367 253.103 139.92 252.677 139.36C252.263 138.8 252.037 138.18 251.997 137.5H254.817C254.87 137.927 255.077 138.28 255.437 138.56C255.81 138.84 256.27 138.98 256.817 138.98C257.35 138.98 257.763 138.873 258.057 138.66C258.363 138.447 258.517 138.173 258.517 137.84C258.517 137.48 258.33 137.213 257.957 137.04C257.597 136.853 257.017 136.653 256.217 136.44C255.39 136.24 254.71 136.033 254.177 135.82C253.657 135.607 253.203 135.28 252.817 134.84C252.443 134.4 252.257 133.807 252.257 133.06C252.257 132.447 252.43 131.887 252.777 131.38C253.137 130.873 253.643 130.473 254.297 130.18C254.963 129.887 255.743 129.74 256.637 129.74C257.957 129.74 259.01 130.073 259.797 130.74C260.583 131.393 261.017 132.28 261.097 133.4H258.417C258.377 132.96 258.19 132.613 257.857 132.36C257.537 132.093 257.103 131.96 256.557 131.96C256.05 131.96 255.657 132.053 255.377 132.24C255.11 132.427 254.977 132.687 254.977 133.02C254.977 133.393 255.163 133.68 255.537 133.88C255.91 134.067 256.49 134.26 257.277 134.46C258.077 134.66 258.737 134.867 259.257 135.08C259.777 135.293 260.223 135.627 260.597 136.08C260.983 136.52 261.183 137.107 261.197 137.84C261.197 138.48 261.017 139.053 260.657 139.56C260.31 140.067 259.803 140.467 259.137 140.76C258.483 141.04 257.717 141.18 256.837 141.18Z" fill="#0048D3"/>
<path d="M116.032 167C116.032 165.627 116.339 164.4 116.952 163.32C117.579 162.227 118.426 161.38 119.492 160.78C120.572 160.167 121.779 159.86 123.112 159.86C124.672 159.86 126.039 160.26 127.212 161.06C128.386 161.86 129.206 162.967 129.672 164.38H126.452C126.132 163.713 125.679 163.213 125.092 162.88C124.519 162.547 123.852 162.38 123.092 162.38C122.279 162.38 121.552 162.573 120.912 162.96C120.286 163.333 119.792 163.867 119.432 164.56C119.086 165.253 118.912 166.067 118.912 167C118.912 167.92 119.086 168.733 119.432 169.44C119.792 170.133 120.286 170.673 120.912 171.06C121.552 171.433 122.279 171.62 123.092 171.62C123.852 171.62 124.519 171.453 125.092 171.12C125.679 170.773 126.132 170.267 126.452 169.6H129.672C129.206 171.027 128.386 172.14 127.212 172.94C126.052 173.727 124.686 174.12 123.112 174.12C121.779 174.12 120.572 173.82 119.492 173.22C118.426 172.607 117.579 171.76 116.952 170.68C116.339 169.6 116.032 168.373 116.032 167ZM134.864 159.2V174H132.064V159.2H134.864ZM139.05 161.6C138.557 161.6 138.144 161.447 137.81 161.14C137.49 160.82 137.33 160.427 137.33 159.96C137.33 159.493 137.49 159.107 137.81 158.8C138.144 158.48 138.557 158.32 139.05 158.32C139.544 158.32 139.95 158.48 140.27 158.8C140.604 159.107 140.77 159.493 140.77 159.96C140.77 160.427 140.604 160.82 140.27 161.14C139.95 161.447 139.544 161.6 139.05 161.6ZM140.43 162.92V174H137.63V162.92H140.43ZM142.477 168.46C142.477 167.313 142.71 166.313 143.177 165.46C143.643 164.593 144.29 163.927 145.117 163.46C145.943 162.98 146.89 162.74 147.957 162.74C149.33 162.74 150.463 163.087 151.357 163.78C152.263 164.46 152.87 165.42 153.177 166.66H150.157C149.997 166.18 149.723 165.807 149.337 165.54C148.963 165.26 148.497 165.12 147.937 165.12C147.137 165.12 146.503 165.413 146.037 166C145.57 166.573 145.337 167.393 145.337 168.46C145.337 169.513 145.57 170.333 146.037 170.92C146.503 171.493 147.137 171.78 147.937 171.78C149.07 171.78 149.81 171.273 150.157 170.26H153.177C152.87 171.46 152.263 172.413 151.357 173.12C150.45 173.827 149.317 174.18 147.957 174.18C146.89 174.18 145.943 173.947 145.117 173.48C144.29 173 143.643 172.333 143.177 171.48C142.71 170.613 142.477 169.607 142.477 168.46ZM161.788 174L158.028 169.28V174H155.228V159.2H158.028V167.62L161.748 162.92H165.388L160.508 168.48L165.428 174H161.788ZM177.913 162.76C178.753 162.76 179.5 162.947 180.153 163.32C180.807 163.68 181.313 164.22 181.673 164.94C182.047 165.647 182.233 166.5 182.233 167.5V174H179.433V167.88C179.433 167 179.213 166.327 178.773 165.86C178.333 165.38 177.733 165.14 176.973 165.14C176.2 165.14 175.587 165.38 175.133 165.86C174.693 166.327 174.473 167 174.473 167.88V174H171.673V159.2H174.473V164.3C174.833 163.82 175.313 163.447 175.913 163.18C176.513 162.9 177.18 162.76 177.913 162.76ZM195.196 168.22C195.196 168.62 195.169 168.98 195.116 169.3H187.016C187.083 170.1 187.363 170.727 187.856 171.18C188.349 171.633 188.956 171.86 189.676 171.86C190.716 171.86 191.456 171.413 191.896 170.52H194.916C194.596 171.587 193.983 172.467 193.076 173.16C192.169 173.84 191.056 174.18 189.736 174.18C188.669 174.18 187.709 173.947 186.856 173.48C186.016 173 185.356 172.327 184.876 171.46C184.409 170.593 184.176 169.593 184.176 168.46C184.176 167.313 184.409 166.307 184.876 165.44C185.343 164.573 185.996 163.907 186.836 163.44C187.676 162.973 188.643 162.74 189.736 162.74C190.789 162.74 191.729 162.967 192.556 163.42C193.396 163.873 194.043 164.52 194.496 165.36C194.963 166.187 195.196 167.14 195.196 168.22ZM192.296 167.42C192.283 166.7 192.023 166.127 191.516 165.7C191.009 165.26 190.389 165.04 189.656 165.04C188.963 165.04 188.376 165.253 187.896 165.68C187.429 166.093 187.143 166.673 187.036 167.42H192.296ZM200.04 164.64C200.4 164.053 200.866 163.593 201.44 163.26C202.026 162.927 202.693 162.76 203.44 162.76V165.7H202.7C201.82 165.7 201.153 165.907 200.7 166.32C200.26 166.733 200.04 167.453 200.04 168.48V174H197.24V162.92H200.04V164.64ZM215.626 168.22C215.626 168.62 215.599 168.98 215.546 169.3H207.446C207.512 170.1 207.792 170.727 208.286 171.18C208.779 171.633 209.386 171.86 210.106 171.86C211.146 171.86 211.886 171.413 212.326 170.52H215.346C215.026 171.587 214.412 172.467 213.506 173.16C212.599 173.84 211.486 174.18 210.166 174.18C209.099 174.18 208.139 173.947 207.286 173.48C206.446 173 205.786 172.327 205.306 171.46C204.839 170.593 204.606 169.593 204.606 168.46C204.606 167.313 204.839 166.307 205.306 165.44C205.772 164.573 206.426 163.907 207.266 163.44C208.106 162.973 209.072 162.74 210.166 162.74C211.219 162.74 212.159 162.967 212.986 163.42C213.826 163.873 214.472 164.52 214.926 165.36C215.392 166.187 215.626 167.14 215.626 168.22ZM212.726 167.42C212.712 166.7 212.452 166.127 211.946 165.7C211.439 165.26 210.819 165.04 210.086 165.04C209.392 165.04 208.806 165.253 208.326 165.68C207.859 166.093 207.572 166.673 207.466 167.42H212.726Z" fill="#0048D3"/>
<path d="M90.8511 216.312C90.8511 217.231 90.6345 218.097 90.2011 218.912C89.7678 219.727 89.0745 220.394 88.1211 220.914C87.1678 221.417 85.9458 221.668 84.4551 221.668H81.1791V229H78.2151V210.93H84.4551C85.8418 210.93 87.0118 211.173 87.9651 211.658C88.9358 212.126 89.6551 212.767 90.1231 213.582C90.6085 214.397 90.8511 215.307 90.8511 216.312ZM84.4551 219.25C85.5818 219.25 86.4225 218.999 86.9771 218.496C87.5318 217.976 87.8091 217.248 87.8091 216.312C87.8091 214.336 86.6911 213.348 84.4551 213.348H81.1791V219.25H84.4551ZM99.892 229.234C98.54 229.234 97.318 228.931 96.226 228.324C95.134 227.7 94.276 226.833 93.652 225.724C93.028 224.597 92.716 223.297 92.716 221.824C92.716 220.368 93.0367 219.077 93.678 217.95C94.3194 216.823 95.1947 215.957 96.304 215.35C97.4134 214.743 98.6527 214.44 100.022 214.44C101.391 214.44 102.631 214.743 103.74 215.35C104.849 215.957 105.725 216.823 106.366 217.95C107.007 219.077 107.328 220.368 107.328 221.824C107.328 223.28 106.999 224.571 106.34 225.698C105.681 226.825 104.78 227.7 103.636 228.324C102.509 228.931 101.261 229.234 99.892 229.234ZM99.892 226.66C100.655 226.66 101.365 226.478 102.024 226.114C102.7 225.75 103.246 225.204 103.662 224.476C104.078 223.748 104.286 222.864 104.286 221.824C104.286 220.784 104.087 219.909 103.688 219.198C103.289 218.47 102.761 217.924 102.102 217.56C101.443 217.196 100.733 217.014 99.97 217.014C99.2074 217.014 98.4967 217.196 97.838 217.56C97.1967 217.924 96.6854 218.47 96.304 219.198C95.9227 219.909 95.732 220.784 95.732 221.824C95.732 223.367 96.122 224.563 96.902 225.412C97.6994 226.244 98.696 226.66 99.892 226.66ZM115.458 229.234C114.331 229.234 113.317 229.035 112.416 228.636C111.532 228.22 110.83 227.665 110.31 226.972C109.79 226.261 109.513 225.473 109.478 224.606H112.546C112.598 225.213 112.884 225.724 113.404 226.14C113.941 226.539 114.609 226.738 115.406 226.738C116.238 226.738 116.879 226.582 117.33 226.27C117.798 225.941 118.032 225.525 118.032 225.022C118.032 224.485 117.772 224.086 117.252 223.826C116.749 223.566 115.943 223.28 114.834 222.968C113.759 222.673 112.884 222.387 112.208 222.11C111.532 221.833 110.943 221.408 110.44 220.836C109.955 220.264 109.712 219.51 109.712 218.574C109.712 217.811 109.937 217.118 110.388 216.494C110.839 215.853 111.48 215.35 112.312 214.986C113.161 214.622 114.132 214.44 115.224 214.44C116.853 214.44 118.162 214.856 119.15 215.688C120.155 216.503 120.693 217.621 120.762 219.042H117.798C117.746 218.401 117.486 217.889 117.018 217.508C116.55 217.127 115.917 216.936 115.12 216.936C114.34 216.936 113.742 217.083 113.326 217.378C112.91 217.673 112.702 218.063 112.702 218.548C112.702 218.929 112.841 219.25 113.118 219.51C113.395 219.77 113.733 219.978 114.132 220.134C114.531 220.273 115.12 220.455 115.9 220.68C116.94 220.957 117.789 221.243 118.448 221.538C119.124 221.815 119.705 222.231 120.19 222.786C120.675 223.341 120.927 224.077 120.944 224.996C120.944 225.811 120.719 226.539 120.268 227.18C119.817 227.821 119.176 228.324 118.344 228.688C117.529 229.052 116.567 229.234 115.458 229.234ZM127.605 217.092V225.022C127.605 225.559 127.726 225.949 127.969 226.192C128.229 226.417 128.662 226.53 129.269 226.53H131.089V229H128.749C127.414 229 126.391 228.688 125.681 228.064C124.97 227.44 124.615 226.426 124.615 225.022V217.092H122.925V214.674H124.615V211.112H127.605V214.674H131.089V217.092H127.605ZM139.587 221.772C139.587 220.333 139.881 219.059 140.471 217.95C141.077 216.841 141.892 215.983 142.915 215.376C143.955 214.752 145.099 214.44 146.347 214.44C147.473 214.44 148.453 214.665 149.285 215.116C150.134 215.549 150.81 216.095 151.313 216.754V214.674H154.303V229H151.313V226.868C150.81 227.544 150.125 228.107 149.259 228.558C148.392 229.009 147.404 229.234 146.295 229.234C145.064 229.234 143.937 228.922 142.915 228.298C141.892 227.657 141.077 226.773 140.471 225.646C139.881 224.502 139.587 223.211 139.587 221.772ZM151.313 221.824C151.313 220.836 151.105 219.978 150.689 219.25C150.29 218.522 149.761 217.967 149.103 217.586C148.444 217.205 147.733 217.014 146.971 217.014C146.208 217.014 145.497 217.205 144.839 217.586C144.18 217.95 143.643 218.496 143.227 219.224C142.828 219.935 142.629 220.784 142.629 221.772C142.629 222.76 142.828 223.627 143.227 224.372C143.643 225.117 144.18 225.689 144.839 226.088C145.515 226.469 146.225 226.66 146.971 226.66C147.733 226.66 148.444 226.469 149.103 226.088C149.761 225.707 150.29 225.152 150.689 224.424C151.105 223.679 151.313 222.812 151.313 221.824ZM167.914 216.754C168.347 216.026 168.919 215.463 169.63 215.064C170.358 214.648 171.216 214.44 172.204 214.44V217.508H171.45C170.288 217.508 169.404 217.803 168.798 218.392C168.208 218.981 167.914 220.004 167.914 221.46V229H164.95V214.674H167.914V216.754ZM188.058 221.486C188.058 222.023 188.023 222.509 187.954 222.942H177.008C177.095 224.086 177.519 225.005 178.282 225.698C179.045 226.391 179.981 226.738 181.09 226.738C182.685 226.738 183.811 226.071 184.47 224.736H187.668C187.235 226.053 186.446 227.137 185.302 227.986C184.175 228.818 182.771 229.234 181.09 229.234C179.721 229.234 178.49 228.931 177.398 228.324C176.323 227.7 175.474 226.833 174.85 225.724C174.243 224.597 173.94 223.297 173.94 221.824C173.94 220.351 174.235 219.059 174.824 217.95C175.431 216.823 176.271 215.957 177.346 215.35C178.438 214.743 179.686 214.44 181.09 214.44C182.442 214.44 183.647 214.735 184.704 215.324C185.761 215.913 186.585 216.745 187.174 217.82C187.763 218.877 188.058 220.099 188.058 221.486ZM184.964 220.55C184.947 219.458 184.557 218.583 183.794 217.924C183.031 217.265 182.087 216.936 180.96 216.936C179.937 216.936 179.062 217.265 178.334 217.924C177.606 218.565 177.173 219.441 177.034 220.55H184.964ZM189.987 221.772C189.987 220.333 190.282 219.059 190.871 217.95C191.478 216.841 192.292 215.983 193.315 215.376C194.355 214.752 195.508 214.44 196.773 214.44C197.882 214.44 198.862 214.665 199.711 215.116C200.578 215.567 201.245 216.113 201.713 216.754V214.674H204.703V235.812H201.713V226.92C201.245 227.561 200.569 228.107 199.685 228.558C198.801 229.009 197.796 229.234 196.669 229.234C195.438 229.234 194.312 228.922 193.289 228.298C192.284 227.657 191.478 226.773 190.871 225.646C190.282 224.502 189.987 223.211 189.987 221.772ZM201.713 221.824C201.713 220.836 201.505 219.978 201.089 219.25C200.69 218.522 200.162 217.967 199.503 217.586C198.844 217.205 198.134 217.014 197.371 217.014C196.608 217.014 195.898 217.205 195.239 217.586C194.58 217.95 194.043 218.496 193.627 219.224C193.228 219.935 193.029 220.784 193.029 221.772C193.029 222.76 193.228 223.627 193.627 224.372C194.043 225.117 194.58 225.689 195.239 226.088C195.915 226.469 196.626 226.66 197.371 226.66C198.134 226.66 198.844 226.469 199.503 226.088C200.162 225.707 200.69 225.152 201.089 224.424C201.505 223.679 201.713 222.812 201.713 221.824ZM221.57 214.674V229H218.606V227.31C218.138 227.899 217.523 228.367 216.76 228.714C216.015 229.043 215.217 229.208 214.368 229.208C213.241 229.208 212.227 228.974 211.326 228.506C210.442 228.038 209.74 227.345 209.22 226.426C208.717 225.507 208.466 224.398 208.466 223.098V214.674H211.404V222.656C211.404 223.939 211.725 224.927 212.366 225.62C213.007 226.296 213.883 226.634 214.992 226.634C216.101 226.634 216.977 226.296 217.618 225.62C218.277 224.927 218.606 223.939 218.606 222.656V214.674H221.57ZM238.611 221.486C238.611 222.023 238.576 222.509 238.507 222.942H227.561C227.647 224.086 228.072 225.005 228.835 225.698C229.597 226.391 230.533 226.738 231.643 226.738C233.237 226.738 234.364 226.071 235.023 224.736H238.221C237.787 226.053 236.999 227.137 235.855 227.986C234.728 228.818 233.324 229.234 231.643 229.234C230.273 229.234 229.043 228.931 227.951 228.324C226.876 227.7 226.027 226.833 225.403 225.724C224.796 224.597 224.493 223.297 224.493 221.824C224.493 220.351 224.787 219.059 225.377 217.95C225.983 216.823 226.824 215.957 227.899 215.35C228.991 214.743 230.239 214.44 231.643 214.44C232.995 214.44 234.199 214.735 235.257 215.324C236.314 215.913 237.137 216.745 237.727 217.82C238.316 218.877 238.611 220.099 238.611 221.486ZM235.517 220.55C235.499 219.458 235.109 218.583 234.347 217.924C233.584 217.265 232.639 216.936 231.513 216.936C230.49 216.936 229.615 217.265 228.887 217.924C228.159 218.565 227.725 219.441 227.587 220.55H235.517ZM246.728 229.234C245.601 229.234 244.587 229.035 243.686 228.636C242.802 228.22 242.1 227.665 241.58 226.972C241.06 226.261 240.782 225.473 240.748 224.606H243.816C243.868 225.213 244.154 225.724 244.674 226.14C245.211 226.539 245.878 226.738 246.676 226.738C247.508 226.738 248.149 226.582 248.6 226.27C249.068 225.941 249.302 225.525 249.302 225.022C249.302 224.485 249.042 224.086 248.522 223.826C248.019 223.566 247.213 223.28 246.104 222.968C245.029 222.673 244.154 222.387 243.478 222.11C242.802 221.833 242.212 221.408 241.71 220.836C241.224 220.264 240.982 219.51 240.982 218.574C240.982 217.811 241.207 217.118 241.658 216.494C242.108 215.853 242.75 215.35 243.582 214.986C244.431 214.622 245.402 214.44 246.494 214.44C248.123 214.44 249.432 214.856 250.42 215.688C251.425 216.503 251.962 217.621 252.032 219.042H249.068C249.016 218.401 248.756 217.889 248.288 217.508C247.82 217.127 247.187 216.936 246.39 216.936C245.61 216.936 245.012 217.083 244.596 217.378C244.18 217.673 243.972 218.063 243.972 218.548C243.972 218.929 244.11 219.25 244.388 219.51C244.665 219.77 245.003 219.978 245.402 220.134C245.8 220.273 246.39 220.455 247.17 220.68C248.21 220.957 249.059 221.243 249.718 221.538C250.394 221.815 250.974 222.231 251.46 222.786C251.945 223.341 252.196 224.077 252.214 224.996C252.214 225.811 251.988 226.539 251.538 227.18C251.087 227.821 250.446 228.324 249.614 228.688C248.799 229.052 247.837 229.234 246.728 229.234ZM258.874 217.092V225.022C258.874 225.559 258.996 225.949 259.238 226.192C259.498 226.417 259.932 226.53 260.538 226.53H262.358V229H260.018C258.684 229 257.661 228.688 256.95 228.064C256.24 227.44 255.884 226.426 255.884 225.022V217.092H254.194V214.674H255.884V211.112H258.874V214.674H262.358V217.092H258.874Z" fill="white"/>
<defs>
<filter id="filter0_d_317_877" x="0" y="0" width="339.405" height="297" filterUnits="userSpaceOnUse" color-interpolation-filters="sRGB">
<feFlood flood-opacity="0" result="BackgroundImageFix"/>
<feColorMatrix in="SourceAlpha" type="matrix" values="0 0 0 0 0 0 0 0 0 0 0 0 0 0 0 0 0 0 127 0" result="hardAlpha"/>
<feOffset dy="2"/>
<feGaussianBlur stdDeviation="7.5"/>
<feComposite in2="hardAlpha" operator="out"/>
<feColorMatrix type="matrix" values="0 0 0 0 0 0 0 0 0 0 0 0 0 0 0 0 0 0 0.27 0"/>
<feBlend mode="normal" in2="BackgroundImageFix" result="effect1_dropShadow_317_877"/>
<feBlend mode="normal" in="SourceGraphic" in2="effect1_dropShadow_317_877" result="shape"/>
</filter>
<filter id="filter1_d_317_877" x="36.7297" y="168" width="265.946" height="109" filterUnits="userSpaceOnUse" color-interpolation-filters="sRGB">
<feFlood flood-opacity="0" result="BackgroundImageFix"/>
<feColorMatrix in="SourceAlpha" type="matrix" values="0 0 0 0 0 0 0 0 0 0 0 0 0 0 0 0 0 0 127 0" result="hardAlpha"/>
<feOffset/>
<feGaussianBlur stdDeviation="12"/>
<feComposite in2="hardAlpha" operator="out"/>
<feColorMatrix type="matrix" values="0 0 0 0 0 0 0 0 0 0 0 0 0 0 0 0 0 0 0.14 0"/>
<feBlend mode="normal" in2="BackgroundImageFix" result="effect1_dropShadow_317_877"/>
<feBlend mode="normal" in="SourceGraphic" in2="effect1_dropShadow_317_877" result="shape"/>
</filter>
</defs>
</svg>
