<svg width="1473" height="767" viewBox="0 0 1473 767" fill="none" xmlns="http://www.w3.org/2000/svg">
<path fill-rule="evenodd" clip-rule="evenodd" d="M304.506 48.3869C365.592 53.757 432.12 89.4093 450.822 148.319C468.51 204.034 404.675 248.941 385.792 304.43C370.746 348.646 386.144 402.328 353.19 435.228C314.738 473.615 258.774 490.87 205.208 484.712C145.811 477.883 85.2523 452.384 54.2729 400.862C23.5847 349.824 29.9279 284.263 50.9934 228.237C69.4587 179.127 116.286 152.87 158.878 122.654C205.152 89.8257 248.316 43.4472 304.506 48.3869Z" stroke="#0048D3" stroke-width="2.31282"/>
<path fill-rule="evenodd" clip-rule="evenodd" d="M298.879 62.2378C351.703 66.8816 409.233 97.7118 425.406 148.653C440.701 196.833 385.5 235.666 369.171 283.65C356.16 321.885 369.476 368.307 340.978 396.756C307.728 429.951 259.333 444.873 213.012 439.547C161.648 433.642 109.281 411.592 82.4916 367.039C55.9541 322.904 61.4393 266.21 79.6557 217.762C95.6234 175.294 136.117 152.589 172.949 126.46C212.964 98.0719 250.289 57.9662 298.879 62.2378Z" fill="#0048D3"/>
<path fill-rule="evenodd" clip-rule="evenodd" d="M1187.31 61.2598C1247.33 69.7631 1278.59 130.428 1322.83 171.865C1369.86 215.905 1457.69 243.412 1450.11 307.391C1442.41 372.448 1344.64 372.493 1294.13 414.211C1253.12 448.083 1238.19 508.934 1187.31 524.444C1120.62 544.773 1027.62 564.416 986.801 507.897C945.166 450.244 1026.78 378.406 1030.56 307.391C1033.9 244.484 973.2 180.259 1007.04 127.123C1042.76 71.0277 1121.46 51.9305 1187.31 61.2598Z" fill="#0048D3"/>
<path fill-rule="evenodd" clip-rule="evenodd" d="M1185.25 29.562C1250.62 39.2026 1284.67 107.981 1332.86 154.96C1384.08 204.89 1479.75 236.076 1471.5 308.612C1463.11 382.37 1356.62 382.421 1301.6 429.719C1256.93 468.121 1240.67 537.11 1185.25 554.695C1112.61 577.743 1011.31 600.013 966.854 535.935C921.504 470.571 1010.4 389.124 1014.51 308.612C1018.16 237.291 952.04 164.476 988.898 104.234C1027.81 40.6363 1113.53 18.985 1185.25 29.562Z" stroke="#0048D3" stroke-width="2"/>
<path fill-rule="evenodd" clip-rule="evenodd" d="M621.349 461.996C665.721 454.724 717.924 437.69 751.47 464.794C785.331 492.152 771.51 540.885 769.601 581.778C767.813 620.066 772.523 663.552 740.986 689.335C710.069 714.612 662.97 706.35 621.349 702.983C584.828 700.029 551.536 690.44 521.462 671.579C482.599 647.208 425.612 624.319 428.077 581.778C430.547 539.16 492.271 525.09 531.353 500.869C559.839 483.215 587.312 467.574 621.349 461.996Z" fill="#0048D3"/>
<path fill-rule="evenodd" clip-rule="evenodd" d="M625.113 434.796C677.692 425.827 739.552 404.816 779.303 438.248C819.427 471.993 803.05 532.103 800.787 582.543C798.669 629.77 804.249 683.409 766.88 715.211C730.244 746.389 674.433 736.198 625.113 732.046C581.836 728.402 542.387 716.574 506.749 693.31C460.698 663.248 393.171 635.016 396.092 582.543C399.018 529.975 472.159 512.621 518.471 482.745C552.225 460.969 584.78 441.677 625.113 434.796Z" stroke="#0048D3" stroke-width="2"/>
</svg>
