<svg width="932" height="300" viewBox="0 0 932 300" fill="none" xmlns="http://www.w3.org/2000/svg">
<g filter="url(#filter0_d_297_3)">
<rect x="24" y="24" width="884" height="246" rx="26.6791" fill="white"/>
<rect x="24.0534" y="24.0534" width="883.893" height="245.893" rx="26.6257" stroke="black" stroke-width="0.106716"/>
</g>
<rect x="99.2349" y="94.5707" width="733.142" height="77.903" rx="12.2724" fill="white" stroke="#0048D3" stroke-width="1.06716"/>
<path d="M277.985 173.007V94.0367" stroke="#9B9B9B" stroke-width="1.06716"/>
<path d="M118.073 141.425C116.894 141.425 115.836 141.22 114.897 140.811C113.975 140.384 113.249 139.803 112.72 139.069C112.19 138.318 111.917 137.456 111.9 136.482H114.384C114.47 137.319 114.811 138.028 115.409 138.608C116.024 139.172 116.911 139.453 118.073 139.453C119.182 139.453 120.053 139.18 120.685 138.634C121.334 138.07 121.658 137.353 121.658 136.482C121.658 135.799 121.47 135.244 121.095 134.817C120.719 134.391 120.25 134.066 119.686 133.844C119.123 133.622 118.363 133.383 117.407 133.127C116.228 132.82 115.281 132.512 114.564 132.205C113.864 131.898 113.257 131.42 112.745 130.771C112.25 130.105 112.003 129.217 112.003 128.107C112.003 127.134 112.25 126.272 112.745 125.52C113.24 124.769 113.932 124.189 114.82 123.779C115.725 123.369 116.758 123.164 117.919 123.164C119.592 123.164 120.958 123.582 122.017 124.419C123.092 125.256 123.699 126.366 123.835 127.749H121.274C121.189 127.066 120.83 126.468 120.198 125.956C119.567 125.426 118.73 125.162 117.688 125.162C116.715 125.162 115.921 125.418 115.306 125.93C114.692 126.425 114.384 127.125 114.384 128.03C114.384 128.679 114.564 129.208 114.922 129.618C115.298 130.028 115.75 130.344 116.28 130.566C116.826 130.771 117.586 131.01 118.559 131.283C119.737 131.607 120.685 131.932 121.402 132.256C122.119 132.564 122.734 133.05 123.246 133.716C123.758 134.365 124.015 135.253 124.015 136.38C124.015 137.251 123.784 138.07 123.323 138.839C122.862 139.607 122.179 140.23 121.274 140.708C120.369 141.186 119.302 141.425 118.073 141.425ZM140.25 133.691C140.25 134.135 140.225 134.604 140.173 135.099H128.955C129.041 136.482 129.51 137.567 130.364 138.352C131.235 139.12 132.285 139.504 133.514 139.504C134.522 139.504 135.358 139.274 136.024 138.813C136.707 138.335 137.185 137.703 137.459 136.918H139.969C139.593 138.267 138.842 139.368 137.715 140.222C136.588 141.058 135.188 141.477 133.514 141.477C132.183 141.477 130.987 141.178 129.929 140.58C128.887 139.983 128.068 139.137 127.47 138.045C126.872 136.935 126.574 135.654 126.574 134.203C126.574 132.751 126.864 131.479 127.444 130.387C128.025 129.294 128.836 128.457 129.877 127.877C130.936 127.279 132.148 126.98 133.514 126.98C134.846 126.98 136.024 127.271 137.049 127.851C138.073 128.432 138.859 129.234 139.405 130.259C139.969 131.266 140.25 132.41 140.25 133.691ZM137.843 133.204C137.843 132.316 137.646 131.556 137.254 130.924C136.861 130.276 136.323 129.789 135.64 129.465C134.974 129.123 134.231 128.952 133.412 128.952C132.234 128.952 131.226 129.328 130.39 130.079C129.57 130.831 129.101 131.872 128.981 133.204H137.843ZM145.657 129.49C146.067 128.688 146.648 128.064 147.399 127.621C148.167 127.177 149.098 126.955 150.191 126.955V129.362H149.576C146.964 129.362 145.657 130.779 145.657 133.614V141.246H143.327V127.211H145.657V129.49ZM158.106 139.095L162.46 127.211H164.944L159.438 141.246H156.723L151.216 127.211H153.726L158.106 139.095ZM168.442 124.931C167.998 124.931 167.622 124.778 167.315 124.47C167.007 124.163 166.854 123.787 166.854 123.343C166.854 122.899 167.007 122.524 167.315 122.216C167.622 121.909 167.998 121.755 168.442 121.755C168.868 121.755 169.227 121.909 169.517 122.216C169.825 122.524 169.978 122.899 169.978 123.343C169.978 123.787 169.825 124.163 169.517 124.47C169.227 124.778 168.868 124.931 168.442 124.931ZM169.569 127.211V141.246H167.238V127.211H169.569ZM172.67 134.203C172.67 132.751 172.96 131.488 173.541 130.412C174.121 129.319 174.924 128.474 175.948 127.877C176.99 127.279 178.177 126.98 179.508 126.98C181.233 126.98 182.65 127.399 183.76 128.235C184.887 129.072 185.63 130.233 185.988 131.718H183.478C183.239 130.865 182.77 130.19 182.07 129.695C181.387 129.2 180.533 128.952 179.508 128.952C178.177 128.952 177.101 129.413 176.281 130.335C175.462 131.24 175.052 132.529 175.052 134.203C175.052 135.893 175.462 137.199 176.281 138.121C177.101 139.043 178.177 139.504 179.508 139.504C180.533 139.504 181.387 139.265 182.07 138.787C182.753 138.309 183.222 137.626 183.478 136.738H185.988C185.613 138.173 184.861 139.325 183.734 140.196C182.607 141.05 181.199 141.477 179.508 141.477C178.177 141.477 176.99 141.178 175.948 140.58C174.924 139.983 174.121 139.137 173.541 138.045C172.96 136.952 172.67 135.671 172.67 134.203ZM201.904 133.691C201.904 134.135 201.878 134.604 201.827 135.099H190.609C190.695 136.482 191.164 137.567 192.018 138.352C192.889 139.12 193.939 139.504 195.168 139.504C196.175 139.504 197.012 139.274 197.678 138.813C198.361 138.335 198.839 137.703 199.112 136.918H201.622C201.247 138.267 200.495 139.368 199.368 140.222C198.242 141.058 196.841 141.477 195.168 141.477C193.836 141.477 192.641 141.178 191.582 140.58C190.541 139.983 189.721 139.137 189.124 138.045C188.526 136.935 188.227 135.654 188.227 134.203C188.227 132.751 188.518 131.479 189.098 130.387C189.679 129.294 190.49 128.457 191.531 127.877C192.59 127.279 193.802 126.98 195.168 126.98C196.5 126.98 197.678 127.271 198.703 127.851C199.727 128.432 200.512 129.234 201.059 130.259C201.622 131.266 201.904 132.41 201.904 133.691ZM199.496 133.204C199.496 132.316 199.3 131.556 198.907 130.924C198.515 130.276 197.977 129.789 197.294 129.465C196.628 129.123 195.885 128.952 195.066 128.952C193.887 128.952 192.88 129.328 192.043 130.079C191.224 130.831 190.754 131.872 190.635 133.204H199.496Z" fill="black"/>
<path d="M245.436 140.993L237.581 127.387H253.292L245.436 140.993Z" fill="#CACACA"/>
<path d="M755.007 94.0371H793.959H820.104C827.177 94.0371 832.91 99.7705 832.91 106.843V160.201C832.91 167.274 827.177 173.007 820.104 173.007H793.959H758.742H755.948C755.428 173.007 755.007 172.586 755.007 172.067V171.127V165.016V94.0371Z" fill="#0048D3"/>
<path d="M795.567 114C785.799 114 777.851 121.952 777.851 131.726C777.851 135.19 778.85 138.425 780.574 141.158L775.153 146.582C773.616 148.121 773.616 150.615 775.153 152.153C776.69 153.692 779.183 153.692 780.72 152.153L786.141 146.729C788.873 148.454 792.105 149.453 795.567 149.453C805.335 149.453 813.283 141.501 813.283 131.726C813.283 121.952 805.336 114 795.567 114ZM795.567 145.514C787.969 145.514 781.788 139.329 781.788 131.726C781.788 124.124 787.969 117.939 795.567 117.939C803.165 117.939 809.346 124.124 809.346 131.726C809.346 139.329 803.165 145.514 795.567 145.514Z" fill="white"/>
<path d="M348.54 201.04C348.54 202.24 348.147 203.207 347.36 203.94C346.573 204.673 345.393 205.04 343.82 205.04H341V211H339.6V197.02H343.82C345.38 197.02 346.553 197.387 347.34 198.12C348.14 198.853 348.54 199.827 348.54 201.04ZM343.82 203.84C346.007 203.84 347.1 202.907 347.1 201.04C347.1 200.107 346.84 199.4 346.32 198.92C345.8 198.44 344.967 198.2 343.82 198.2H341V203.84H343.82ZM352.289 202.02C352.596 201.34 353.062 200.813 353.689 200.44C354.329 200.067 355.109 199.88 356.029 199.88V201.34H355.649C354.636 201.34 353.822 201.613 353.209 202.16C352.596 202.707 352.289 203.62 352.289 204.9V211H350.889V200.08H352.289V202.02ZM362.915 211.16C361.888 211.16 360.962 210.933 360.135 210.48C359.322 210.013 358.675 209.36 358.195 208.52C357.728 207.667 357.495 206.673 357.495 205.54C357.495 204.407 357.735 203.42 358.215 202.58C358.695 201.727 359.348 201.073 360.175 200.62C361.002 200.153 361.928 199.92 362.955 199.92C363.982 199.92 364.908 200.153 365.735 200.62C366.575 201.073 367.228 201.727 367.695 202.58C368.175 203.42 368.415 204.407 368.415 205.54C368.415 206.66 368.175 207.647 367.695 208.5C367.215 209.353 366.555 210.013 365.715 210.48C364.875 210.933 363.942 211.16 362.915 211.16ZM362.915 209.94C363.635 209.94 364.302 209.78 364.915 209.46C365.528 209.127 366.022 208.633 366.395 207.98C366.782 207.313 366.975 206.5 366.975 205.54C366.975 204.58 366.788 203.773 366.415 203.12C366.042 202.453 365.548 201.96 364.935 201.64C364.322 201.307 363.655 201.14 362.935 201.14C362.215 201.14 361.548 201.307 360.935 201.64C360.322 201.96 359.828 202.453 359.455 203.12C359.095 203.773 358.915 204.58 358.915 205.54C358.915 206.5 359.095 207.313 359.455 207.98C359.828 208.633 360.315 209.127 360.915 209.46C361.528 209.78 362.195 209.94 362.915 209.94ZM370.327 205.52C370.327 204.4 370.554 203.42 371.007 202.58C371.461 201.727 372.081 201.073 372.867 200.62C373.667 200.153 374.567 199.92 375.567 199.92C376.527 199.92 377.394 200.153 378.167 200.62C378.941 201.087 379.507 201.693 379.867 202.44V196.2H381.267V211H379.867V208.56C379.534 209.32 378.987 209.947 378.227 210.44C377.467 210.92 376.574 211.16 375.547 211.16C374.547 211.16 373.647 210.927 372.847 210.46C372.061 209.993 371.441 209.333 370.987 208.48C370.547 207.627 370.327 206.64 370.327 205.52ZM379.867 205.54C379.867 204.66 379.687 203.887 379.327 203.22C378.967 202.553 378.474 202.04 377.847 201.68C377.234 201.32 376.554 201.14 375.807 201.14C375.034 201.14 374.341 201.313 373.727 201.66C373.114 202.007 372.627 202.513 372.267 203.18C371.921 203.833 371.747 204.613 371.747 205.52C371.747 206.413 371.921 207.2 372.267 207.88C372.627 208.547 373.114 209.06 373.727 209.42C374.341 209.767 375.034 209.94 375.807 209.94C376.554 209.94 377.234 209.76 377.847 209.4C378.474 209.04 378.967 208.527 379.327 207.86C379.687 207.193 379.867 206.42 379.867 205.54ZM393.923 200.08V211H392.523V209.08C392.203 209.76 391.71 210.28 391.043 210.64C390.377 211 389.63 211.18 388.803 211.18C387.497 211.18 386.43 210.78 385.603 209.98C384.777 209.167 384.363 207.993 384.363 206.46V200.08H385.743V206.3C385.743 207.487 386.037 208.393 386.623 209.02C387.223 209.647 388.037 209.96 389.063 209.96C390.117 209.96 390.957 209.627 391.583 208.96C392.21 208.293 392.523 207.313 392.523 206.02V200.08H393.923ZM396.48 205.54C396.48 204.407 396.706 203.42 397.16 202.58C397.613 201.727 398.24 201.073 399.04 200.62C399.84 200.153 400.753 199.92 401.78 199.92C403.126 199.92 404.233 200.253 405.1 200.92C405.98 201.587 406.546 202.493 406.8 203.64H405.3C405.113 202.853 404.706 202.24 404.08 201.8C403.466 201.347 402.7 201.12 401.78 201.12C401.046 201.12 400.386 201.287 399.8 201.62C399.213 201.953 398.746 202.453 398.4 203.12C398.066 203.773 397.9 204.58 397.9 205.54C397.9 206.5 398.066 207.313 398.4 207.98C398.746 208.647 399.213 209.147 399.8 209.48C400.386 209.813 401.046 209.98 401.78 209.98C402.7 209.98 403.466 209.76 404.08 209.32C404.706 208.867 405.113 208.24 405.3 207.44H406.8C406.546 208.56 405.98 209.46 405.1 210.14C404.22 210.82 403.113 211.16 401.78 211.16C400.753 211.16 399.84 210.933 399.04 210.48C398.24 210.013 397.613 209.36 397.16 208.52C396.706 207.667 396.48 206.673 396.48 205.54ZM411.205 201.26V208.04C411.205 208.707 411.332 209.167 411.585 209.42C411.838 209.673 412.285 209.8 412.925 209.8H414.205V211H412.705C411.718 211 410.985 210.773 410.505 210.32C410.025 209.853 409.785 209.093 409.785 208.04V201.26H408.265V200.08H409.785V197.34H411.205V200.08H414.205V201.26H411.205ZM430.942 201.04C430.942 202.24 430.549 203.207 429.762 203.94C428.976 204.673 427.796 205.04 426.222 205.04H423.402V211H422.002V197.02H426.222C427.782 197.02 428.956 197.387 429.742 198.12C430.542 198.853 430.942 199.827 430.942 201.04ZM426.222 203.84C428.409 203.84 429.502 202.907 429.502 201.04C429.502 200.107 429.242 199.4 428.722 198.92C428.202 198.44 427.369 198.2 426.222 198.2H423.402V203.84H426.222ZM438.491 199.88C439.318 199.88 440.058 200.053 440.711 200.4C441.378 200.747 441.898 201.28 442.271 202C442.658 202.707 442.851 203.573 442.851 204.6V211H441.471V204.76C441.471 203.573 441.171 202.667 440.571 202.04C439.985 201.413 439.178 201.1 438.151 201.1C437.098 201.1 436.258 201.433 435.631 202.1C435.005 202.767 434.691 203.747 434.691 205.04V211H433.291V196.2H434.691V201.94C435.038 201.287 435.545 200.78 436.211 200.42C436.891 200.06 437.651 199.88 438.491 199.88ZM450.728 211.16C449.701 211.16 448.774 210.933 447.948 210.48C447.134 210.013 446.488 209.36 446.008 208.52C445.541 207.667 445.308 206.673 445.308 205.54C445.308 204.407 445.548 203.42 446.028 202.58C446.508 201.727 447.161 201.073 447.988 200.62C448.814 200.153 449.741 199.92 450.768 199.92C451.794 199.92 452.721 200.153 453.548 200.62C454.388 201.073 455.041 201.727 455.508 202.58C455.988 203.42 456.228 204.407 456.228 205.54C456.228 206.66 455.988 207.647 455.508 208.5C455.028 209.353 454.368 210.013 453.528 210.48C452.688 210.933 451.754 211.16 450.728 211.16ZM450.728 209.94C451.448 209.94 452.114 209.78 452.728 209.46C453.341 209.127 453.834 208.633 454.208 207.98C454.594 207.313 454.788 206.5 454.788 205.54C454.788 204.58 454.601 203.773 454.228 203.12C453.854 202.453 453.361 201.96 452.748 201.64C452.134 201.307 451.468 201.14 450.748 201.14C450.028 201.14 449.361 201.307 448.748 201.64C448.134 201.96 447.641 202.453 447.268 203.12C446.908 203.773 446.728 204.58 446.728 205.54C446.728 206.5 446.908 207.313 447.268 207.98C447.641 208.633 448.128 209.127 448.728 209.46C449.341 209.78 450.008 209.94 450.728 209.94ZM460.6 201.26V208.04C460.6 208.707 460.726 209.167 460.98 209.42C461.233 209.673 461.68 209.8 462.32 209.8H463.6V211H462.1C461.113 211 460.38 210.773 459.9 210.32C459.42 209.853 459.18 209.093 459.18 208.04V201.26H457.66V200.08H459.18V197.34H460.6V200.08H463.6V201.26H460.6ZM470.689 211.16C469.662 211.16 468.735 210.933 467.909 210.48C467.095 210.013 466.449 209.36 465.969 208.52C465.502 207.667 465.269 206.673 465.269 205.54C465.269 204.407 465.509 203.42 465.989 202.58C466.469 201.727 467.122 201.073 467.949 200.62C468.775 200.153 469.702 199.92 470.729 199.92C471.755 199.92 472.682 200.153 473.509 200.62C474.349 201.073 475.002 201.727 475.469 202.58C475.949 203.42 476.189 204.407 476.189 205.54C476.189 206.66 475.949 207.647 475.469 208.5C474.989 209.353 474.329 210.013 473.489 210.48C472.649 210.933 471.715 211.16 470.689 211.16ZM470.689 209.94C471.409 209.94 472.075 209.78 472.689 209.46C473.302 209.127 473.795 208.633 474.169 207.98C474.555 207.313 474.749 206.5 474.749 205.54C474.749 204.58 474.562 203.773 474.189 203.12C473.815 202.453 473.322 201.96 472.709 201.64C472.095 201.307 471.429 201.14 470.709 201.14C469.989 201.14 469.322 201.307 468.709 201.64C468.095 201.96 467.602 202.453 467.229 203.12C466.869 203.773 466.689 204.58 466.689 205.54C466.689 206.5 466.869 207.313 467.229 207.98C467.602 208.633 468.089 209.127 468.689 209.46C469.302 209.78 469.969 209.94 470.689 209.94ZM483.321 199.92C484.347 199.92 485.241 200.16 486.001 200.64C486.761 201.12 487.307 201.727 487.641 202.46V200.08H489.041V211.28C489.041 212.28 488.821 213.167 488.381 213.94C487.954 214.713 487.354 215.307 486.581 215.72C485.807 216.147 484.927 216.36 483.941 216.36C482.541 216.36 481.374 216.027 480.441 215.36C479.521 214.693 478.947 213.787 478.721 212.64H480.101C480.341 213.4 480.794 214.007 481.461 214.46C482.141 214.913 482.967 215.14 483.941 215.14C484.647 215.14 485.281 214.987 485.841 214.68C486.401 214.387 486.841 213.947 487.161 213.36C487.481 212.773 487.641 212.08 487.641 211.28V208.58C487.294 209.327 486.741 209.947 485.981 210.44C485.234 210.92 484.347 211.16 483.321 211.16C482.321 211.16 481.421 210.927 480.621 210.46C479.834 209.993 479.214 209.333 478.761 208.48C478.321 207.627 478.101 206.64 478.101 205.52C478.101 204.4 478.321 203.42 478.761 202.58C479.214 201.727 479.834 201.073 480.621 200.62C481.421 200.153 482.321 199.92 483.321 199.92ZM487.641 205.54C487.641 204.66 487.461 203.887 487.101 203.22C486.741 202.553 486.247 202.04 485.621 201.68C485.007 201.32 484.327 201.14 483.581 201.14C482.807 201.14 482.114 201.313 481.501 201.66C480.887 202.007 480.401 202.513 480.041 203.18C479.694 203.833 479.521 204.613 479.521 205.52C479.521 206.413 479.694 207.2 480.041 207.88C480.401 208.547 480.887 209.06 481.501 209.42C482.114 209.767 482.807 209.94 483.581 209.94C484.327 209.94 485.007 209.76 485.621 209.4C486.247 209.04 486.741 208.527 487.101 207.86C487.461 207.193 487.641 206.42 487.641 205.54ZM493.637 202.02C493.943 201.34 494.41 200.813 495.037 200.44C495.677 200.067 496.457 199.88 497.377 199.88V201.34H496.997C495.983 201.34 495.17 201.613 494.557 202.16C493.943 202.707 493.637 203.62 493.637 204.9V211H492.237V200.08H493.637V202.02ZM498.843 205.52C498.843 204.4 499.063 203.42 499.503 202.58C499.956 201.727 500.576 201.073 501.363 200.62C502.163 200.153 503.063 199.92 504.063 199.92C505.103 199.92 505.996 200.16 506.743 200.64C507.503 201.12 508.049 201.733 508.383 202.48V200.08H509.783V211H508.383V208.58C508.036 209.327 507.483 209.947 506.723 210.44C505.976 210.92 505.083 211.16 504.043 211.16C503.056 211.16 502.163 210.927 501.363 210.46C500.576 209.993 499.956 209.333 499.503 208.48C499.063 207.627 498.843 206.64 498.843 205.52ZM508.383 205.54C508.383 204.66 508.203 203.887 507.843 203.22C507.483 202.553 506.989 202.04 506.363 201.68C505.749 201.32 505.069 201.14 504.323 201.14C503.549 201.14 502.856 201.313 502.243 201.66C501.629 202.007 501.143 202.513 500.783 203.18C500.436 203.833 500.263 204.613 500.263 205.52C500.263 206.413 500.436 207.2 500.783 207.88C501.143 208.547 501.629 209.06 502.243 209.42C502.856 209.767 503.549 209.94 504.323 209.94C505.069 209.94 505.749 209.76 506.363 209.4C506.989 209.04 507.483 208.527 507.843 207.86C508.203 207.193 508.383 206.42 508.383 205.54ZM514.359 202.48C514.706 201.747 515.252 201.14 515.999 200.66C516.759 200.167 517.659 199.92 518.699 199.92C519.686 199.92 520.572 200.153 521.359 200.62C522.159 201.073 522.779 201.727 523.219 202.58C523.672 203.42 523.899 204.4 523.899 205.52C523.899 206.64 523.672 207.627 523.219 208.48C522.779 209.333 522.159 209.993 521.359 210.46C520.572 210.927 519.686 211.16 518.699 211.16C517.672 211.16 516.779 210.92 516.019 210.44C515.259 209.947 514.706 209.333 514.359 208.6V216.16H512.979V200.08H514.359V202.48ZM522.479 205.52C522.479 204.613 522.299 203.833 521.939 203.18C521.592 202.513 521.112 202.007 520.499 201.66C519.886 201.313 519.192 201.14 518.419 201.14C517.672 201.14 516.986 201.32 516.359 201.68C515.746 202.04 515.259 202.553 514.899 203.22C514.539 203.887 514.359 204.66 514.359 205.54C514.359 206.42 514.539 207.193 514.899 207.86C515.259 208.527 515.746 209.04 516.359 209.4C516.986 209.76 517.672 209.94 518.419 209.94C519.192 209.94 519.886 209.767 520.499 209.42C521.112 209.06 521.592 208.547 521.939 207.88C522.299 207.2 522.479 206.413 522.479 205.52ZM531.675 199.88C532.502 199.88 533.242 200.053 533.895 200.4C534.562 200.747 535.082 201.28 535.455 202C535.842 202.707 536.035 203.573 536.035 204.6V211H534.655V204.76C534.655 203.573 534.355 202.667 533.755 202.04C533.168 201.413 532.362 201.1 531.335 201.1C530.282 201.1 529.442 201.433 528.815 202.1C528.188 202.767 527.875 203.747 527.875 205.04V211H526.475V196.2H527.875V201.94C528.222 201.287 528.728 200.78 529.395 200.42C530.075 200.06 530.835 199.88 531.675 199.88ZM549.011 204.98C549.011 205.46 548.998 205.827 548.971 206.08H539.911C539.951 206.907 540.151 207.613 540.511 208.2C540.871 208.787 541.345 209.233 541.931 209.54C542.518 209.833 543.158 209.98 543.851 209.98C544.758 209.98 545.518 209.76 546.131 209.32C546.758 208.88 547.171 208.287 547.371 207.54H548.851C548.585 208.607 548.011 209.48 547.131 210.16C546.265 210.827 545.171 211.16 543.851 211.16C542.825 211.16 541.905 210.933 541.091 210.48C540.278 210.013 539.638 209.36 539.171 208.52C538.718 207.667 538.491 206.673 538.491 205.54C538.491 204.407 538.718 203.413 539.171 202.56C539.625 201.707 540.258 201.053 541.071 200.6C541.885 200.147 542.811 199.92 543.851 199.92C544.891 199.92 545.798 200.147 546.571 200.6C547.358 201.053 547.958 201.667 548.371 202.44C548.798 203.2 549.011 204.047 549.011 204.98ZM547.591 204.94C547.605 204.127 547.438 203.433 547.091 202.86C546.758 202.287 546.298 201.853 545.711 201.56C545.125 201.267 544.485 201.12 543.791 201.12C542.751 201.12 541.865 201.453 541.131 202.12C540.398 202.787 539.991 203.727 539.911 204.94H547.591ZM552.973 202.02C553.279 201.34 553.746 200.813 554.373 200.44C555.013 200.067 555.793 199.88 556.713 199.88V201.34H556.333C555.319 201.34 554.506 201.613 553.893 202.16C553.279 202.707 552.973 203.62 552.973 204.9V211H551.573V200.08H552.973V202.02Z" fill="#6D6D6D"/>
<path d="M584.24 200.32C584.333 199.107 584.8 198.153 585.64 197.46C586.493 196.753 587.593 196.4 588.94 196.4C589.833 196.4 590.6 196.56 591.24 196.88C591.88 197.2 592.36 197.64 592.68 198.2C593.013 198.747 593.18 199.367 593.18 200.06C593.18 200.9 592.933 201.627 592.44 202.24C591.947 202.853 591.247 203.233 590.34 203.38V203.48C591.287 203.667 592.04 204.08 592.6 204.72C593.16 205.347 593.44 206.173 593.44 207.2C593.44 208.347 593.053 209.287 592.28 210.02C591.52 210.74 590.413 211.1 588.96 211.1C587.573 211.1 586.433 210.74 585.54 210.02C584.647 209.287 584.133 208.253 584 206.92H585.36C585.48 207.813 585.853 208.54 586.48 209.1C587.107 209.647 587.933 209.92 588.96 209.92C589.973 209.92 590.747 209.653 591.28 209.12C591.827 208.587 592.1 207.907 592.1 207.08C592.1 205.053 590.64 204.04 587.72 204.04H587.28V202.86H587.74C590.46 202.86 591.82 201.973 591.82 200.2C591.82 199.427 591.567 198.807 591.06 198.34C590.553 197.86 589.833 197.62 588.9 197.62C587.993 197.62 587.24 197.86 586.64 198.34C586.053 198.807 585.707 199.467 585.6 200.32H584.24ZM600.439 197.02C601.986 197.02 603.313 197.3 604.419 197.86C605.526 198.42 606.373 199.227 606.959 200.28C607.546 201.333 607.839 202.587 607.839 204.04C607.839 205.48 607.546 206.727 606.959 207.78C606.373 208.82 605.526 209.62 604.419 210.18C603.313 210.727 601.986 211 600.439 211H596.299V197.02H600.439ZM600.439 209.84C602.386 209.84 603.866 209.333 604.879 208.32C605.906 207.293 606.419 205.867 606.419 204.04C606.419 202.2 605.906 200.767 604.879 199.74C603.866 198.7 602.386 198.18 600.439 198.18H597.699V209.84H600.439ZM629.497 207.68H623.137L621.917 211H620.437L625.537 197.2H627.117L632.197 211H630.717L629.497 207.68ZM629.077 206.52L626.317 198.96L623.557 206.52H629.077ZM635.844 202.02C636.15 201.34 636.617 200.813 637.244 200.44C637.884 200.067 638.664 199.88 639.584 199.88V201.34H639.204C638.19 201.34 637.377 201.613 636.764 202.16C636.15 202.707 635.844 203.62 635.844 204.9V211H634.444V200.08H635.844V202.02ZM643.51 201.26V208.04C643.51 208.707 643.637 209.167 643.89 209.42C644.143 209.673 644.59 209.8 645.23 209.8H646.51V211H645.01C644.023 211 643.29 210.773 642.81 210.32C642.33 209.853 642.09 209.093 642.09 208.04V201.26H640.57V200.08H642.09V197.34H643.51V200.08H646.51V201.26H643.51ZM649.519 198.02C649.239 198.02 648.999 197.92 648.799 197.72C648.599 197.52 648.499 197.273 648.499 196.98C648.499 196.687 648.599 196.447 648.799 196.26C648.999 196.06 649.239 195.96 649.519 195.96C649.799 195.96 650.039 196.06 650.239 196.26C650.439 196.447 650.539 196.687 650.539 196.98C650.539 197.273 650.439 197.52 650.239 197.72C650.039 197.92 649.799 198.02 649.519 198.02ZM650.219 200.08V211H648.819V200.08H650.219ZM657.149 211.16C655.896 211.16 654.869 210.873 654.069 210.3C653.282 209.713 652.842 208.92 652.749 207.92H654.189C654.256 208.533 654.542 209.033 655.049 209.42C655.569 209.793 656.262 209.98 657.129 209.98C657.889 209.98 658.482 209.8 658.909 209.44C659.349 209.08 659.569 208.633 659.569 208.1C659.569 207.727 659.449 207.42 659.209 207.18C658.969 206.94 658.662 206.753 658.289 206.62C657.929 206.473 657.436 206.32 656.809 206.16C655.996 205.947 655.336 205.733 654.829 205.52C654.322 205.307 653.889 204.993 653.529 204.58C653.182 204.153 653.009 203.587 653.009 202.88C653.009 202.347 653.169 201.853 653.489 201.4C653.809 200.947 654.262 200.587 654.849 200.32C655.436 200.053 656.102 199.92 656.849 199.92C658.022 199.92 658.969 200.22 659.689 200.82C660.409 201.407 660.796 202.22 660.849 203.26H659.449C659.409 202.62 659.156 202.107 658.689 201.72C658.236 201.32 657.609 201.12 656.809 201.12C656.102 201.12 655.529 201.287 655.089 201.62C654.649 201.953 654.429 202.367 654.429 202.86C654.429 203.287 654.556 203.64 654.809 203.92C655.076 204.187 655.402 204.4 655.789 204.56C656.176 204.707 656.696 204.873 657.349 205.06C658.136 205.273 658.762 205.48 659.229 205.68C659.696 205.88 660.096 206.173 660.429 206.56C660.762 206.947 660.936 207.46 660.949 208.1C660.949 208.687 660.789 209.213 660.469 209.68C660.149 210.133 659.702 210.493 659.129 210.76C658.556 211.027 657.896 211.16 657.149 211.16ZM665.404 201.26V208.04C665.404 208.707 665.531 209.167 665.784 209.42C666.038 209.673 666.484 209.8 667.124 209.8H668.404V211H666.904C665.918 211 665.184 210.773 664.704 210.32C664.224 209.853 663.984 209.093 663.984 208.04V201.26H662.464V200.08H663.984V197.34H665.404V200.08H668.404V201.26H665.404ZM674.473 211.16C673.22 211.16 672.193 210.873 671.393 210.3C670.607 209.713 670.167 208.92 670.073 207.92H671.513C671.58 208.533 671.867 209.033 672.373 209.42C672.893 209.793 673.587 209.98 674.453 209.98C675.213 209.98 675.807 209.8 676.233 209.44C676.673 209.08 676.893 208.633 676.893 208.1C676.893 207.727 676.773 207.42 676.533 207.18C676.293 206.94 675.987 206.753 675.613 206.62C675.253 206.473 674.76 206.32 674.133 206.16C673.32 205.947 672.66 205.733 672.153 205.52C671.647 205.307 671.213 204.993 670.853 204.58C670.507 204.153 670.333 203.587 670.333 202.88C670.333 202.347 670.493 201.853 670.813 201.4C671.133 200.947 671.587 200.587 672.173 200.32C672.76 200.053 673.427 199.92 674.173 199.92C675.347 199.92 676.293 200.22 677.013 200.82C677.733 201.407 678.12 202.22 678.173 203.26H676.773C676.733 202.62 676.48 202.107 676.013 201.72C675.56 201.32 674.933 201.12 674.133 201.12C673.427 201.12 672.853 201.287 672.413 201.62C671.973 201.953 671.753 202.367 671.753 202.86C671.753 203.287 671.88 203.64 672.133 203.92C672.4 204.187 672.727 204.4 673.113 204.56C673.5 204.707 674.02 204.873 674.673 205.06C675.46 205.273 676.087 205.48 676.553 205.68C677.02 205.88 677.42 206.173 677.753 206.56C678.087 206.947 678.26 207.46 678.273 208.1C678.273 208.687 678.113 209.213 677.793 209.68C677.473 210.133 677.027 210.493 676.453 210.76C675.88 211.027 675.22 211.16 674.473 211.16Z" fill="#6D6D6D"/>
<path d="M115.88 211.14C114.587 211.14 113.413 210.84 112.36 210.24C111.307 209.627 110.473 208.78 109.86 207.7C109.26 206.607 108.96 205.373 108.96 204C108.96 202.627 109.26 201.4 109.86 200.32C110.473 199.227 111.307 198.38 112.36 197.78C113.413 197.167 114.587 196.86 115.88 196.86C117.187 196.86 118.367 197.167 119.42 197.78C120.473 198.38 121.3 199.227 121.9 200.32C122.5 201.4 122.8 202.627 122.8 204C122.8 205.373 122.5 206.607 121.9 207.7C121.3 208.78 120.473 209.627 119.42 210.24C118.367 210.84 117.187 211.14 115.88 211.14ZM115.88 209.92C116.92 209.92 117.853 209.68 118.68 209.2C119.507 208.72 120.16 208.033 120.64 207.14C121.12 206.233 121.36 205.187 121.36 204C121.36 202.813 121.12 201.773 120.64 200.88C120.16 199.987 119.507 199.3 118.68 198.82C117.853 198.34 116.92 198.1 115.88 198.1C114.84 198.1 113.907 198.34 113.08 198.82C112.253 199.3 111.6 199.987 111.12 200.88C110.64 201.773 110.4 202.813 110.4 204C110.4 205.187 110.64 206.233 111.12 207.14C111.6 208.033 112.253 208.72 113.08 209.2C113.907 209.68 114.84 209.92 115.88 209.92ZM130.482 199.88C131.788 199.88 132.855 200.287 133.682 201.1C134.508 201.9 134.922 203.067 134.922 204.6V211H133.542V204.76C133.542 203.573 133.242 202.667 132.642 202.04C132.055 201.413 131.248 201.1 130.222 201.1C129.168 201.1 128.328 201.433 127.702 202.1C127.075 202.767 126.762 203.747 126.762 205.04V211H125.362V200.08H126.762V201.94C127.108 201.273 127.608 200.767 128.262 200.42C128.915 200.06 129.655 199.88 130.482 199.88ZM139.418 196.2V211H138.018V196.2H139.418ZM143.288 198.02C143.008 198.02 142.768 197.92 142.568 197.72C142.368 197.52 142.268 197.273 142.268 196.98C142.268 196.687 142.368 196.447 142.568 196.26C142.768 196.06 143.008 195.96 143.288 195.96C143.568 195.96 143.808 196.06 144.008 196.26C144.208 196.447 144.308 196.687 144.308 196.98C144.308 197.273 144.208 197.52 144.008 197.72C143.808 197.92 143.568 198.02 143.288 198.02ZM143.988 200.08V211H142.588V200.08H143.988ZM152.279 199.88C153.585 199.88 154.652 200.287 155.479 201.1C156.305 201.9 156.719 203.067 156.719 204.6V211H155.339V204.76C155.339 203.573 155.039 202.667 154.439 202.04C153.852 201.413 153.045 201.1 152.019 201.1C150.965 201.1 150.125 201.433 149.499 202.1C148.872 202.767 148.559 203.747 148.559 205.04V211H147.159V200.08H148.559V201.94C148.905 201.273 149.405 200.767 150.059 200.42C150.712 200.06 151.452 199.88 152.279 199.88ZM169.695 204.98C169.695 205.46 169.682 205.827 169.655 206.08H160.595C160.635 206.907 160.835 207.613 161.195 208.2C161.555 208.787 162.028 209.233 162.615 209.54C163.202 209.833 163.842 209.98 164.535 209.98C165.442 209.98 166.202 209.76 166.815 209.32C167.442 208.88 167.855 208.287 168.055 207.54H169.535C169.268 208.607 168.695 209.48 167.815 210.16C166.948 210.827 165.855 211.16 164.535 211.16C163.508 211.16 162.588 210.933 161.775 210.48C160.962 210.013 160.322 209.36 159.855 208.52C159.402 207.667 159.175 206.673 159.175 205.54C159.175 204.407 159.402 203.413 159.855 202.56C160.308 201.707 160.942 201.053 161.755 200.6C162.568 200.147 163.495 199.92 164.535 199.92C165.575 199.92 166.482 200.147 167.255 200.6C168.042 201.053 168.642 201.667 169.055 202.44C169.482 203.2 169.695 204.047 169.695 204.98ZM168.275 204.94C168.288 204.127 168.122 203.433 167.775 202.86C167.442 202.287 166.982 201.853 166.395 201.56C165.808 201.267 165.168 201.12 164.475 201.12C163.435 201.12 162.548 201.453 161.815 202.12C161.082 202.787 160.675 203.727 160.595 204.94H168.275ZM177.105 205.52C177.105 204.4 177.325 203.42 177.765 202.58C178.218 201.727 178.838 201.073 179.625 200.62C180.425 200.153 181.325 199.92 182.325 199.92C183.365 199.92 184.258 200.16 185.005 200.64C185.765 201.12 186.311 201.733 186.645 202.48V200.08H188.045V211H186.645V208.58C186.298 209.327 185.745 209.947 184.985 210.44C184.238 210.92 183.345 211.16 182.305 211.16C181.318 211.16 180.425 210.927 179.625 210.46C178.838 209.993 178.218 209.333 177.765 208.48C177.325 207.627 177.105 206.64 177.105 205.52ZM186.645 205.54C186.645 204.66 186.465 203.887 186.105 203.22C185.745 202.553 185.251 202.04 184.625 201.68C184.011 201.32 183.331 201.14 182.585 201.14C181.811 201.14 181.118 201.313 180.505 201.66C179.891 202.007 179.405 202.513 179.045 203.18C178.698 203.833 178.525 204.613 178.525 205.52C178.525 206.413 178.698 207.2 179.045 207.88C179.405 208.547 179.891 209.06 180.505 209.42C181.118 209.767 181.811 209.94 182.585 209.94C183.331 209.94 184.011 209.76 184.625 209.4C185.251 209.04 185.745 208.527 186.105 207.86C186.465 207.193 186.645 206.42 186.645 205.54ZM190.601 205.52C190.601 204.4 190.827 203.42 191.281 202.58C191.734 201.727 192.354 201.073 193.141 200.62C193.941 200.153 194.841 199.92 195.841 199.92C196.801 199.92 197.667 200.153 198.441 200.62C199.214 201.087 199.781 201.693 200.141 202.44V196.2H201.541V211H200.141V208.56C199.807 209.32 199.261 209.947 198.501 210.44C197.741 210.92 196.847 211.16 195.821 211.16C194.821 211.16 193.921 210.927 193.121 210.46C192.334 209.993 191.714 209.333 191.261 208.48C190.821 207.627 190.601 206.64 190.601 205.52ZM200.141 205.54C200.141 204.66 199.961 203.887 199.601 203.22C199.241 202.553 198.747 202.04 198.121 201.68C197.507 201.32 196.827 201.14 196.081 201.14C195.307 201.14 194.614 201.313 194.001 201.66C193.387 202.007 192.901 202.513 192.541 203.18C192.194 203.833 192.021 204.613 192.021 205.52C192.021 206.413 192.194 207.2 192.541 207.88C192.901 208.547 193.387 209.06 194.001 209.42C194.614 209.767 195.307 209.94 196.081 209.94C196.827 209.94 197.507 209.76 198.121 209.4C198.747 209.04 199.241 208.527 199.601 207.86C199.961 207.193 200.141 206.42 200.141 205.54ZM223.225 199.88C224.505 199.88 225.545 200.287 226.345 201.1C227.158 201.9 227.565 203.067 227.565 204.6V211H226.185V204.76C226.185 203.573 225.898 202.667 225.325 202.04C224.752 201.413 223.972 201.1 222.985 201.1C221.958 201.1 221.138 201.44 220.525 202.12C219.912 202.8 219.605 203.787 219.605 205.08V211H218.225V204.76C218.225 203.573 217.938 202.667 217.365 202.04C216.792 201.413 216.005 201.1 215.005 201.1C213.978 201.1 213.158 201.44 212.545 202.12C211.932 202.8 211.625 203.787 211.625 205.08V211H210.225V200.08H211.625V201.96C211.972 201.28 212.465 200.767 213.105 200.42C213.745 200.06 214.458 199.88 215.245 199.88C216.192 199.88 217.018 200.107 217.725 200.56C218.445 201.013 218.965 201.68 219.285 202.56C219.578 201.693 220.078 201.033 220.785 200.58C221.505 200.113 222.318 199.88 223.225 199.88ZM230.034 205.52C230.034 204.4 230.254 203.42 230.694 202.58C231.148 201.727 231.768 201.073 232.554 200.62C233.354 200.153 234.254 199.92 235.254 199.92C236.294 199.92 237.188 200.16 237.934 200.64C238.694 201.12 239.241 201.733 239.574 202.48V200.08H240.974V211H239.574V208.58C239.228 209.327 238.674 209.947 237.914 210.44C237.168 210.92 236.274 211.16 235.234 211.16C234.248 211.16 233.354 210.927 232.554 210.46C231.768 209.993 231.148 209.333 230.694 208.48C230.254 207.627 230.034 206.64 230.034 205.52ZM239.574 205.54C239.574 204.66 239.394 203.887 239.034 203.22C238.674 202.553 238.181 202.04 237.554 201.68C236.941 201.32 236.261 201.14 235.514 201.14C234.741 201.14 234.048 201.313 233.434 201.66C232.821 202.007 232.334 202.513 231.974 203.18C231.628 203.833 231.454 204.613 231.454 205.52C231.454 206.413 231.628 207.2 231.974 207.88C232.334 208.547 232.821 209.06 233.434 209.42C234.048 209.767 234.741 209.94 235.514 209.94C236.261 209.94 236.941 209.76 237.554 209.4C238.181 209.04 238.674 208.527 239.034 207.86C239.394 207.193 239.574 206.42 239.574 205.54ZM249.29 199.88C250.597 199.88 251.664 200.287 252.49 201.1C253.317 201.9 253.73 203.067 253.73 204.6V211H252.35V204.76C252.35 203.573 252.05 202.667 251.45 202.04C250.864 201.413 250.057 201.1 249.03 201.1C247.977 201.1 247.137 201.433 246.51 202.1C245.884 202.767 245.57 203.747 245.57 205.04V211H244.17V200.08H245.57V201.94C245.917 201.273 246.417 200.767 247.07 200.42C247.724 200.06 248.464 199.88 249.29 199.88ZM256.187 205.52C256.187 204.4 256.407 203.42 256.847 202.58C257.3 201.727 257.92 201.073 258.707 200.62C259.507 200.153 260.407 199.92 261.407 199.92C262.447 199.92 263.34 200.16 264.087 200.64C264.847 201.12 265.393 201.733 265.727 202.48V200.08H267.127V211H265.727V208.58C265.38 209.327 264.827 209.947 264.067 210.44C263.32 210.92 262.427 211.16 261.387 211.16C260.4 211.16 259.507 210.927 258.707 210.46C257.92 209.993 257.3 209.333 256.847 208.48C256.407 207.627 256.187 206.64 256.187 205.52ZM265.727 205.54C265.727 204.66 265.547 203.887 265.187 203.22C264.827 202.553 264.333 202.04 263.707 201.68C263.093 201.32 262.413 201.14 261.667 201.14C260.893 201.14 260.2 201.313 259.587 201.66C258.973 202.007 258.487 202.513 258.127 203.18C257.78 203.833 257.607 204.613 257.607 205.52C257.607 206.413 257.78 207.2 258.127 207.88C258.487 208.547 258.973 209.06 259.587 209.42C260.2 209.767 260.893 209.94 261.667 209.94C262.413 209.94 263.093 209.76 263.707 209.4C264.333 209.04 264.827 208.527 265.187 207.86C265.547 207.193 265.727 206.42 265.727 205.54ZM274.903 199.92C275.929 199.92 276.823 200.16 277.583 200.64C278.343 201.12 278.889 201.727 279.223 202.46V200.08H280.623V211.28C280.623 212.28 280.403 213.167 279.963 213.94C279.536 214.713 278.936 215.307 278.163 215.72C277.389 216.147 276.509 216.36 275.523 216.36C274.123 216.36 272.956 216.027 272.023 215.36C271.103 214.693 270.529 213.787 270.303 212.64H271.683C271.923 213.4 272.376 214.007 273.043 214.46C273.723 214.913 274.549 215.14 275.523 215.14C276.229 215.14 276.863 214.987 277.423 214.68C277.983 214.387 278.423 213.947 278.743 213.36C279.063 212.773 279.223 212.08 279.223 211.28V208.58C278.876 209.327 278.323 209.947 277.563 210.44C276.816 210.92 275.929 211.16 274.903 211.16C273.903 211.16 273.003 210.927 272.203 210.46C271.416 209.993 270.796 209.333 270.343 208.48C269.903 207.627 269.683 206.64 269.683 205.52C269.683 204.4 269.903 203.42 270.343 202.58C270.796 201.727 271.416 201.073 272.203 200.62C273.003 200.153 273.903 199.92 274.903 199.92ZM279.223 205.54C279.223 204.66 279.043 203.887 278.683 203.22C278.323 202.553 277.829 202.04 277.203 201.68C276.589 201.32 275.909 201.14 275.163 201.14C274.389 201.14 273.696 201.313 273.083 201.66C272.469 202.007 271.983 202.513 271.623 203.18C271.276 203.833 271.103 204.613 271.103 205.52C271.103 206.413 271.276 207.2 271.623 207.88C271.983 208.547 272.469 209.06 273.083 209.42C273.696 209.767 274.389 209.94 275.163 209.94C275.909 209.94 276.589 209.76 277.203 209.4C277.829 209.04 278.323 208.527 278.683 207.86C279.043 207.193 279.223 206.42 279.223 205.54ZM293.699 204.98C293.699 205.46 293.685 205.827 293.659 206.08H284.599C284.639 206.907 284.839 207.613 285.199 208.2C285.559 208.787 286.032 209.233 286.619 209.54C287.205 209.833 287.845 209.98 288.539 209.98C289.445 209.98 290.205 209.76 290.819 209.32C291.445 208.88 291.859 208.287 292.059 207.54H293.539C293.272 208.607 292.699 209.48 291.819 210.16C290.952 210.827 289.859 211.16 288.539 211.16C287.512 211.16 286.592 210.933 285.779 210.48C284.965 210.013 284.325 209.36 283.859 208.52C283.405 207.667 283.179 206.673 283.179 205.54C283.179 204.407 283.405 203.413 283.859 202.56C284.312 201.707 284.945 201.053 285.759 200.6C286.572 200.147 287.499 199.92 288.539 199.92C289.579 199.92 290.485 200.147 291.259 200.6C292.045 201.053 292.645 201.667 293.059 202.44C293.485 203.2 293.699 204.047 293.699 204.98ZM292.279 204.94C292.292 204.127 292.125 203.433 291.779 202.86C291.445 202.287 290.985 201.853 290.399 201.56C289.812 201.267 289.172 201.12 288.479 201.12C287.439 201.12 286.552 201.453 285.819 202.12C285.085 202.787 284.679 203.727 284.599 204.94H292.279ZM297.66 202.02C297.967 201.34 298.433 200.813 299.06 200.44C299.7 200.067 300.48 199.88 301.4 199.88V201.34H301.02C300.007 201.34 299.193 201.613 298.58 202.16C297.967 202.707 297.66 203.62 297.66 204.9V211H296.26V200.08H297.66V202.02ZM307.266 211.16C306.013 211.16 304.986 210.873 304.186 210.3C303.4 209.713 302.96 208.92 302.866 207.92H304.306C304.373 208.533 304.66 209.033 305.166 209.42C305.686 209.793 306.38 209.98 307.246 209.98C308.006 209.98 308.6 209.8 309.026 209.44C309.466 209.08 309.686 208.633 309.686 208.1C309.686 207.727 309.566 207.42 309.326 207.18C309.086 206.94 308.78 206.753 308.406 206.62C308.046 206.473 307.553 206.32 306.926 206.16C306.113 205.947 305.453 205.733 304.946 205.52C304.44 205.307 304.006 204.993 303.646 204.58C303.3 204.153 303.126 203.587 303.126 202.88C303.126 202.347 303.286 201.853 303.606 201.4C303.926 200.947 304.38 200.587 304.966 200.32C305.553 200.053 306.22 199.92 306.966 199.92C308.14 199.92 309.086 200.22 309.806 200.82C310.526 201.407 310.913 202.22 310.966 203.26H309.566C309.526 202.62 309.273 202.107 308.806 201.72C308.353 201.32 307.726 201.12 306.926 201.12C306.22 201.12 305.646 201.287 305.206 201.62C304.766 201.953 304.546 202.367 304.546 202.86C304.546 203.287 304.673 203.64 304.926 203.92C305.193 204.187 305.52 204.4 305.906 204.56C306.293 204.707 306.813 204.873 307.466 205.06C308.253 205.273 308.88 205.48 309.346 205.68C309.813 205.88 310.213 206.173 310.546 206.56C310.88 206.947 311.053 207.46 311.066 208.1C311.066 208.687 310.906 209.213 310.586 209.68C310.266 210.133 309.82 210.493 309.246 210.76C308.673 211.027 308.013 211.16 307.266 211.16Z" fill="#6D6D6D"/>
<path d="M707.62 211.14C707.113 211.14 706.693 210.987 706.36 210.68C706.04 210.36 705.88 209.967 705.88 209.5C705.88 209.033 706.04 208.647 706.36 208.34C706.693 208.02 707.113 207.86 707.62 207.86C708.113 207.86 708.52 208.02 708.84 208.34C709.16 208.647 709.32 209.033 709.32 209.5C709.32 209.967 709.16 210.36 708.84 210.68C708.52 210.987 708.113 211.14 707.62 211.14ZM715.981 211.14C715.474 211.14 715.054 210.987 714.721 210.68C714.401 210.36 714.241 209.967 714.241 209.5C714.241 209.033 714.401 208.647 714.721 208.34C715.054 208.02 715.474 207.86 715.981 207.86C716.474 207.86 716.881 208.02 717.201 208.34C717.521 208.647 717.681 209.033 717.681 209.5C717.681 209.967 717.521 210.36 717.201 210.68C716.881 210.987 716.474 211.14 715.981 211.14ZM724.342 211.14C723.835 211.14 723.415 210.987 723.082 210.68C722.762 210.36 722.602 209.967 722.602 209.5C722.602 209.033 722.762 208.647 723.082 208.34C723.415 208.02 723.835 207.86 724.342 207.86C724.835 207.86 725.242 208.02 725.562 208.34C725.882 208.647 726.042 209.033 726.042 209.5C726.042 209.967 725.882 210.36 725.562 210.68C725.242 210.987 724.835 211.14 724.342 211.14Z" fill="#6D6D6D"/>
<path d="M297.232 141.149C296.25 141.149 295.382 140.979 294.628 140.637C293.888 140.296 293.305 139.819 292.878 139.207C292.451 138.595 292.224 137.912 292.195 137.158H293.775C293.846 137.884 294.166 138.524 294.735 139.079C295.304 139.62 296.137 139.89 297.232 139.89C298.242 139.89 299.039 139.634 299.623 139.122C300.22 138.595 300.519 137.934 300.519 137.137C300.519 136.497 300.355 135.984 300.028 135.6C299.701 135.202 299.295 134.91 298.812 134.725C298.328 134.526 297.659 134.312 296.805 134.085C295.809 133.814 295.02 133.551 294.436 133.295C293.853 133.039 293.355 132.641 292.942 132.1C292.53 131.559 292.323 130.826 292.323 129.901C292.323 129.133 292.522 128.45 292.921 127.853C293.319 127.241 293.881 126.764 294.607 126.423C295.333 126.081 296.165 125.91 297.104 125.91C298.484 125.91 299.594 126.252 300.434 126.935C301.287 127.604 301.778 128.471 301.906 129.539H300.284C300.185 128.927 299.85 128.386 299.281 127.917C298.712 127.433 297.944 127.191 296.976 127.191C296.08 127.191 295.333 127.433 294.735 127.917C294.137 128.386 293.839 129.034 293.839 129.859C293.839 130.485 294.002 130.99 294.33 131.374C294.657 131.758 295.062 132.05 295.546 132.249C296.044 132.448 296.713 132.662 297.552 132.89C298.52 133.16 299.303 133.43 299.9 133.701C300.498 133.957 301.003 134.355 301.416 134.896C301.828 135.437 302.034 136.162 302.034 137.073C302.034 137.77 301.85 138.432 301.48 139.058C301.11 139.684 300.562 140.189 299.836 140.573C299.11 140.957 298.242 141.149 297.232 141.149ZM315.465 134.576C315.465 135.088 315.451 135.479 315.422 135.75H305.754C305.797 136.632 306.01 137.386 306.394 138.012C306.778 138.638 307.283 139.115 307.91 139.442C308.536 139.755 309.219 139.911 309.959 139.911C310.926 139.911 311.737 139.677 312.392 139.207C313.06 138.738 313.501 138.104 313.715 137.308H315.294C315.01 138.446 314.398 139.378 313.459 140.104C312.534 140.815 311.367 141.171 309.959 141.171C308.863 141.171 307.881 140.929 307.013 140.445C306.145 139.947 305.462 139.25 304.964 138.353C304.48 137.443 304.239 136.383 304.239 135.173C304.239 133.964 304.48 132.904 304.964 131.993C305.448 131.082 306.124 130.385 306.992 129.901C307.86 129.418 308.849 129.176 309.959 129.176C311.068 129.176 312.036 129.418 312.861 129.901C313.701 130.385 314.341 131.04 314.782 131.865C315.237 132.676 315.465 133.58 315.465 134.576ZM313.95 134.533C313.964 133.665 313.786 132.925 313.416 132.313C313.06 131.701 312.569 131.239 311.943 130.926C311.317 130.613 310.634 130.456 309.894 130.456C308.785 130.456 307.838 130.812 307.056 131.524C306.273 132.235 305.839 133.238 305.754 134.533H313.95ZM319.693 125.206V141H318.199V125.206H319.693ZM333.619 134.576C333.619 135.088 333.605 135.479 333.577 135.75H323.908C323.951 136.632 324.164 137.386 324.548 138.012C324.933 138.638 325.438 139.115 326.064 139.442C326.69 139.755 327.373 139.911 328.113 139.911C329.08 139.911 329.891 139.677 330.546 139.207C331.215 138.738 331.656 138.104 331.869 137.308H333.449C333.164 138.446 332.552 139.378 331.613 140.104C330.688 140.815 329.521 141.171 328.113 141.171C327.017 141.171 326.035 140.929 325.167 140.445C324.299 139.947 323.616 139.25 323.118 138.353C322.635 137.443 322.393 136.383 322.393 135.173C322.393 133.964 322.635 132.904 323.118 131.993C323.602 131.082 324.278 130.385 325.146 129.901C326.014 129.418 327.003 129.176 328.113 129.176C329.223 129.176 330.19 129.418 331.015 129.901C331.855 130.385 332.495 131.04 332.936 131.865C333.392 132.676 333.619 133.58 333.619 134.576ZM332.104 134.533C332.118 133.665 331.94 132.925 331.57 132.313C331.215 131.701 330.724 131.239 330.098 130.926C329.472 130.613 328.789 130.456 328.049 130.456C326.939 130.456 325.993 130.812 325.21 131.524C324.428 132.235 323.994 133.238 323.908 134.533H332.104ZM335.67 135.173C335.67 133.964 335.912 132.911 336.395 132.014C336.879 131.104 337.548 130.407 338.402 129.923C339.255 129.425 340.23 129.176 341.326 129.176C342.763 129.176 343.944 129.532 344.869 130.243C345.808 130.954 346.413 131.922 346.683 133.146H345.082C344.883 132.306 344.449 131.652 343.78 131.182C343.126 130.698 342.308 130.456 341.326 130.456C340.543 130.456 339.839 130.634 339.213 130.99C338.587 131.346 338.089 131.879 337.719 132.591C337.363 133.288 337.185 134.149 337.185 135.173C337.185 136.198 337.363 137.066 337.719 137.777C338.089 138.489 338.587 139.022 339.213 139.378C339.839 139.734 340.543 139.911 341.326 139.911C342.308 139.911 343.126 139.677 343.78 139.207C344.449 138.723 344.883 138.055 345.082 137.201H346.683C346.413 138.396 345.808 139.357 344.869 140.082C343.93 140.808 342.749 141.171 341.326 141.171C340.23 141.171 339.255 140.929 338.402 140.445C337.548 139.947 336.879 139.25 336.395 138.353C335.912 137.443 335.67 136.383 335.67 135.173ZM351.384 130.606V137.841C351.384 138.553 351.52 139.044 351.79 139.314C352.06 139.584 352.537 139.719 353.22 139.719H354.586V141H352.985C351.932 141 351.15 140.758 350.637 140.274C350.125 139.776 349.869 138.965 349.869 137.841V130.606H348.247V129.347H349.869V126.423H351.384V129.347H354.586V130.606H351.384ZM362.224 135.152C362.224 133.957 362.459 132.911 362.928 132.014C363.412 131.104 364.074 130.407 364.913 129.923C365.767 129.425 366.727 129.176 367.794 129.176C368.904 129.176 369.858 129.432 370.654 129.944C371.466 130.456 372.049 131.111 372.405 131.908V129.347H373.899V141H372.405V138.417C372.035 139.214 371.444 139.876 370.633 140.402C369.836 140.915 368.883 141.171 367.773 141.171C366.72 141.171 365.767 140.922 364.913 140.424C364.074 139.926 363.412 139.221 362.928 138.311C362.459 137.4 362.224 136.347 362.224 135.152ZM372.405 135.173C372.405 134.234 372.213 133.409 371.828 132.697C371.444 131.986 370.918 131.438 370.249 131.054C369.594 130.67 368.869 130.478 368.072 130.478C367.247 130.478 366.507 130.663 365.852 131.033C365.198 131.403 364.678 131.943 364.294 132.655C363.924 133.352 363.739 134.184 363.739 135.152C363.739 136.105 363.924 136.945 364.294 137.67C364.678 138.382 365.198 138.93 365.852 139.314C366.507 139.684 367.247 139.869 368.072 139.869C368.869 139.869 369.594 139.677 370.249 139.293C370.918 138.908 371.444 138.361 371.828 137.649C372.213 136.938 372.405 136.112 372.405 135.173ZM387.179 141.171C385.841 141.171 384.746 140.865 383.892 140.253C383.052 139.627 382.583 138.78 382.483 137.713H384.02C384.091 138.368 384.397 138.901 384.938 139.314C385.493 139.712 386.233 139.911 387.157 139.911C387.969 139.911 388.602 139.719 389.057 139.335C389.527 138.951 389.761 138.474 389.761 137.905C389.761 137.507 389.633 137.18 389.377 136.923C389.121 136.667 388.794 136.468 388.395 136.326C388.011 136.169 387.485 136.006 386.816 135.835C385.948 135.607 385.244 135.38 384.703 135.152C384.162 134.924 383.7 134.59 383.316 134.149C382.946 133.693 382.761 133.089 382.761 132.335C382.761 131.765 382.932 131.239 383.273 130.755C383.615 130.271 384.098 129.887 384.724 129.603C385.35 129.318 386.062 129.176 386.859 129.176C388.111 129.176 389.121 129.496 389.889 130.136C390.658 130.762 391.07 131.63 391.127 132.74H389.633C389.591 132.057 389.32 131.509 388.822 131.097C388.338 130.67 387.67 130.456 386.816 130.456C386.062 130.456 385.45 130.634 384.98 130.99C384.511 131.346 384.276 131.787 384.276 132.313C384.276 132.769 384.411 133.146 384.682 133.444C384.966 133.729 385.315 133.957 385.727 134.127C386.14 134.284 386.695 134.462 387.392 134.661C388.232 134.889 388.901 135.109 389.399 135.323C389.897 135.536 390.323 135.849 390.679 136.262C391.035 136.674 391.22 137.222 391.234 137.905C391.234 138.531 391.063 139.093 390.722 139.591C390.38 140.075 389.904 140.459 389.292 140.744C388.68 141.028 387.976 141.171 387.179 141.171ZM404.59 134.576C404.59 135.088 404.576 135.479 404.547 135.75H394.879C394.921 136.632 395.135 137.386 395.519 138.012C395.903 138.638 396.408 139.115 397.034 139.442C397.66 139.755 398.343 139.911 399.083 139.911C400.051 139.911 400.862 139.677 401.517 139.207C402.185 138.738 402.626 138.104 402.84 137.308H404.419C404.135 138.446 403.523 139.378 402.584 140.104C401.659 140.815 400.492 141.171 399.083 141.171C397.988 141.171 397.006 140.929 396.138 140.445C395.27 139.947 394.587 139.25 394.089 138.353C393.605 137.443 393.363 136.383 393.363 135.173C393.363 133.964 393.605 132.904 394.089 131.993C394.573 131.082 395.249 130.385 396.117 129.901C396.985 129.418 397.974 129.176 399.083 129.176C400.193 129.176 401.161 129.418 401.986 129.901C402.826 130.385 403.466 131.04 403.907 131.865C404.362 132.676 404.59 133.58 404.59 134.576ZM403.075 134.533C403.089 133.665 402.911 132.925 402.541 132.313C402.185 131.701 401.694 131.239 401.068 130.926C400.442 130.613 399.759 130.456 399.019 130.456C397.91 130.456 396.963 130.812 396.181 131.524C395.398 132.235 394.964 133.238 394.879 134.533H403.075ZM408.817 131.417C409.145 130.691 409.643 130.129 410.311 129.731C410.994 129.332 411.827 129.133 412.809 129.133V130.691H412.403C411.322 130.691 410.454 130.983 409.799 131.566C409.145 132.15 408.817 133.124 408.817 134.49V141H407.323V129.347H408.817V131.417ZM419.197 139.549L423.124 129.347H424.703L420.029 141H418.343L413.669 129.347H415.27L419.197 139.549ZM427.475 127.148C427.176 127.148 426.92 127.041 426.707 126.828C426.493 126.615 426.387 126.351 426.387 126.038C426.387 125.725 426.493 125.469 426.707 125.27C426.92 125.057 427.176 124.95 427.475 124.95C427.774 124.95 428.03 125.057 428.244 125.27C428.457 125.469 428.564 125.725 428.564 126.038C428.564 126.351 428.457 126.615 428.244 126.828C428.03 127.041 427.774 127.148 427.475 127.148ZM428.222 129.347V141H426.728V129.347H428.222ZM430.923 135.173C430.923 133.964 431.164 132.911 431.648 132.014C432.132 131.104 432.801 130.407 433.655 129.923C434.508 129.425 435.483 129.176 436.579 129.176C438.016 129.176 439.197 129.532 440.122 130.243C441.061 130.954 441.665 131.922 441.936 133.146H440.335C440.136 132.306 439.702 131.652 439.033 131.182C438.378 130.698 437.56 130.456 436.579 130.456C435.796 130.456 435.092 130.634 434.466 130.99C433.839 131.346 433.341 131.879 432.972 132.591C432.616 133.288 432.438 134.149 432.438 135.173C432.438 136.198 432.616 137.066 432.972 137.777C433.341 138.489 433.839 139.022 434.466 139.378C435.092 139.734 435.796 139.911 436.579 139.911C437.56 139.911 438.378 139.677 439.033 139.207C439.702 138.723 440.136 138.055 440.335 137.201H441.936C441.665 138.396 441.061 139.357 440.122 140.082C439.182 140.808 438.001 141.171 436.579 141.171C435.483 141.171 434.508 140.929 433.655 140.445C432.801 139.947 432.132 139.25 431.648 138.353C431.164 137.443 430.923 136.383 430.923 135.173ZM455.239 134.576C455.239 135.088 455.224 135.479 455.196 135.75H445.527C445.57 136.632 445.783 137.386 446.168 138.012C446.552 138.638 447.057 139.115 447.683 139.442C448.309 139.755 448.992 139.911 449.732 139.911C450.7 139.911 451.511 139.677 452.165 139.207C452.834 138.738 453.275 138.104 453.488 137.308H455.068C454.783 138.446 454.171 139.378 453.232 140.104C452.307 140.815 451.141 141.171 449.732 141.171C448.636 141.171 447.655 140.929 446.787 140.445C445.919 139.947 445.236 139.25 444.738 138.353C444.254 137.443 444.012 136.383 444.012 135.173C444.012 133.964 444.254 132.904 444.738 131.993C445.221 131.082 445.897 130.385 446.765 129.901C447.633 129.418 448.622 129.176 449.732 129.176C450.842 129.176 451.809 129.418 452.635 129.901C453.474 130.385 454.114 131.04 454.556 131.865C455.011 132.676 455.239 133.58 455.239 134.576ZM453.723 134.533C453.737 133.665 453.56 132.925 453.19 132.313C452.834 131.701 452.343 131.239 451.717 130.926C451.091 130.613 450.408 130.456 449.668 130.456C448.558 130.456 447.612 130.812 446.829 131.524C446.047 132.235 445.613 133.238 445.527 134.533H453.723ZM465.771 130.606V137.841C465.771 138.553 465.906 139.044 466.177 139.314C466.447 139.584 466.924 139.719 467.607 139.719H468.973V141H467.372C466.319 141 465.536 140.758 465.024 140.274C464.512 139.776 464.256 138.965 464.256 137.841V130.606H462.634V129.347H464.256V126.423H465.771V129.347H468.973V130.606H465.771ZM476.986 129.133C477.868 129.133 478.658 129.318 479.355 129.688C480.066 130.058 480.621 130.627 481.02 131.396C481.432 132.15 481.639 133.075 481.639 134.17V141H480.166V134.341C480.166 133.075 479.846 132.107 479.206 131.438C478.579 130.769 477.719 130.435 476.623 130.435C475.499 130.435 474.603 130.791 473.934 131.502C473.265 132.214 472.931 133.26 472.931 134.64V141H471.437V125.206H472.931V131.331C473.301 130.634 473.841 130.094 474.553 129.709C475.278 129.325 476.089 129.133 476.986 129.133ZM484.26 135.152C484.26 133.957 484.495 132.911 484.964 132.014C485.448 131.104 486.11 130.407 486.949 129.923C487.803 129.425 488.763 129.176 489.831 129.176C490.94 129.176 491.894 129.432 492.691 129.944C493.502 130.456 494.085 131.111 494.441 131.908V129.347H495.935V141H494.441V138.417C494.071 139.214 493.48 139.876 492.669 140.402C491.872 140.915 490.919 141.171 489.809 141.171C488.756 141.171 487.803 140.922 486.949 140.424C486.11 139.926 485.448 139.221 484.964 138.311C484.495 137.4 484.26 136.347 484.26 135.152ZM494.441 135.173C494.441 134.234 494.249 133.409 493.864 132.697C493.48 131.986 492.954 131.438 492.285 131.054C491.63 130.67 490.905 130.478 490.108 130.478C489.283 130.478 488.543 130.663 487.888 131.033C487.234 131.403 486.714 131.943 486.33 132.655C485.96 133.352 485.775 134.184 485.775 135.152C485.775 136.105 485.96 136.945 486.33 137.67C486.714 138.382 487.234 138.93 487.888 139.314C488.543 139.684 489.283 139.869 490.108 139.869C490.905 139.869 491.63 139.677 492.285 139.293C492.954 138.908 493.48 138.361 493.864 137.649C494.249 136.938 494.441 136.112 494.441 135.173ZM501.288 130.606V137.841C501.288 138.553 501.423 139.044 501.693 139.314C501.964 139.584 502.44 139.719 503.123 139.719H504.489V141H502.888C501.835 141 501.053 140.758 500.541 140.274C500.028 139.776 499.772 138.965 499.772 137.841V130.606H498.15V129.347H499.772V126.423H501.288V129.347H504.489V130.606H501.288ZM512.127 135.173C512.127 133.964 512.369 132.911 512.853 132.014C513.337 131.104 514.005 130.407 514.859 129.923C515.713 129.425 516.687 129.176 517.783 129.176C519.22 129.176 520.401 129.532 521.326 130.243C522.265 130.954 522.87 131.922 523.14 133.146H521.539C521.34 132.306 520.906 131.652 520.238 131.182C519.583 130.698 518.765 130.456 517.783 130.456C517 130.456 516.296 130.634 515.67 130.99C515.044 131.346 514.546 131.879 514.176 132.591C513.82 133.288 513.642 134.149 513.642 135.173C513.642 136.198 513.82 137.066 514.176 137.777C514.546 138.489 515.044 139.022 515.67 139.378C516.296 139.734 517 139.911 517.783 139.911C518.765 139.911 519.583 139.677 520.238 139.207C520.906 138.723 521.34 138.055 521.539 137.201H523.14C522.87 138.396 522.265 139.357 521.326 140.082C520.387 140.808 519.206 141.171 517.783 141.171C516.687 141.171 515.713 140.929 514.859 140.445C514.005 139.947 513.337 139.25 512.853 138.353C512.369 137.443 512.127 136.383 512.127 135.173ZM531.001 141.171C529.905 141.171 528.916 140.929 528.034 140.445C527.166 139.947 526.476 139.25 525.964 138.353C525.466 137.443 525.217 136.383 525.217 135.173C525.217 133.964 525.473 132.911 525.985 132.014C526.497 131.104 527.194 130.407 528.077 129.923C528.959 129.425 529.948 129.176 531.043 129.176C532.139 129.176 533.128 129.425 534.01 129.923C534.906 130.407 535.604 131.104 536.102 132.014C536.614 132.911 536.87 133.964 536.87 135.173C536.87 136.369 536.614 137.421 536.102 138.332C535.589 139.243 534.885 139.947 533.989 140.445C533.092 140.929 532.096 141.171 531.001 141.171ZM531.001 139.869C531.769 139.869 532.48 139.698 533.135 139.357C533.789 139.001 534.316 138.474 534.714 137.777C535.127 137.066 535.333 136.198 535.333 135.173C535.333 134.149 535.134 133.288 534.736 132.591C534.337 131.879 533.811 131.353 533.156 131.011C532.502 130.656 531.79 130.478 531.022 130.478C530.254 130.478 529.542 130.656 528.888 131.011C528.233 131.353 527.707 131.879 527.308 132.591C526.924 133.288 526.732 134.149 526.732 135.173C526.732 136.198 526.924 137.066 527.308 137.777C527.707 138.474 528.226 139.001 528.866 139.357C529.521 139.698 530.232 139.869 531.001 139.869ZM545.057 129.133C546.452 129.133 547.59 129.567 548.472 130.435C549.354 131.289 549.795 132.534 549.795 134.17V141H548.323V134.341C548.323 133.075 548.003 132.107 547.362 131.438C546.736 130.769 545.875 130.435 544.78 130.435C543.656 130.435 542.759 130.791 542.091 131.502C541.422 132.214 541.087 133.26 541.087 134.64V141H539.593V129.347H541.087V131.331C541.457 130.62 541.991 130.079 542.688 129.709C543.385 129.325 544.175 129.133 545.057 129.133ZM552.417 135.173C552.417 133.964 552.659 132.911 553.142 132.014C553.626 131.104 554.295 130.407 555.149 129.923C556.002 129.425 556.977 129.176 558.073 129.176C559.51 129.176 560.691 129.532 561.616 130.243C562.555 130.954 563.159 131.922 563.43 133.146H561.829C561.63 132.306 561.196 131.652 560.527 131.182C559.873 130.698 559.054 130.456 558.073 130.456C557.29 130.456 556.586 130.634 555.96 130.99C555.334 131.346 554.836 131.879 554.466 132.591C554.11 133.288 553.932 134.149 553.932 135.173C553.932 136.198 554.11 137.066 554.466 137.777C554.836 138.489 555.334 139.022 555.96 139.378C556.586 139.734 557.29 139.911 558.073 139.911C559.054 139.911 559.873 139.677 560.527 139.207C561.196 138.723 561.63 138.055 561.829 137.201H563.43C563.159 138.396 562.555 139.357 561.616 140.082C560.677 140.808 559.496 141.171 558.073 141.171C556.977 141.171 556.002 140.929 555.149 140.445C554.295 139.947 553.626 139.25 553.142 138.353C552.659 137.443 552.417 136.383 552.417 135.173ZM576.733 134.576C576.733 135.088 576.718 135.479 576.69 135.75H567.022C567.064 136.632 567.278 137.386 567.662 138.012C568.046 138.638 568.551 139.115 569.177 139.442C569.803 139.755 570.486 139.911 571.226 139.911C572.194 139.911 573.005 139.677 573.659 139.207C574.328 138.738 574.769 138.104 574.983 137.308H576.562C576.277 138.446 575.666 139.378 574.726 140.104C573.802 140.815 572.635 141.171 571.226 141.171C570.131 141.171 569.149 140.929 568.281 140.445C567.413 139.947 566.73 139.25 566.232 138.353C565.748 137.443 565.506 136.383 565.506 135.173C565.506 133.964 565.748 132.904 566.232 131.993C566.716 131.082 567.391 130.385 568.259 129.901C569.127 129.418 570.116 129.176 571.226 129.176C572.336 129.176 573.304 129.418 574.129 129.901C574.968 130.385 575.609 131.04 576.05 131.865C576.505 132.676 576.733 133.58 576.733 134.576ZM575.217 134.533C575.232 133.665 575.054 132.925 574.684 132.313C574.328 131.701 573.837 131.239 573.211 130.926C572.585 130.613 571.902 130.456 571.162 130.456C570.052 130.456 569.106 130.812 568.323 131.524C567.541 132.235 567.107 133.238 567.022 134.533H575.217ZM580.96 131.417C581.287 130.691 581.785 130.129 582.454 129.731C583.137 129.332 583.97 129.133 584.951 129.133V130.691H584.546C583.464 130.691 582.596 130.983 581.942 131.566C581.287 132.15 580.96 133.124 580.96 134.49V141H579.466V129.347H580.96V131.417ZM592.663 129.133C594.057 129.133 595.196 129.567 596.078 130.435C596.96 131.289 597.401 132.534 597.401 134.17V141H595.928V134.341C595.928 133.075 595.608 132.107 594.968 131.438C594.342 130.769 593.481 130.435 592.385 130.435C591.261 130.435 590.365 130.791 589.696 131.502C589.027 132.214 588.693 133.26 588.693 134.64V141H587.199V129.347H588.693V131.331C589.063 130.62 589.596 130.079 590.294 129.709C590.991 129.325 591.781 129.133 592.663 129.133ZM600.897 126.081H602.626L600.748 130.691H599.659L600.897 126.081ZM608.928 141.171C607.591 141.171 606.495 140.865 605.641 140.253C604.802 139.627 604.332 138.78 604.233 137.713H605.769C605.84 138.368 606.146 138.901 606.687 139.314C607.242 139.712 607.982 139.911 608.907 139.911C609.718 139.911 610.351 139.719 610.806 139.335C611.276 138.951 611.511 138.474 611.511 137.905C611.511 137.507 611.383 137.18 611.126 136.923C610.87 136.667 610.543 136.468 610.145 136.326C609.76 136.169 609.234 136.006 608.565 135.835C607.697 135.607 606.993 135.38 606.452 135.152C605.912 134.924 605.449 134.59 605.065 134.149C604.695 133.693 604.51 133.089 604.51 132.335C604.51 131.765 604.681 131.239 605.022 130.755C605.364 130.271 605.847 129.887 606.474 129.603C607.1 129.318 607.811 129.176 608.608 129.176C609.86 129.176 610.87 129.496 611.639 130.136C612.407 130.762 612.82 131.63 612.877 132.74H611.383C611.34 132.057 611.069 131.509 610.571 131.097C610.088 130.67 609.419 130.456 608.565 130.456C607.811 130.456 607.199 130.634 606.73 130.99C606.26 131.346 606.025 131.787 606.025 132.313C606.025 132.769 606.161 133.146 606.431 133.444C606.715 133.729 607.064 133.957 607.477 134.127C607.889 134.284 608.444 134.462 609.141 134.661C609.981 134.889 610.65 135.109 611.148 135.323C611.646 135.536 612.073 135.849 612.428 136.262C612.784 136.674 612.969 137.222 612.983 137.905C612.983 138.531 612.813 139.093 612.471 139.591C612.13 140.075 611.653 140.459 611.041 140.744C610.429 141.028 609.725 141.171 608.928 141.171ZM631.257 129.347L624.342 146.485H622.784L625.046 140.936L620.265 129.347H621.909L625.878 139.293L629.72 129.347H631.257ZM638.384 141.171C637.288 141.171 636.299 140.929 635.417 140.445C634.549 139.947 633.859 139.25 633.347 138.353C632.849 137.443 632.6 136.383 632.6 135.173C632.6 133.964 632.856 132.911 633.368 132.014C633.881 131.104 634.578 130.407 635.46 129.923C636.342 129.425 637.331 129.176 638.427 129.176C639.522 129.176 640.511 129.425 641.393 129.923C642.29 130.407 642.987 131.104 643.485 132.014C643.997 132.911 644.253 133.964 644.253 135.173C644.253 136.369 643.997 137.421 643.485 138.332C642.973 139.243 642.268 139.947 641.372 140.445C640.476 140.929 639.48 141.171 638.384 141.171ZM638.384 139.869C639.152 139.869 639.864 139.698 640.518 139.357C641.173 139.001 641.699 138.474 642.098 137.777C642.51 137.066 642.717 136.198 642.717 135.173C642.717 134.149 642.517 133.288 642.119 132.591C641.721 131.879 641.194 131.353 640.54 131.011C639.885 130.656 639.174 130.478 638.405 130.478C637.637 130.478 636.925 130.656 636.271 131.011C635.616 131.353 635.09 131.879 634.692 132.591C634.307 133.288 634.115 134.149 634.115 135.173C634.115 136.198 634.307 137.066 634.692 137.777C635.09 138.474 635.609 139.001 636.25 139.357C636.904 139.698 637.616 139.869 638.384 139.869ZM657.072 129.347V141H655.578V138.951C655.237 139.677 654.71 140.232 653.999 140.616C653.287 141 652.49 141.192 651.608 141.192C650.214 141.192 649.076 140.765 648.193 139.911C647.311 139.044 646.87 137.791 646.87 136.155V129.347H648.343V135.984C648.343 137.251 648.656 138.218 649.282 138.887C649.922 139.556 650.79 139.89 651.886 139.89C653.01 139.89 653.906 139.534 654.575 138.823C655.244 138.112 655.578 137.066 655.578 135.686V129.347H657.072Z" fill="#5F5F5F"/>
<defs>
<filter id="filter0_d_297_3" x="0.522388" y="0.522388" width="930.955" height="292.955" filterUnits="userSpaceOnUse" color-interpolation-filters="sRGB">
<feFlood flood-opacity="0" result="BackgroundImageFix"/>
<feColorMatrix in="SourceAlpha" type="matrix" values="0 0 0 0 0 0 0 0 0 0 0 0 0 0 0 0 0 0 127 0" result="hardAlpha"/>
<feOffset/>
<feGaussianBlur stdDeviation="11.7388"/>
<feComposite in2="hardAlpha" operator="out"/>
<feColorMatrix type="matrix" values="0 0 0 0 0 0 0 0 0 0 0 0 0 0 0 0 0 0 0.12 0"/>
<feBlend mode="normal" in2="BackgroundImageFix" result="effect1_dropShadow_297_3"/>
<feBlend mode="normal" in="SourceGraphic" in2="effect1_dropShadow_297_3" result="shape"/>
</filter>
</defs>
</svg>
