<svg width="78" height="80" viewBox="0 0 78 80" fill="none" xmlns="http://www.w3.org/2000/svg">
<path d="M0.00805664 0.0371094H38.9596H65.1051C72.1776 0.0371094 77.911 5.77054 77.911 12.8431V66.2013C77.911 73.2738 72.1776 79.0073 65.1051 79.0073H38.9596H3.74313H0.948177C0.428963 79.0073 0.00805664 78.5863 0.00805664 78.0671V77.127V71.0162V0.0371094Z" fill="#0048D3"/>
<path d="M40.5677 20C30.7993 20 22.8521 27.9521 22.8521 37.7265C22.8521 41.1904 23.8509 44.4248 25.5745 47.1581L20.1536 52.5823C18.6161 54.1207 18.6161 56.6149 20.1536 58.1531C21.6911 59.6915 24.1837 59.6915 25.721 58.1531L31.1419 52.7289C33.8736 54.4535 37.106 55.453 40.5677 55.453C50.336 55.453 58.2833 47.5009 58.2833 37.7265C58.2833 27.9521 50.3362 20 40.5677 20ZM40.5677 51.5138C32.9701 51.5138 26.7889 45.3288 26.7889 37.7265C26.7889 30.1242 32.97 23.9392 40.5677 23.9392C48.1653 23.9392 54.3465 30.1242 54.3465 37.7265C54.3465 45.3288 48.1654 51.5138 40.5677 51.5138Z" fill="white"/>
</svg>
