<svg width="98" height="98" viewBox="0 0 98 98" fill="none" xmlns="http://www.w3.org/2000/svg">
<g clip-path="url(#clip0_317_762)">
<path d="M77.175 91.9521C77.175 94.8807 74.8016 97.235 71.8922 97.235H26.1078C23.1793 97.235 20.825 94.8807 20.825 91.9521C20.825 89.0236 23.1793 86.6693 26.1078 86.6693C27.1606 86.6693 28.1367 86.9756 28.9598 87.5115C29.2852 84.9084 31.5055 82.8986 34.2043 82.8986C35.257 82.8986 36.2524 83.2049 37.0754 83.7408C37.4008 81.1377 39.6211 79.1088 42.3199 79.1088V72.333H55.6609V79.1088C58.3598 79.1088 60.5801 81.1377 60.9055 83.7408C61.7285 83.2049 62.7238 82.8986 63.7766 82.8986C66.4754 82.8986 68.6957 84.9084 69.0211 87.5115C69.8442 86.9756 70.8203 86.6693 71.8731 86.6693C74.8016 86.6693 77.175 89.0236 77.175 91.9521Z" fill="#D3D8D9"/>
<path d="M45.3634 72.3125V82.1125C42.6646 82.1125 40.4442 84.1414 40.1188 86.7445C39.2958 86.2086 38.3196 85.9023 37.2478 85.9023C34.5489 85.9023 32.3095 87.9121 32.0032 90.5152C31.1802 89.9793 30.204 89.673 29.1513 89.673C26.2228 89.673 23.8685 92.0465 23.8685 94.9559C23.8685 95.6258 23.9833 96.2574 24.2321 96.8508C22.2415 96.1043 20.8442 94.1711 20.8442 91.9316C20.8442 89.0223 23.2177 86.6488 26.1271 86.6488C27.1798 86.6488 28.156 86.9551 28.9981 87.491C29.3235 84.8879 31.5438 82.8781 34.2427 82.8781C35.2954 82.8781 36.2907 83.1844 37.1138 83.7203C37.4392 81.1172 39.6595 79.0883 42.3583 79.0883V72.3125H45.3634Z" fill="#EDEDED"/>
<path d="M52.6368 72.3125V82.1125C55.3356 82.1125 57.5559 84.1414 57.8813 86.7445C58.7044 86.2086 59.6805 85.9023 60.7524 85.9023C63.4512 85.9023 65.6907 87.9121 65.9969 90.5152C66.82 89.9793 67.7962 89.673 68.8489 89.673C71.7774 89.673 74.1317 92.0465 74.1317 94.9559C74.1317 95.6258 74.0169 96.2574 73.768 96.8508C75.7587 96.1043 77.1559 94.1711 77.1559 91.9316C77.1559 89.0223 74.7825 86.6488 71.8731 86.6488C70.8204 86.6488 69.8442 86.9551 69.002 87.491C68.6766 84.8879 66.4563 82.8781 63.7575 82.8781C62.7048 82.8781 61.7094 83.1844 60.8864 83.7203C60.561 81.1172 58.3407 79.0883 55.6419 79.0883V72.3125H52.6368Z" fill="#A8B1B3"/>
<path d="M77.2898 67.758C77.2898 69.6338 76.9644 71.4522 76.3902 73.1557C76.1796 73.7682 75.3757 73.9213 74.9738 73.4045C71.7964 69.1553 66.7625 66.3799 61.0777 66.2842C62.341 61.9201 63.432 56.8861 64.0636 51.4502C71.6242 53.0389 77.2898 59.7381 77.2898 67.758Z" fill="#FB8A8A"/>
<path d="M36.9032 66.2838C31.2376 66.3986 26.1845 69.1549 23.0071 73.4041C22.6243 73.9209 21.8013 73.7678 21.5907 73.1553C21.0165 71.4518 20.7103 69.6334 20.7103 67.7576C20.7103 59.7377 26.3759 53.0385 33.9173 51.4307C34.5298 56.8857 35.64 61.9006 36.9032 66.2838Z" fill="#FB8A8A"/>
<path d="M77.29 67.7576C77.29 68.4275 77.2517 69.0783 77.1751 69.7291C76.3329 62.5896 70.9927 56.8283 64.0829 55.3736C63.6427 59.2592 62.9536 62.9533 62.1306 66.3221C61.786 66.2838 61.4415 66.2838 61.097 66.2647C62.3603 61.9006 63.4513 56.8666 64.0829 51.4307C71.6243 53.0385 77.29 59.7377 77.29 67.7576Z" fill="#FCB1B1"/>
<path d="M36.9032 66.2842C36.5587 66.2842 36.2142 66.3033 35.8696 66.3416C35.0466 62.9729 34.3575 59.2787 33.9173 55.3932C26.9884 56.8479 21.6482 62.6092 20.8251 69.7486C20.7485 69.0979 20.7103 68.4471 20.7103 67.7772C20.7103 59.7572 26.3759 53.058 33.9173 51.4502C34.5298 56.8861 35.64 61.901 36.9032 66.2842Z" fill="#FCB1B1"/>
<path d="M77.2899 67.7584C77.2899 69.6342 76.9645 71.4525 76.3903 73.1561C76.1798 73.7686 75.3759 73.9217 74.9739 73.4049C71.7966 69.1557 66.7626 66.3803 61.0778 66.2846C61.4606 64.9447 61.8434 63.5475 62.1688 62.0928C67.3942 62.5139 71.988 65.1936 74.9548 69.1748C75.3376 69.6916 76.1606 69.5385 76.3712 68.926C76.7157 67.8732 76.9837 66.7822 77.1368 65.6529C77.2516 66.342 77.2899 67.0502 77.2899 67.7584Z" fill="#F96363"/>
<path d="M36.9032 66.2842C31.2376 66.399 26.1845 69.1553 23.0071 73.4045C22.6243 73.9213 21.8013 73.7682 21.5907 73.1557C21.0165 71.4522 20.7103 69.6338 20.7103 67.758C20.7103 67.0307 20.7485 66.3416 20.8443 65.6334C20.9782 66.7627 21.2462 67.8537 21.5907 68.9064C21.8013 69.5189 22.6243 69.6721 23.0071 69.1553C25.9739 65.174 30.5868 62.4943 35.7931 62.0732C36.1376 63.5471 36.5204 64.9443 36.9032 66.2842Z" fill="#F96363"/>
<path d="M58.3789 70.7246L56.7711 75.3566H41.2289L39.6211 70.7246H58.3789Z" fill="#FB8A8A"/>
<path d="M43.9469 75.3566H41.2289L39.6211 70.7246H42.3391L43.9469 75.3566Z" fill="#FCB1B1"/>
<path d="M58.3789 70.7246L56.7711 75.3566H54.0532L55.661 70.7246H58.3789Z" fill="#F96363"/>
<path d="M59.6805 70.7252C62.2645 63.2986 64.6188 53.1924 64.6188 42.0525C64.6188 19.2561 49 0.74707 49 0.74707C49 0.74707 33.3813 19.2369 33.3813 42.0525C33.3813 53.1924 35.7356 63.2986 38.3196 70.7252H59.6805Z" fill="white"/>
<path d="M37.3817 42.0525C37.3817 53.1924 39.736 63.2986 42.32 70.7252H38.3196C35.7356 63.2986 33.3813 53.1924 33.3813 42.0525C33.3813 19.2369 49 0.74707 49 0.74707C49 0.74707 49.7848 1.66582 51.0098 3.36934C46.7797 9.26465 37.3817 24.3666 37.3817 42.0525Z" fill="#EDEDED"/>
<path d="M64.6188 42.0525C64.6188 53.1924 62.2645 63.2986 59.6805 70.7252H55.6801C58.2641 63.2986 60.6184 53.1924 60.6184 42.0525C60.6184 24.3475 51.2012 9.26465 46.9902 3.36934C48.2152 1.68496 49 0.74707 49 0.74707C49 0.74707 64.6188 19.2369 64.6188 42.0525Z" fill="#EDEDED"/>
<path d="M56.8668 12.9396C52.943 5.41738 49 0.74707 49 0.74707C49 0.74707 45.0571 5.41738 41.1332 12.9396H56.8668Z" fill="#FB8A8A"/>
<path d="M49.3829 1.24414C48.6555 2.62227 46.5309 6.8332 44.8465 12.9582H41.1332C45.0571 5.43594 48.9809 0.765625 48.9809 0.765625C48.9809 0.765625 49.134 0.91875 49.3829 1.24414Z" fill="#FCB1B1"/>
<path d="M48.6172 1.24414C49.3445 2.62227 51.4691 6.8332 53.1535 12.9582H56.8668C52.943 5.43594 49.0191 0.765625 49.0191 0.765625C49.0191 0.765625 48.866 0.91875 48.6172 1.24414Z" fill="#F96363"/>
<path d="M71.8922 85.9033C71.0883 85.9033 70.3035 86.0564 69.557 86.3627C68.5043 82.9939 64.7527 81.2139 61.4414 82.592C60.7523 80.3525 58.7808 78.6873 56.4265 78.3811V76.1033H56.7711C57.0965 76.1033 57.3836 75.8928 57.4984 75.5865L58.9148 71.4904H59.6805C60.0058 71.4904 60.293 71.2799 60.4078 70.9736C60.8098 69.7869 61.25 68.4853 61.6711 67.0689C66.7242 67.3369 71.3371 69.7869 74.3805 73.8639C74.6867 74.2658 75.1461 74.4955 75.6246 74.4955C75.7012 74.4955 75.7969 74.4955 75.8734 74.4764C76.4668 74.3807 76.9453 73.9787 77.1367 73.4236C77.7492 71.5861 78.0746 69.6912 78.0746 67.7771C78.0746 59.8146 72.5812 52.8283 64.925 50.876C65.2312 48.0814 65.4035 45.1338 65.4035 42.0713C65.4035 19.2365 49.7656 0.45957 49.5933 0.268164C49.3062 -0.0763672 48.7129 -0.0763672 48.4258 0.268164C48.2726 0.45957 32.6156 19.2365 32.6156 42.0713C32.6156 45.1338 32.7879 48.0814 33.0941 50.876C25.4379 52.8283 19.9445 59.8146 19.9445 67.7771C19.9445 69.6912 20.2508 71.6053 20.8633 73.4236C21.0547 73.9787 21.5332 74.3998 22.1266 74.4764C22.2031 74.4955 22.2988 74.4955 22.3754 74.4955C22.8539 74.4955 23.3324 74.2658 23.6195 73.8639C26.6629 69.7869 31.2758 67.3369 36.3289 67.0689C36.75 68.4853 37.1711 69.806 37.5922 70.9736C37.707 71.2799 37.9941 71.4904 38.3195 71.4904H39.0851L40.5207 75.5865C40.6355 75.8928 40.9226 76.1033 41.248 76.1033H41.5734V78.3811C39.2191 78.6873 37.2668 80.3334 36.5586 82.592C33.2664 81.2139 29.4957 82.9748 28.443 86.3627C27.7156 86.0564 26.9117 85.9033 26.1078 85.9033C22.7582 85.9033 20.0594 88.6213 20.0594 91.9518C20.0594 95.2822 22.7773 98.0002 26.1078 98.0002H71.8922C75.2418 98.0002 77.9406 95.2822 77.9406 91.9518C77.9406 88.6213 75.2226 85.9033 71.8922 85.9033ZM76.5242 67.758C76.5242 69.4998 76.2371 71.2225 75.6629 72.9068L75.5863 72.9451C72.3324 68.6002 67.4515 65.9396 62.073 65.5568C63.1258 61.7861 64.1019 57.3455 64.7144 52.4072C71.6242 54.2447 76.5242 60.5611 76.5242 67.758ZM49 1.97168C50.1484 3.44551 52.809 7.06309 55.5652 12.1736H42.4348C45.191 7.08223 47.8516 3.46465 49 1.97168ZM22.3945 72.9451L22.318 72.9068C21.7629 71.2416 21.4758 69.4998 21.4758 67.758C21.4758 60.5611 26.3949 54.2447 33.2664 52.4072C33.8789 57.3455 34.8551 61.7861 35.9078 65.5568C30.5293 65.9396 25.6484 68.6002 22.3945 72.9451ZM38.8555 69.9592C36.6543 63.5088 34.1469 53.5748 34.1469 42.0521C34.1469 31.0846 37.8601 21.074 41.6308 13.7049H56.3691C60.159 21.074 63.8531 31.0846 63.8531 42.0521C63.8531 53.5748 61.3265 63.5088 59.1445 69.9592C55.0676 69.9592 42.9516 69.9592 38.8555 69.9592ZM40.693 71.4904H57.307L56.2351 74.5721H41.7648L40.693 71.4904ZM71.8922 96.4689H26.1078C23.6195 96.4689 21.5906 94.44 21.5906 91.9518C21.5906 89.4635 23.6195 87.4346 26.1078 87.4346C26.9691 87.4346 27.8113 87.6834 28.5578 88.1619C28.7875 88.2959 29.0555 88.315 29.3043 88.2193C29.534 88.1045 29.7062 87.8748 29.7445 87.626C30.1465 84.3529 33.8789 82.592 36.6926 84.4103C36.9223 84.5443 37.1902 84.5635 37.4391 84.4678C37.6687 84.3529 37.841 84.1232 37.8793 83.8744C38.1664 81.6158 40.0805 79.9123 42.3582 79.9123C42.7793 79.9123 43.1238 79.5678 43.1238 79.1467V76.1607H54.9336V79.1467C54.9336 79.5678 55.2781 79.9123 55.6992 79.9123C57.9769 79.9123 59.9101 81.6158 60.1781 83.8744C60.2164 84.1424 60.3695 84.3721 60.6184 84.4678C60.848 84.5826 61.1351 84.5635 61.3648 84.4103C64.1785 82.592 67.8918 84.3721 68.3129 87.6451C68.3512 87.9131 68.5043 88.1236 68.7531 88.2385C68.9828 88.3533 69.2699 88.3342 69.4996 88.1811C70.2269 87.7025 71.0691 87.4537 71.9496 87.4537C74.4379 87.4537 76.4668 89.4826 76.4668 91.9709C76.4094 94.44 74.3805 96.4689 71.8922 96.4689Z" fill="#333333"/>
<path d="M49 36.2135C52.8902 36.2135 56.0438 33.0599 56.0438 29.1697C56.0438 25.2796 52.8902 22.126 49 22.126C45.1099 22.126 41.9563 25.2796 41.9563 29.1697C41.9563 33.0599 45.1099 36.2135 49 36.2135Z" fill="#7AD1F9"/>
<path d="M50.0719 23.7912C50.0719 27.3514 47.1817 30.2607 43.6024 30.2607C43.0473 30.2607 42.5114 30.1842 41.9946 30.0502C41.9563 29.7631 41.9371 29.476 41.9371 29.1697C41.9371 25.2842 45.0953 22.126 48.9809 22.126C49.268 22.126 49.5742 22.1451 49.8614 22.1834C50.0145 22.7002 50.0719 23.2361 50.0719 23.7912Z" fill="#A6E1FB"/>
<path d="M56.0438 29.1701C56.0438 33.0557 52.8856 36.2139 49 36.2139C46.282 36.2139 43.9086 34.6635 42.741 32.3857C43.6981 32.8834 44.8082 33.1705 45.9567 33.1705C49.8613 33.1705 53.0004 30.0123 53.0004 26.1268C53.0004 24.9592 52.7133 23.8682 52.2156 22.9111C54.4934 24.0787 56.0438 26.4521 56.0438 29.1701Z" fill="#4CC3F7"/>
<path d="M49 36.9791C44.6934 36.9791 41.1907 33.4764 41.1907 29.1697C41.1907 24.8631 44.6934 21.3604 49 21.3604C53.3067 21.3604 56.8094 24.8631 56.8094 29.1697C56.8094 33.4764 53.3067 36.9791 49 36.9791ZM49 22.8916C45.5356 22.8916 42.7219 25.7053 42.7219 29.1697C42.7219 32.6342 45.5356 35.4479 49 35.4479C52.4645 35.4479 55.2782 32.6342 55.2782 29.1697C55.2782 25.7053 52.4645 22.8916 49 22.8916Z" fill="#333333"/>
</g>
<defs>
<clipPath id="clip0_317_762">
<rect width="98" height="98" fill="white"/>
</clipPath>
</defs>
</svg>
