<svg width="98" height="106" viewBox="0 0 98 106" fill="none" xmlns="http://www.w3.org/2000/svg">
<g clip-path="url(#clip0_317_550)" filter="url(#filter0_d_317_550)">
<path d="M86.2859 70.5141C85.884 71.2414 85.1184 71.6242 84.3527 71.6242C83.9699 71.6242 83.5871 71.5285 83.2426 71.318L51.2394 52.8281V89.7887C51.2394 91.0137 50.2441 92.0281 49 92.0281C47.775 92.0281 46.7605 91.0328 46.7605 89.7887V52.8664L14.7574 71.3371C14.4129 71.5285 14.0301 71.6434 13.6473 71.6434C12.8816 71.6434 12.116 71.2414 11.7141 70.5332C11.1016 69.4613 11.4652 68.1023 12.5371 67.4898L44.5402 49L12.5371 30.5102C11.4652 29.8977 11.1016 28.5387 11.7141 27.4668C12.3266 26.3949 13.7047 26.0312 14.7574 26.6437L46.7605 45.1336V8.17305C46.7605 6.94805 47.7559 5.93359 49 5.93359C50.225 5.93359 51.2394 6.92891 51.2394 8.17305V45.1336L83.2426 26.6437C84.3144 26.0312 85.6734 26.3949 86.2859 27.4668C86.8984 28.5387 86.5348 29.8977 85.4629 30.5102L53.4406 49L85.4629 67.4898C86.5348 68.0832 86.8984 69.4613 86.2859 70.5141Z" fill="#EDEDED"/>
<path d="M72.8875 48.9998C72.8875 62.1877 62.1879 72.8873 49 72.8873C35.8121 72.8873 25.1125 62.1877 25.1125 48.9998C25.1125 35.8119 35.8121 25.1123 49 25.1123C62.1879 25.1123 72.8875 35.8119 72.8875 48.9998Z" fill="white"/>
<path d="M72.8875 49C72.8875 62.1879 62.207 72.8875 49 72.8875C40.693 72.8875 33.3812 68.6383 29.1129 62.207C32.9027 64.7336 37.4199 66.1883 42.3199 66.1883C55.5078 66.1883 66.2074 55.5078 66.2074 42.3199C66.2074 37.4391 64.7336 32.8836 62.2262 29.0938C68.6383 33.3812 72.8875 40.693 72.8875 49Z" fill="#EDEDED"/>
<path d="M64.0637 60.6371V67.5277C59.9484 70.8773 54.7039 72.8871 48.9808 72.8871C43.2769 72.8871 38.0324 70.8773 33.9172 67.5277V60.6371C33.9172 55.316 38.2238 50.9902 43.5449 50.9902H54.4168C59.757 51.0094 64.0637 55.316 64.0637 60.6371Z" fill="#BD90BE"/>
<path d="M64.0637 60.6371V64.3504C64.0637 59.0293 59.757 54.7227 54.4359 54.7227H43.564C38.243 54.7227 33.9363 59.0484 33.9363 64.3504V60.6371C33.9363 55.316 38.243 50.9902 43.564 50.9902H54.4359C59.757 51.0094 64.0637 55.316 64.0637 60.6371Z" fill="#D3B5D3"/>
<path d="M55.8141 39.7549V46.3584C55.8141 49.842 52.9812 52.6748 49.4977 52.6748C46.0141 52.6748 43.1812 49.842 43.1812 46.3584V39.7549H55.8141Z" fill="#FEE8B3"/>
<path d="M55.8141 39.7549H43.1812V42.3006H55.8141V39.7549Z" fill="#FFF4D9"/>
<path d="M60.2355 32.749L55.8141 39.7545H43.1812V35.7158C43.1812 34.0889 44.5211 32.749 46.148 32.749H60.2355Z" fill="#516468"/>
<path d="M60.2355 32.749L58.4172 35.6393H46.148C44.5211 35.6393 43.1812 36.9791 43.1812 38.6061V35.7158C43.1812 34.0889 44.5211 32.749 46.148 32.749H60.2355Z" fill="#7C8B8D"/>
<path d="M56.4266 8.17266C56.4266 12.2688 53.0961 15.5992 49 15.5992C44.8848 15.5992 41.5735 12.2688 41.5735 8.17266C41.5735 4.05742 44.9039 0.746094 49 0.746094C53.0961 0.746094 56.4266 4.07656 56.4266 8.17266Z" fill="#FB8A8A"/>
<path d="M56.4265 89.8261C56.4265 93.9221 53.0961 97.2526 49 97.2526C44.8848 97.2526 41.5734 93.9221 41.5734 89.8261C41.5734 85.7108 44.9039 82.3995 49 82.3995C53.0961 82.3804 56.4265 85.7108 56.4265 89.8261Z" fill="#FB8A8A"/>
<path d="M17.3605 22.146C20.9207 24.194 22.1265 28.7495 20.0785 32.3097C18.0304 35.8698 13.475 37.0757 9.9148 35.0276C6.35464 32.9796 5.14878 28.4241 7.19683 24.864C9.26401 21.3229 13.8003 20.0979 17.3605 22.146Z" fill="#FDDD8D"/>
<path d="M88.0659 62.9731C91.6261 65.0212 92.832 69.5767 90.7839 73.1368C88.7359 76.697 84.1804 77.9028 80.6202 75.8548C77.0601 73.8067 75.8542 69.2513 77.9023 65.6911C79.9695 62.1501 84.5058 60.9251 88.0659 62.9731Z" fill="#FDDD8D"/>
<path d="M9.93392 62.9722C13.4941 60.9241 18.0304 62.1491 20.0976 65.6901C22.1456 69.2503 20.9206 73.7866 17.3796 75.8538C13.8003 77.9018 9.264 76.6769 7.21595 73.1167C5.14877 69.5757 6.37377 65.0202 9.93392 62.9722Z" fill="#7BDE9E"/>
<path d="M80.6394 22.146C84.1996 20.0979 88.7359 21.3229 90.8031 24.864C92.8511 28.4241 91.6261 32.9604 88.0851 35.0276C84.5249 37.0757 79.9886 35.8698 77.9214 32.3097C75.8542 28.7495 77.0792 24.2132 80.6394 22.146Z" fill="#7BDE9E"/>
<path d="M56.4266 8.17285C56.4266 12.2689 53.0961 15.5994 49 15.5994C45.8609 15.5994 43.2004 13.6662 42.1094 10.9482C42.9707 11.2928 43.9086 11.4842 44.8848 11.4842C48.9809 11.4842 52.3113 8.15371 52.3113 4.05762C52.3113 3.08145 52.1199 2.12441 51.7754 1.28223C54.4934 2.37324 56.4266 5.05293 56.4266 8.17285Z" fill="#F96363"/>
<path d="M56.4266 89.8268C56.4266 93.9228 53.0961 97.2533 49 97.2533C45.8609 97.2533 43.2004 95.3201 42.1094 92.583C42.9707 92.9275 43.9086 93.1189 44.8848 93.1189C48.9809 93.1189 52.3113 89.7885 52.3113 85.6924C52.3113 84.7162 52.1199 83.7783 51.7754 82.917C54.5125 84.0271 56.4266 86.6877 56.4266 89.8268Z" fill="#F96363"/>
<path d="M20.0785 32.309C18.0305 35.8691 13.475 37.075 9.91483 35.027C8.42186 34.1656 7.33085 32.8641 6.73749 31.3711C10.1254 32.7301 14.0683 31.4285 15.9441 28.1938C17.1308 26.1266 17.2266 23.7531 16.4035 21.7051C16.7289 21.8391 17.0351 21.973 17.3414 22.1645C20.9207 24.2125 22.1266 28.7488 20.0785 32.309Z" fill="#FDD267"/>
<path d="M90.784 73.1166C88.7359 76.6768 84.1805 77.8826 80.6203 75.8346C79.1273 74.9732 78.0363 73.6525 77.443 72.1787C80.8117 73.5377 84.7738 72.2553 86.6496 69.0014C87.8363 66.9533 87.932 64.5607 87.109 62.5127C87.4344 62.6467 87.7406 62.7998 88.0469 62.9721C91.6262 65.0201 92.832 69.5756 90.784 73.1166Z" fill="#FDD267"/>
<path d="M17.3605 75.8537C13.8004 77.9018 9.26404 76.6768 7.216 73.1166C7.04373 72.8103 6.89061 72.5041 6.75662 72.1787C8.80467 73.0018 11.1781 72.9061 13.2453 71.7193C16.4992 69.8436 17.7816 65.8814 16.4226 62.5127C17.9156 63.1061 19.2172 64.1779 20.0785 65.69C22.1265 69.2502 20.9207 73.7865 17.3605 75.8537Z" fill="#50D27E"/>
<path d="M88.066 35.027C84.5058 37.0941 79.9695 35.8691 77.9023 32.309C77.73 32.0027 77.5769 31.6965 77.4429 31.3711C79.491 32.1941 81.8836 32.0984 83.9316 30.9117C87.1664 29.0359 88.4679 25.0738 87.1089 21.7051C88.6019 22.2984 89.9035 23.3895 90.7648 24.8824C92.832 28.4234 91.6261 32.9789 88.066 35.027Z" fill="#50D27E"/>
<path d="M88.4488 62.3219C85.4437 60.5992 81.8262 60.9629 79.2422 63.0301L71.6625 58.6469C72.9258 55.6801 73.634 52.4262 73.634 49C73.634 45.5738 72.9258 42.3008 71.6625 39.334L79.2613 34.9508C81.8262 36.9988 85.4629 37.3816 88.468 35.659C92.3918 33.4004 93.7125 28.4047 91.4539 24.4809C89.1953 20.5762 84.1996 19.2363 80.2758 21.4949C77.2898 23.2176 75.7777 26.5289 76.2754 29.8211L68.6765 34.2043C64.7527 28.9789 58.7808 25.3805 51.9859 24.5574V15.791C55.0293 14.6043 57.1922 11.6375 57.1922 8.17305C57.173 3.675 53.498 0 49 0C44.5019 0 40.8269 3.675 40.8269 8.17305C40.8269 11.6375 42.9898 14.5852 46.0332 15.791V24.5574C39.2191 25.3805 33.2664 28.9789 29.3234 34.2043L21.7246 29.8211C22.2223 26.5863 20.7293 23.2367 17.7434 21.5141C13.8195 19.2555 8.84296 20.5953 6.56523 24.5C4.30663 28.4047 5.64648 33.4195 9.55117 35.6781C12.5562 37.4199 16.193 37.018 18.7578 34.9699L26.3375 39.3531C25.0742 42.3199 24.366 45.5738 24.366 49C24.366 52.4262 25.0742 55.6801 26.3375 58.6469L18.7578 63.0301C16.2121 60.982 12.5562 60.5992 9.57031 62.3219C5.66562 64.5805 4.32578 69.5953 6.58437 73.5C8.82382 77.3855 13.8387 78.7445 17.7625 76.4859C20.7484 74.7633 22.2414 71.4137 21.7437 68.1789L29.3426 63.7957C33.2664 69.0211 39.2383 72.6195 46.0332 73.4426V82.2281C42.9898 83.4148 40.8269 86.3816 40.8269 89.8461C40.8269 94.3633 44.5019 98.0191 49 98.0191C53.498 98.0191 57.173 94.3441 57.173 89.8461C57.173 86.3816 55.0101 83.434 51.9668 82.2281V73.4617C58.7808 72.6387 64.7336 69.0402 68.6765 63.8148L76.2754 68.198C75.7777 71.4328 77.2707 74.7824 80.2566 76.5051C84.1613 78.7637 89.157 77.4238 91.4348 73.5191C93.6933 69.5953 92.3535 64.5805 88.4488 62.3219ZM81.0031 22.7965C84.2187 20.9398 88.3148 22.0691 90.1332 25.2465C91.9898 28.443 90.8797 32.5391 87.6832 34.3766C84.4867 36.2141 80.3906 35.1422 78.5531 31.9266C76.7156 28.7301 77.7875 24.6531 81.0031 22.7965ZM76.639 31.3141C76.8113 31.7734 77.0027 32.2328 77.2707 32.673C77.5195 33.1133 77.8066 33.5152 78.132 33.898L71.0117 37.9941C70.5715 37.0945 70.0738 36.2523 69.5187 35.4293L76.639 31.3141ZM42.3008 8.17305C42.3008 4.47891 45.3058 1.47383 49 1.47383C52.6941 1.47383 55.6992 4.47891 55.6992 8.17305C55.6992 11.8672 52.6941 14.8723 49 14.8723C45.3058 14.8723 42.3008 11.8672 42.3008 8.17305ZM49 16.3652C49.5168 16.3652 49.9953 16.3078 50.493 16.2312V24.4426C49.9953 24.4234 49.4976 24.4043 49 24.4043C48.5023 24.4043 48.0047 24.4234 47.507 24.4426V16.2121C47.9855 16.3078 48.4832 16.3652 49 16.3652ZM10.2976 34.3766C7.10117 32.5199 5.99101 28.443 7.84765 25.2465C9.68515 22.05 13.7812 20.9398 16.9777 22.7965C20.1742 24.634 21.2652 28.7492 19.4277 31.9266C17.5902 35.1422 13.4941 36.2332 10.2976 34.3766ZM19.868 33.898C20.1934 33.5152 20.4805 33.1133 20.7293 32.673C20.9781 32.2328 21.1887 31.7734 21.3418 31.3141L28.4621 35.4102C27.9262 36.2332 27.4285 37.0945 26.9691 37.975L19.868 33.898ZM16.9969 75.2035C13.7812 77.0602 9.70429 75.95 7.86679 72.7535C6.02929 69.557 7.12031 65.4609 10.3168 63.6234C13.5133 61.7859 17.6094 62.8578 19.4469 66.0734C21.2844 69.2508 20.1934 73.366 16.9969 75.2035ZM21.3418 66.6859C21.1695 66.2266 20.9781 65.7672 20.7293 65.3269C20.4805 64.8867 20.1742 64.4848 19.868 64.1211L26.9691 60.0059C27.4094 60.9055 27.907 61.7477 28.4621 62.5707L21.3418 66.6859ZM55.6801 89.8269C55.6801 93.5211 52.675 96.5262 48.9808 96.5262C45.2867 96.5262 42.2816 93.5211 42.2816 89.8269C42.2816 86.1328 45.2867 83.1277 48.9808 83.1277C52.675 83.1277 55.6801 86.1328 55.6801 89.8269ZM49 81.6348C48.4832 81.6348 47.9855 81.6922 47.507 81.7687V73.5574C48.0047 73.5957 48.5023 73.5957 49 73.5957C49.4976 73.5957 49.9953 73.5766 50.493 73.5574V81.7687C49.9953 81.6922 49.4976 81.6348 49 81.6348ZM63.3172 67.1453C61.5754 68.5234 59.623 69.6719 57.5176 70.5141V60.293C57.5176 59.8719 57.1922 59.5465 56.7711 59.5465C56.3691 59.5465 56.0246 59.8719 56.0246 60.293V71.05C53.8043 71.7582 51.4308 72.141 48.9808 72.141C46.5308 72.141 44.1574 71.7582 41.9562 71.05V60.293C41.9562 59.8719 41.6308 59.5465 41.2098 59.5465C40.8078 59.5465 40.4633 59.8719 40.4633 60.293V70.5141C38.3578 69.6719 36.4055 68.5426 34.6637 67.1644V60.6566C34.6637 55.7566 38.6449 51.7562 43.5449 51.7562H44.9422C46.1672 52.7898 47.7558 53.4215 49.4976 53.4215C51.2394 53.4215 52.8281 52.7898 54.0531 51.7562H54.4359C59.3359 51.7562 63.3363 55.7566 63.3363 60.6566V67.1453H63.3172ZM55.0676 40.5016V46.3586C55.0676 49.4211 52.5601 51.9285 49.4976 51.9285C46.4351 51.9285 43.9277 49.4211 43.9277 46.3586V40.5016H55.0676ZM43.9277 39.0086V35.7164C43.9277 34.4914 44.923 33.4961 46.148 33.4961H58.8766L55.393 39.0086H43.9277ZM64.8101 65.8629V60.6375C64.8101 55.2207 60.6375 50.7609 55.3547 50.3016C56.1203 49.1723 56.5605 47.8133 56.5605 46.3586V39.9656L60.8672 33.1324C61.0203 32.9027 61.0203 32.6156 60.8863 32.3859C60.7523 32.1562 60.5035 32.0031 60.2355 32.0031H46.148C44.1 32.0031 42.4348 33.6684 42.4348 35.7164V46.3586C42.4348 47.7941 42.875 49.134 43.6215 50.2633H43.5641C37.841 50.2633 33.209 54.9336 33.209 60.6566V65.882C28.7109 61.652 25.8781 55.6609 25.8781 49.0191C25.8781 36.2523 36.2523 25.8781 49.0191 25.8781C61.7859 25.8781 72.141 36.2332 72.141 49C72.141 55.6609 69.3082 61.652 64.8101 65.8629ZM69.5379 62.5707C70.0738 61.7477 70.5715 60.8863 71.0308 60.0059L78.1512 64.1019C77.8258 64.4848 77.5387 64.8867 77.2898 65.3078C77.041 65.748 76.8305 66.2074 76.6773 66.6668L69.5379 62.5707ZM90.1523 72.7535C88.2957 75.95 84.2187 77.0602 81.0222 75.2035C77.8258 73.3469 76.7156 69.2699 78.5723 66.0734C80.4289 62.8769 84.5058 61.7668 87.7023 63.6234C90.8988 65.4609 91.9898 69.557 90.1523 72.7535Z" fill="#333333"/>
</g>
<defs>
<filter id="filter0_d_317_550" x="-4" y="0" width="106" height="106" filterUnits="userSpaceOnUse" color-interpolation-filters="sRGB">
<feFlood flood-opacity="0" result="BackgroundImageFix"/>
<feColorMatrix in="SourceAlpha" type="matrix" values="0 0 0 0 0 0 0 0 0 0 0 0 0 0 0 0 0 0 127 0" result="hardAlpha"/>
<feOffset dy="4"/>
<feGaussianBlur stdDeviation="2"/>
<feComposite in2="hardAlpha" operator="out"/>
<feColorMatrix type="matrix" values="0 0 0 0 0 0 0 0 0 0 0 0 0 0 0 0 0 0 0.25 0"/>
<feBlend mode="normal" in2="BackgroundImageFix" result="effect1_dropShadow_317_550"/>
<feBlend mode="normal" in="SourceGraphic" in2="effect1_dropShadow_317_550" result="shape"/>
</filter>
<clipPath id="clip0_317_550">
<rect width="98" height="98" fill="white"/>
</clipPath>
</defs>
</svg>
