<svg width="98" height="98" viewBox="0 0 98 98" fill="none" xmlns="http://www.w3.org/2000/svg">
<g clip-path="url(#clip0_317_612)">
<path d="M20.0211 35.2193V56.0635H7.40739C6.50778 56.0635 5.76129 55.3361 5.76129 54.4174V36.8463C5.76129 35.9467 6.48864 35.2002 7.40739 35.2002H20.0211V35.2193Z" fill="#FC8A8A"/>
<path d="M20.0211 52.3879V56.0437H7.40745C6.50784 56.0437 5.76135 55.3164 5.76135 54.3977V50.7227C5.76135 51.6414 6.4887 52.3688 7.40745 52.3688H20.0211V52.3879Z" fill="#F96364"/>
<path d="M20.0211 35.2188V38.8746H7.40745C6.50784 38.8746 5.76135 39.602 5.76135 40.5207V36.8648C5.76135 35.9461 6.4887 35.2188 7.40745 35.2188H20.0211Z" fill="#FCB0B0"/>
<path d="M0.765625 39.1611V52.1002C0.765625 52.9998 1.49297 53.7463 2.41172 53.7463H5.78047V37.5342H2.41172C1.49297 37.5342 0.765625 38.2615 0.765625 39.1611Z" fill="#D3D9D9"/>
<path d="M5.78047 37.5342V40.3287H2.41172C1.51211 40.3287 0.765625 41.0561 0.765625 41.9748V39.1803C0.765625 38.2807 1.49297 37.5342 2.41172 37.5342H5.78047Z" fill="#E8EAEA"/>
<path d="M5.78047 50.9518V53.7463H2.41172C1.51211 53.7463 0.765625 53.0189 0.765625 52.1002V49.3057C0.765625 50.2053 1.49297 50.9518 2.41172 50.9518H5.78047Z" fill="#A8B2B4"/>
<path d="M55.9672 18.3174L20.0211 35.2186V56.0627L55.9672 72.9639V18.3174Z" fill="#FEDD8E"/>
<path d="M63.145 17.8768V73.3846C63.145 74.2459 62.4368 74.9732 61.5563 74.9732H57.5559C56.6946 74.9732 55.9672 74.265 55.9672 73.3846V17.8768C55.9672 17.0154 56.6754 16.2881 57.5559 16.2881H61.5563C62.4176 16.2881 63.145 17.0154 63.145 17.8768Z" fill="#FC8A8A"/>
<path d="M63.145 17.8768V22.2217C63.145 21.3604 62.4368 20.633 61.5563 20.633H57.5559C56.6946 20.633 55.9672 21.3412 55.9672 22.2217V17.8768C55.9672 17.0154 56.6754 16.2881 57.5559 16.2881H61.5563C62.4176 16.2881 63.145 17.0154 63.145 17.8768Z" fill="#FCB0B0"/>
<path d="M63.1449 69.04V73.385C63.1449 74.2463 62.4367 74.9736 61.5562 74.9736H57.5558C56.6945 74.9736 55.9672 74.2654 55.9672 73.385V69.04C55.9672 69.9014 56.6754 70.6287 57.5558 70.6287H61.5562C62.4176 70.6287 63.1449 69.9205 63.1449 69.04Z" fill="#F96364"/>
<path d="M55.9672 67.3369L20.0211 50.6846V56.0631L55.9672 72.9643V67.3369Z" fill="#FDD367"/>
<path d="M55.9672 18.3174L20.0211 35.2186V40.5971L55.9672 23.9447V18.3174Z" fill="#FEE9B4"/>
<path d="M18.3559 64.6184C18.3559 66.7621 16.7289 66.7621 16.7289 68.8867C16.7289 71.0305 18.3559 71.0305 18.3559 73.1551C18.3559 75.2988 16.7289 75.2988 16.7289 77.4234C16.7289 79.5672 18.3559 79.5672 18.3559 81.6918H9.30236C8.26876 81.6918 7.42657 80.8688 7.42657 79.8352V56.0625H18.3559C18.3559 58.2062 16.7289 58.2063 16.7289 60.3309C16.7289 62.4746 18.3559 62.4746 18.3559 64.6184Z" fill="#D3D9D9"/>
<path d="M16.7289 60.3305C16.7289 60.3688 16.7289 60.4262 16.7289 60.4645H7.42657V56.043H18.375C18.375 58.2059 16.7289 58.2059 16.7289 60.3305Z" fill="#E8EAEA"/>
<path d="M18.375 81.7107H9.30236C8.2879 81.7107 7.42657 80.8877 7.42657 79.8541V75.4326C7.42657 76.4662 8.26876 77.2893 9.30236 77.2893H16.7289C16.7289 77.3275 16.7289 77.385 16.7289 77.4232C16.7289 79.567 18.375 79.567 18.375 81.7107Z" fill="#A8B2B4"/>
<path d="M61.5563 15.5225H57.5559C56.2734 15.5225 55.2398 16.5561 55.2207 17.8193L19.868 34.4525H7.42656C6.125 34.4525 5.07227 35.4861 5.03398 36.7686H2.41172C1.09102 36.7686 0 37.8404 0 39.1803V52.1193C0 53.44 1.07188 54.5311 2.41172 54.5311H5.01484C5.05313 55.5646 5.74219 56.4068 6.66094 56.7131V79.8732C6.66094 81.3279 7.84766 82.5146 9.30234 82.5146H18.375C18.7961 82.5146 19.1406 82.1701 19.1406 81.749C19.1406 80.4283 18.6047 79.7201 18.1645 79.1459C17.284 77.9975 17.2457 77.0021 18.1645 75.8154C19.4469 74.1502 19.5426 72.4084 18.1645 70.6092C17.2648 69.4225 17.2648 68.4271 18.1645 67.2596C19.4852 65.4986 19.4852 63.8143 18.1645 62.0533C17.3031 60.924 17.2457 59.9287 18.1645 58.7228C18.509 58.2826 18.9109 57.7275 19.0641 56.8854H19.8488L55.2016 73.5186C55.2398 74.7818 56.2734 75.8154 57.5367 75.8154H61.5371C62.8387 75.8154 63.8914 74.7627 63.8914 73.4611V17.9533C63.9105 16.5752 62.8578 15.5225 61.5563 15.5225ZM5.01484 52.9807H2.41172C1.9332 52.9807 1.53125 52.5979 1.53125 52.1002V39.1611C1.53125 38.6826 1.91406 38.2807 2.41172 38.2807H5.01484V52.9807ZM16.9395 66.2834C15.6187 68.0061 15.6379 69.8053 16.9395 71.4896C17.8582 72.6955 17.8199 73.6908 16.9395 74.8393C15.6379 76.5236 15.6187 78.2846 16.9395 80.0455C17.1691 80.3518 17.3605 80.6006 17.4754 80.9451H9.30234C8.68984 80.9451 8.19219 80.4475 8.19219 79.835V56.8279H17.4754C17.3605 57.1725 17.1691 57.4404 16.9395 57.7467C15.5996 59.4693 15.6379 61.2686 16.9395 62.9529C17.8391 64.0822 17.8582 65.0967 16.9395 66.2834ZM19.2555 55.2967H7.40742C6.92891 55.2967 6.52695 54.9139 6.52695 54.4162V36.8451C6.52695 36.3666 6.90977 35.9646 7.40742 35.9646H19.2555V55.2967ZM55.2016 71.7576L20.7867 55.5646V35.6967L55.2016 19.5229V71.7576ZM62.3793 73.3846C62.3793 73.8248 61.9965 74.2076 61.5563 74.2076H57.5559C57.1156 74.2076 56.7328 73.8248 56.7328 73.3846V17.8768C56.7328 17.4365 57.1156 17.0537 57.5559 17.0537H61.5563C61.9965 17.0537 62.3793 17.4365 62.3793 17.8768V73.3846Z" fill="#333333"/>
<path d="M97.2344 13.7621C97.2344 20.9207 91.4156 26.7395 84.2379 26.7395C81.8644 26.7395 79.6441 26.1078 77.7301 24.9977L69.7484 28.2324L72.9832 20.2508C71.873 18.3367 71.2414 16.1164 71.2414 13.7621C71.2414 6.58438 77.0601 0.765625 84.2379 0.765625C91.4156 0.765625 97.2344 6.58438 97.2344 13.7621Z" fill="#7AD1F9"/>
<path d="M80.5246 19.1223C81.4337 19.1223 82.1707 18.3853 82.1707 17.4762C82.1707 16.5671 81.4337 15.8301 80.5246 15.8301C79.6155 15.8301 78.8785 16.5671 78.8785 17.4762C78.8785 18.3853 79.6155 19.1223 80.5246 19.1223Z" fill="#D3F0FD"/>
<path d="M89.1187 11.1986C88.4679 11.8494 87.4343 11.8494 86.7835 11.1986C86.1519 10.5479 86.1519 9.51426 86.7835 8.88262C87.4343 8.23184 88.4679 8.23184 89.1187 8.88262C89.7503 9.51426 89.7503 10.5479 89.1187 11.1986Z" fill="#D3F0FD"/>
<path d="M84.2378 15.4094C85.1469 15.4094 85.8839 14.6724 85.8839 13.7633C85.8839 12.8542 85.1469 12.1172 84.2378 12.1172C83.3287 12.1172 82.5917 12.8542 82.5917 13.7633C82.5917 14.6724 83.3287 15.4094 84.2378 15.4094Z" fill="#D3F0FD"/>
<path d="M97.2344 13.7627C97.2344 20.9213 91.4157 26.74 84.2379 26.74C81.8645 26.74 79.6442 26.1084 77.7301 24.9982L69.7485 28.233L71.3371 24.3092L77.2707 21.8975C79.1848 23.0076 81.4051 23.6393 83.7786 23.6393C90.9563 23.6393 96.775 17.8205 96.775 10.6619C96.775 10.5471 96.775 10.4322 96.775 10.3174C97.0621 11.4084 97.2344 12.5568 97.2344 13.7627Z" fill="#4CC3F7"/>
<path d="M97.2344 13.4362C95.7223 7.92368 90.6883 3.88501 84.6973 3.88501C77.5196 3.88501 71.7008 9.70376 71.7008 16.8815C71.7008 16.9963 71.7008 17.092 71.7008 17.1877C71.3946 16.0967 71.2415 14.9483 71.2415 13.7807C71.2415 6.60298 77.0602 0.784228 84.2379 0.784228C91.3008 0.765088 97.0622 6.41157 97.2344 13.4362Z" fill="#A6E1FB"/>
<path d="M93.4254 58.1874C88.3532 63.2597 80.1418 63.2597 75.0504 58.1874C73.3661 56.503 72.2559 54.4741 71.6817 52.3495L65.3461 48.9999L71.7008 45.6503C72.275 43.5065 73.3852 41.4968 75.0696 39.8315C80.1418 34.7593 88.3723 34.7593 93.4446 39.8315C98.4977 44.8847 98.4977 53.1151 93.4254 58.1874Z" fill="#7BDE9E"/>
<path d="M93.4254 58.1874C88.3532 63.2597 80.1418 63.2597 75.0504 58.1874C73.3661 56.503 72.2559 54.4741 71.6817 52.3495L65.3461 48.9999L71.7008 45.6503C72.275 43.5065 73.3852 41.4968 75.0696 39.8315C80.1418 34.7593 88.3723 34.7593 93.4446 39.8315C98.4977 44.8847 98.4977 53.1151 93.4254 58.1874Z" fill="#7BDE9E"/>
<path d="M80.3715 49.0002C80.3715 49.9572 79.5676 50.7611 78.6105 50.7611C77.6344 50.7611 76.8496 49.9572 76.8496 49.0002C76.8496 48.024 77.6344 47.2393 78.6105 47.2393C79.5867 47.2393 80.3715 48.024 80.3715 49.0002Z" fill="#D3F3DE"/>
<path d="M91.6453 49.0002C91.6453 49.9764 90.8605 50.7611 89.8844 50.7611C88.9273 50.7611 88.1234 49.9764 88.1234 49.0002C88.1234 48.024 88.9082 47.2393 89.8844 47.2393C90.8605 47.2393 91.6453 48.024 91.6453 49.0002Z" fill="#D3F3DE"/>
<path d="M86.018 49.0002C86.018 49.9764 85.2141 50.7611 84.257 50.7611C83.2809 50.7611 82.4961 49.9764 82.4961 49.0002C82.4961 48.0432 83.2809 47.2393 84.257 47.2393C85.2141 47.2393 85.9988 48.024 86.018 49.0002Z" fill="#D3F3DE"/>
<path d="M94.593 56.8471C94.2485 57.3064 93.8465 57.7658 93.4254 58.1869C88.3532 63.2592 80.1418 63.2592 75.0504 58.1869C73.3661 56.5025 72.2559 54.4736 71.6817 52.349L65.3461 48.9994L68.0067 47.583L73.4426 50.4541C73.9977 52.5979 75.127 54.6268 76.8114 56.292C81.6922 61.1729 89.5016 61.3643 94.593 56.8471Z" fill="#50D27E"/>
<path d="M93.4254 58.1886C93.234 58.38 93.0426 58.5714 92.8512 58.7245C96.7176 53.6331 96.3348 46.3405 91.6836 41.6894C86.8027 36.8085 78.9742 36.6362 73.8828 41.1534C74.2465 40.6749 74.6293 40.2347 75.0695 39.7944C80.1418 34.7222 88.3723 34.7222 93.4445 39.7944C98.4977 44.8858 98.4977 53.1163 93.4254 58.1886Z" fill="#A7E9BF"/>
<path d="M97.2344 84.2385C97.2344 91.4162 91.4156 97.235 84.2379 97.235C77.0793 97.235 71.2605 91.4162 71.2605 84.2385C71.2605 81.865 71.8922 79.6447 73.0023 77.7307L69.7676 69.749L77.7492 72.9838C79.6633 71.8736 81.8836 71.242 84.2379 71.242C91.4156 71.242 97.2344 77.0607 97.2344 84.2385Z" fill="#BD90BE"/>
<path d="M85.482 82.9937C86.1711 83.6827 86.1711 84.7929 85.482 85.4819C84.7929 86.171 83.6828 86.171 82.9937 85.4819C82.3047 84.7929 82.3047 83.6827 82.9937 82.9937C83.6828 82.3237 84.7929 82.3237 85.482 82.9937Z" fill="#E9DAE9"/>
<path d="M80.2566 82.017C81.2291 82.017 82.0175 81.2286 82.0175 80.2561C82.0175 79.2835 81.2291 78.4951 80.2566 78.4951C79.2841 78.4951 78.4957 79.2835 78.4957 80.2561C78.4957 81.2286 79.2841 82.017 80.2566 82.017Z" fill="#E9DAE9"/>
<path d="M89.4633 89.4631C88.7742 90.1521 87.6641 90.1521 86.975 89.4631C86.2859 88.774 86.2859 87.6639 86.975 86.9748C87.6641 86.2857 88.7742 86.2857 89.4633 86.9748C90.1523 87.6639 90.1523 88.7932 89.4633 89.4631Z" fill="#E9DAE9"/>
<path d="M97.2343 84.2373C97.2343 91.415 91.4156 97.2338 84.2378 97.2338C77.175 97.2338 71.4328 91.5873 71.2605 84.5627C72.7726 90.0752 77.8066 94.1139 83.7785 94.1139C90.9562 94.1139 96.775 88.2951 96.775 81.1174C96.775 81.0025 96.775 80.8877 96.775 80.792C97.0621 81.9021 97.2343 83.0506 97.2343 84.2373Z" fill="#A76BA8"/>
<path d="M96.775 83.9119C95.2629 78.3994 90.229 74.3607 84.2379 74.3607C81.8645 74.3607 79.6442 74.9924 77.7493 76.1025L70.7438 73.2697L69.3274 69.7861L77.309 73.0209C79.2231 71.9107 81.4434 71.2791 83.7977 71.2791C90.8606 71.2408 96.6028 76.8873 96.775 83.9119Z" fill="#D3B5D3"/>
<path d="M69.7676 28.998C69.5762 28.998 69.3656 28.9215 69.2317 28.7684C69.0211 28.5578 68.9445 28.2324 69.0594 27.9453L72.1602 20.3082C71.0692 18.3176 70.4949 16.059 70.4949 13.7621C70.4949 6.18242 76.6582 0 84.257 0C91.8559 0 98 6.16328 98 13.7621C98 21.3418 91.8367 27.5051 84.2379 27.5051C81.941 27.5051 79.6824 26.9309 77.6918 25.8398L70.0547 28.9406C69.959 28.9789 69.8633 28.998 69.7676 28.998ZM84.2379 1.53125C77.5004 1.53125 72.007 7.02461 72.007 13.7621C72.007 15.9059 72.5813 18.0305 73.6531 19.868C73.768 20.0785 73.7871 20.3273 73.7106 20.5379L71.1649 26.8352L77.4621 24.2895C77.6727 24.1938 77.9215 24.2129 78.132 24.3277C79.9887 25.3996 82.0942 25.9738 84.257 25.9738C90.9945 25.9738 96.4879 20.4996 96.4879 13.7621C96.4688 7.02461 90.9754 1.53125 84.2379 1.53125Z" fill="#333333"/>
<path d="M74.5145 58.7236C72.8684 57.0775 71.6816 55.0678 71.05 52.8666L65.0016 49.6701C64.7527 49.5361 64.5996 49.2682 64.5996 49.0002C64.5996 48.7131 64.7527 48.4643 65.0016 48.3303L71.05 45.1338C71.7008 42.9326 72.8875 40.9229 74.5145 39.2959C79.8738 33.9365 88.602 33.9365 93.9613 39.2959C96.5645 41.899 98 45.3443 98 49.0193C98 52.6943 96.5645 56.1396 93.9613 58.7428C88.6211 64.0639 79.9121 64.1021 74.5145 58.7236ZM66.9922 49.0002L72.0645 51.6607C72.2559 51.7564 72.3898 51.9287 72.4473 52.1393C72.9832 54.2064 74.0742 56.1014 75.6055 57.6326C80.3715 62.3986 88.1234 62.3986 92.8895 57.6326C97.6555 52.8666 97.6555 45.1146 92.8895 40.3486C88.1234 35.5826 80.3715 35.5826 75.6055 40.3486C74.0934 41.8607 72.9832 43.7557 72.4473 45.8229C72.3898 46.0334 72.2559 46.2057 72.0645 46.3014L66.9922 49.0002Z" fill="#333333"/>
<path d="M84.2379 97.9998C76.6582 97.9998 70.4949 91.8365 70.4949 84.2377C70.4949 81.9408 71.0691 79.6823 72.1602 77.6916L69.0594 70.0545C68.9445 69.7674 69.002 69.442 69.2316 69.2315C69.4422 69.0209 69.7867 68.9444 70.0547 69.0592L77.6918 72.16C79.6824 71.069 81.941 70.4948 84.2379 70.4948C91.8176 70.4948 98 76.658 98 84.2569C98 91.8366 91.8176 97.9998 84.2379 97.9998ZM71.1648 71.1455L73.7105 77.4428C73.8063 77.6533 73.7871 77.9022 73.6531 78.1127C72.5812 79.9502 72.007 82.0748 72.007 84.2186C72.007 90.9561 77.4813 96.4494 84.2188 96.4494C90.9563 96.4494 96.4496 90.9561 96.4496 84.2186C96.4496 77.4811 90.9563 71.9877 84.2188 71.9877C82.075 71.9877 79.9504 72.5619 78.1129 73.6338C77.9023 73.7487 77.6535 73.7678 77.443 73.6912L71.1648 71.1455Z" fill="#333333"/>
</g>
<defs>
<clipPath id="clip0_317_612">
<rect width="98" height="98" fill="white"/>
</clipPath>
</defs>
</svg>
