<svg width="32" height="30" viewBox="0 0 32 30" fill="none" xmlns="http://www.w3.org/2000/svg">
<path d="M12.0059 24.3057C12.0059 24.6848 12.1069 25.0603 12.303 25.4107C12.4992 25.761 12.7866 26.0793 13.1489 26.3475C13.5114 26.6157 13.9417 26.8283 14.4151 26.9734C14.8886 27.1185 15.3962 27.1933 15.9086 27.1933C16.4211 27.1933 16.9286 27.1185 17.4022 26.9734C17.8756 26.8283 18.3059 26.6157 18.6682 26.3475C19.0306 26.0793 19.3181 25.761 19.5142 25.4107C19.7103 25.0603 19.8113 24.6848 19.8113 24.3057" stroke="black" stroke-width="2" stroke-linecap="round"/>
<path d="M5.83634 16.4883L5.49208 17.2018C4.17864 19.923 5.88917 23.1036 8.95919 23.6487L9.16762 23.6857C13.6238 24.4771 18.1933 24.4771 22.6495 23.6857C25.7447 23.1361 27.3822 19.8462 25.8844 17.1866L25.5898 16.6635C24.7855 15.2352 24.3644 13.6368 24.3644 12.013V10.3614C24.3644 7.58164 22.7268 5.04138 20.1365 3.80294C17.4637 2.5251 14.3317 2.48163 11.6217 3.68477L11.3554 3.80294C8.57954 5.03529 6.80226 7.70528 6.80226 10.6431V12.2814C6.80226 13.7345 6.4727 15.1701 5.83634 16.4883Z" stroke="black" stroke-width="2"/>
</svg>
