<svg width="220" height="139" viewBox="0 0 220 139" fill="none" xmlns="http://www.w3.org/2000/svg">
<path d="M162.454 113.135L117.18 103.03C116.967 102.982 116.767 102.888 116.592 102.753C116.417 102.618 116.273 102.445 116.167 102.246C116.061 102.047 115.996 101.826 115.977 101.596C115.958 101.367 115.985 101.135 116.056 100.915L132.192 51.4913C132.249 51.3139 132.367 51.1638 132.522 51.07C132.676 50.9762 132.857 50.9456 133.029 50.984L170.232 59.2875C170.404 59.3259 170.554 59.4305 170.654 59.5812C170.755 59.7318 170.797 59.9177 170.774 60.1026L164.362 111.697C164.333 111.925 164.259 112.146 164.145 112.345C164.031 112.544 163.88 112.717 163.7 112.852C163.52 112.987 163.317 113.082 163.102 113.131C162.888 113.18 162.667 113.181 162.454 113.135Z" fill="#0048D3" stroke="#020202" stroke-width="0.0621789" stroke-miterlimit="10" stroke-linecap="round"/>
<path d="M140.261 62.2253L145.177 40.9269C146.572 34.8868 152.654 31.0859 158.694 32.4802C164.734 33.8744 168.535 39.9565 167.141 45.9967L162.224 67.295" stroke="#020202" stroke-miterlimit="10" stroke-linecap="round"/>
<path d="M139.968 63.4328C140.783 63.6209 141.596 63.1127 141.784 62.2977C141.973 61.4826 141.464 60.6694 140.649 60.4813C139.834 60.2931 139.021 60.8013 138.832 61.6164C138.644 62.4314 139.153 63.2447 139.968 63.4328Z" fill="#020202"/>
<path d="M161.968 68.4328C162.783 68.6209 163.596 68.1127 163.785 67.2977C163.973 66.4826 163.465 65.6694 162.649 65.4813C161.834 65.2931 161.021 65.8013 160.833 66.6164C160.644 67.4314 161.153 68.2447 161.968 68.4328Z" fill="#020202"/>
<path fill-rule="evenodd" clip-rule="evenodd" d="M1.24365 104.073V98.9815L18.0248 76.5299H1.59321V70.1289H27.3291V75.2206L10.5867 97.6723H27.9845V104.073H1.24365ZM43.4541 104.461C40.7741 104.461 38.4146 103.879 36.3756 102.715C34.3657 101.552 32.8072 99.9675 31.7003 97.9632C30.5933 95.9265 30.0399 93.6151 30.0399 91.0289C30.0399 88.4103 30.5788 86.0989 31.6566 84.0946C32.7635 82.0579 34.2636 80.4738 36.1571 79.3424C38.0505 78.1786 40.1915 77.5967 42.5802 77.5967C44.8813 77.5967 46.9496 78.1462 48.7848 79.2454C50.649 80.3122 52.1201 81.8639 53.1979 83.9006C54.2756 85.9049 54.8146 88.3133 54.8146 91.1259C54.8146 91.4168 54.7999 91.7563 54.7709 92.1442C54.7417 92.4998 54.7126 92.8392 54.6835 93.1625H36.8973C37.0346 93.857 37.2539 94.5036 37.5553 95.1022C38.1379 96.169 38.9389 96.9934 39.9585 97.5753C41.0072 98.1248 42.2306 98.3996 43.6288 98.3996C44.8813 98.3996 45.9737 98.1895 46.9059 97.7692C47.8672 97.3489 48.7411 96.7185 49.5276 95.8781L53.1542 100.242C52.0764 101.6 50.7219 102.651 49.0906 103.394C47.4593 104.106 45.5805 104.461 43.4541 104.461ZM37.468 86.5676C37.1484 87.2143 36.932 87.9417 36.8186 88.7498H48.3949C48.2844 87.9279 48.0648 87.1844 47.7361 86.5192C47.2408 85.5169 46.5564 84.7411 45.6825 84.1915C44.8086 83.6096 43.789 83.3187 42.6239 83.3187C41.4587 83.3187 40.4245 83.6096 39.5216 84.1915C38.6477 84.7411 37.9631 85.5332 37.468 86.5676ZM73.6406 77.5967C75.5049 77.5967 77.1653 78.017 78.6217 78.8575C80.1074 79.6657 81.2726 80.9265 82.1173 82.6398C82.9621 84.3209 83.3844 86.4868 83.3844 89.1377V104.073H76.5681V90.3015C76.5681 88.2002 76.1458 86.6485 75.301 85.6463C74.4854 84.6441 73.3202 84.1431 71.8054 84.1431C70.7277 84.1431 69.7518 84.4016 68.8779 84.9189C68.0332 85.4038 67.3633 86.1636 66.868 87.198C66.402 88.2325 66.1689 89.558 66.1689 91.1744V104.073H59.3526V77.9846H65.863V81.0834C66.5374 80.2493 67.3385 79.5558 68.2662 79.0029C69.8392 78.0655 71.6307 77.5967 73.6406 77.5967ZM87.9464 104.073V99.5149L99.9196 83.8036H88.2523V77.9846H108.526V82.5428L96.5533 98.2542H108.92V104.073H87.9464ZM111.902 93.4535V87.392H120.507L118.523 93.4535H111.902Z" fill="black"/>
<path d="M129.643 77.9844H136.449V104.06H129.643V77.9844Z" fill="white"/>
<circle cx="133.063" cy="70.138" r="4.29035" fill="white"/>
<path d="M139.974 78.5693H156.281V84.3884H139.974V78.5693Z" fill="white"/>
<path d="M143.595 72.2119H150.423L150.473 95.7565L143.633 95.7561L143.595 95.7565V72.2119Z" fill="white"/>
<path d="M156.094 97.4971C153.749 99.2485 150.686 98.5627 150.473 95.7565L143.633 95.7561C143.553 105.626 154.056 105.773 157.935 102.82L156.094 97.4971Z" fill="white"/>
<path d="M120.501 87.3863L124.296 87.3857L124.266 93.4585L118.532 93.455L120.501 87.3863Z" fill="white"/>
</svg>
